<svg width="745" height="645" viewBox="0 0 745 645" fill="none" xmlns="http://www.w3.org/2000/svg">
<path d="M158.575 274.711L47.8492 301.001C47.3943 301.109 46.9225 301.127 46.461 301.052C45.9995 300.977 45.5573 300.811 45.1599 300.565C44.7626 300.318 44.4178 299.996 44.1455 299.616C43.8732 299.236 43.6788 298.806 43.5733 298.35L8.41378 150.318C8.19463 149.399 8.34874 148.431 8.84229 147.626C9.33584 146.821 10.1285 146.245 11.0465 146.023L79.2556 129.835L136.243 165.312L161.226 270.473C161.433 271.386 161.27 272.344 160.774 273.138C160.277 273.932 159.487 274.498 158.575 274.711Z" fill="#407BFF"/>
<path d="M136.243 165.274L79.2557 129.835L75.6333 130.693L89.0585 187.214L138.652 175.432L136.243 165.274Z" fill="#294FA3"/>
<path d="M136.15 164.882L90.179 175.805L79.2559 129.835L136.15 164.882Z" fill="#2856BD"/>
<path d="M121.27 182.522L39.374 201.972L51.7006 253.875L133.596 234.425L121.27 182.522Z" fill="#2453BD"/>
<path d="M70.4238 230.589L56.8306 252.66L92.4942 244.182L70.4238 230.589Z" fill="#B3CAFF"/>
<path d="M84.4653 246.087L133.592 234.417L132.471 229.693L105.005 212.776L84.4653 246.087Z" fill="#B3CAFF"/>
<path d="M85.2682 210.554C85.683 212.287 85.5742 214.103 84.9556 215.774C84.337 217.445 83.2364 218.895 81.7933 219.939C80.3501 220.984 78.6294 221.577 76.849 221.643C75.0686 221.709 73.3086 221.245 71.7921 220.31C70.2755 219.375 69.0707 218.011 68.3301 216.391C67.5894 214.77 67.3465 212.966 67.6318 211.208C67.9172 209.449 68.7182 207.815 69.9332 206.512C71.1482 205.209 72.7226 204.296 74.457 203.888C76.7746 203.338 79.2156 203.732 81.2431 204.982C83.2706 206.232 84.7184 208.236 85.2682 210.554Z" fill="#B3CAFF"/>
<path d="M635.291 150.99L554.516 113.366C554.18 113.211 553.878 112.992 553.629 112.72C553.379 112.447 553.186 112.128 553.06 111.781C552.935 111.433 552.881 111.064 552.9 110.695C552.919 110.326 553.011 109.964 553.171 109.631L603.474 1.61354C603.63 1.27955 603.851 0.979713 604.123 0.731252C604.396 0.482791 604.715 0.290595 605.062 0.165685C605.409 0.0407754 605.777 -0.0143848 606.145 0.00337042C606.514 0.0211257 606.875 0.111448 607.208 0.269152L656.932 23.4785L674.727 72.9222L638.988 149.646C638.676 150.314 638.111 150.831 637.418 151.083C636.725 151.336 635.96 151.302 635.291 150.99Z" fill="#407BFF"/>
<path d="M674.727 72.9222L656.932 23.4786L654.3 22.2649L635.086 63.4928L671.272 80.335L674.727 72.9222Z" fill="#294FA3"/>
<path d="M674.857 72.6421L641.304 57.0322L656.932 23.4785L674.857 72.6421Z" fill="#2856BD"/>
<path d="M638.951 120.368L579.2 92.5278C575.167 90.6606 571.638 96.6357 575.69 98.5216L635.441 126.343C639.474 128.21 643.003 122.254 638.951 120.368Z" fill="#2453BD"/>
<path d="M593.354 60.6547L653.104 88.4947C657.119 90.3619 660.573 84.3869 656.596 82.501L596.846 54.6796C592.831 52.8124 589.377 58.7688 593.354 60.6547Z" fill="#2453BD"/>
<path d="M584.111 80.0922L643.862 107.932C647.876 109.799 651.331 103.824 647.353 101.938L587.603 74.1171C583.588 72.2499 580.134 78.2063 584.111 80.0922Z" fill="#2453BD"/>
<path d="M442.763 488.394L440.896 482.289C440.591 481.293 440.025 480.397 439.257 479.694C438.488 478.991 437.546 478.507 436.527 478.293L391.49 468.677C390.743 468.518 389.972 468.508 389.222 468.647C388.471 468.786 387.755 469.072 387.116 469.489C386.476 469.905 385.924 470.443 385.492 471.073C385.061 471.702 384.757 472.411 384.6 473.158L366.208 559.255C365.881 560.822 366.186 562.454 367.056 563.797C367.927 565.14 369.293 566.084 370.857 566.425L473.217 588.253C474.785 588.585 476.42 588.282 477.764 587.41C479.108 586.539 480.051 585.17 480.387 583.603L496.408 508.467C496.57 507.719 496.582 506.946 496.444 506.193C496.306 505.441 496.02 504.723 495.604 504.081C495.187 503.439 494.648 502.885 494.017 502.452C493.386 502.019 492.676 501.716 491.927 501.558L446.498 491.867C445.624 491.669 444.819 491.243 444.163 490.634C443.507 490.024 443.024 489.251 442.763 488.394Z" fill="#2856BD"/>
<path d="M491.964 501.558L446.927 491.961C445.912 491.743 444.857 491.801 443.871 492.129C442.886 492.458 442.007 493.044 441.326 493.828L437.162 498.664C436.57 499.342 435.808 499.85 434.955 500.135C434.102 500.421 433.187 500.474 432.307 500.289L386.859 490.598C385.351 490.276 383.778 490.565 382.483 491.402C381.188 492.238 380.277 493.554 379.95 495.06L366.208 559.255C365.881 560.822 366.186 562.454 367.056 563.797C367.927 565.14 369.293 566.084 370.857 566.425L473.217 588.253C474.785 588.585 476.42 588.282 477.764 587.41C479.108 586.539 480.051 585.17 480.387 583.603L496.408 508.467C496.57 507.721 496.584 506.951 496.448 506.201C496.312 505.45 496.03 504.733 495.618 504.092C495.205 503.45 494.67 502.896 494.043 502.462C493.416 502.027 492.71 501.72 491.964 501.558Z" fill="#407BFF"/>
<path d="M557.616 85.2643H120.988C108.727 85.2643 98.7871 95.204 98.7871 107.465V439.436C98.7871 451.697 108.727 461.637 120.988 461.637H557.616C569.877 461.637 579.817 451.697 579.817 439.436V107.465C579.817 95.204 569.877 85.2643 557.616 85.2643Z" fill="#407BFF"/>
<path opacity="0.4" d="M557.616 85.2643H120.988C108.727 85.2643 98.7871 95.204 98.7871 107.465V439.436C98.7871 451.697 108.727 461.637 120.988 461.637H557.616C569.877 461.637 579.817 451.697 579.817 439.436V107.465C579.817 95.204 569.877 85.2643 557.616 85.2643Z" fill="white"/>
<path opacity="0.8" d="M557.616 110.752H120.988C112.852 110.752 106.256 117.347 106.256 125.484V439.436C106.256 447.572 112.852 454.168 120.988 454.168H557.616C565.752 454.168 572.348 447.572 572.348 439.436V125.484C572.348 117.347 565.752 110.752 557.616 110.752Z" fill="white"/>
<path opacity="0.3" d="M133.087 91.2579H127.859C125.91 91.2579 124.33 92.8379 124.33 94.787V100.015C124.33 101.964 125.91 103.544 127.859 103.544H133.087C135.036 103.544 136.616 101.964 136.616 100.015V94.787C136.616 92.8379 135.036 91.2579 133.087 91.2579Z" fill="white"/>
<path opacity="0.5" d="M153.011 91.2579H147.782C145.833 91.2579 144.253 92.8379 144.253 94.787V100.015C144.253 101.964 145.833 103.544 147.782 103.544H153.011C154.96 103.544 156.54 101.964 156.54 100.015V94.787C156.54 92.8379 154.96 91.2579 153.011 91.2579Z" fill="white"/>
<path opacity="0.7" d="M172.953 91.2579H167.724C165.775 91.2579 164.195 92.8379 164.195 94.787V100.015C164.195 101.964 165.775 103.544 167.724 103.544H172.953C174.902 103.544 176.482 101.964 176.482 100.015V94.787C176.482 92.8379 174.902 91.2579 172.953 91.2579Z" fill="white"/>
<path d="M316.802 103.339V95.6085L312.937 102.069H311.966L308.101 95.7205V103.413H306.009V91.65H307.876L312.545 99.4363L317.138 91.65H319.005V103.413L316.802 103.339Z" fill="white"/>
<path d="M330.246 94.3575L326.045 104.048C325.775 104.859 325.283 105.577 324.626 106.121C324.026 106.526 323.314 106.735 322.59 106.718C322.139 106.718 321.691 106.643 321.265 106.494C320.868 106.369 320.5 106.166 320.182 105.897L321.022 104.347C321.229 104.539 321.469 104.691 321.731 104.795C321.998 104.905 322.283 104.962 322.572 104.963C322.9 104.977 323.223 104.878 323.487 104.683C323.772 104.41 323.995 104.079 324.14 103.712L324.289 103.376L320.387 94.3575H322.572L325.391 101.005L328.229 94.3575H330.246Z" fill="white"/>
<path d="M338.574 93.4052V96.9902H344.269V98.8574H338.574V103.357H336.333V91.594H344.922V93.4612L338.574 93.4052Z" fill="white"/>
<path d="M346.826 92.5276C346.701 92.4113 346.603 92.2692 346.539 92.1112C346.474 91.9532 346.445 91.7831 346.453 91.6126C346.447 91.4451 346.477 91.2782 346.541 91.1235C346.606 90.9687 346.703 90.8298 346.826 90.7164C347.091 90.4752 347.44 90.3478 347.797 90.3616C348.145 90.3531 348.484 90.4727 348.75 90.6977C348.875 90.8066 348.975 90.9415 349.043 91.0931C349.11 91.2447 349.144 91.4093 349.142 91.5753C349.145 91.7496 349.112 91.9228 349.044 92.0835C348.977 92.2443 348.876 92.3892 348.75 92.5089C348.625 92.6329 348.476 92.7299 348.312 92.7942C348.148 92.8584 347.973 92.8884 347.797 92.8823C347.441 92.8885 347.095 92.7621 346.826 92.5276ZM346.733 94.3948H348.824V103.376H346.733V94.3948Z" fill="white"/>
<path d="M351.588 90.8658H353.679V103.339H351.588V90.8658Z" fill="white"/>
<path d="M364.845 99.5111H357.806C357.912 100.146 358.26 100.715 358.777 101.098C359.443 101.536 360.239 101.734 361.034 101.66C361.828 101.585 362.573 101.242 363.146 100.687L364.285 101.994C363.875 102.48 363.348 102.853 362.754 103.077C362.086 103.332 361.377 103.458 360.663 103.451C359.757 103.472 358.86 103.273 358.049 102.872C357.327 102.498 356.725 101.929 356.312 101.229C355.895 100.502 355.682 99.6766 355.696 98.8389C355.688 98.0161 355.894 97.2053 356.293 96.4862C356.683 95.7942 357.259 95.2251 357.955 94.8431C358.688 94.4466 359.512 94.2472 360.345 94.2642C361.161 94.2447 361.967 94.4446 362.679 94.8431C363.364 95.2199 363.927 95.7832 364.304 96.4676C364.703 97.2133 364.902 98.0495 364.883 98.8949C364.883 99.0443 364.864 99.343 364.845 99.5111ZM358.739 96.5422C358.267 96.9472 357.961 97.5125 357.881 98.1294H362.978C362.916 97.5087 362.618 96.9356 362.146 96.5288C361.673 96.1221 361.062 95.9129 360.439 95.9447C359.817 95.9186 359.208 96.1325 358.739 96.5422Z" fill="white"/>
<path d="M367.534 103.171C366.941 103.029 366.378 102.783 365.873 102.443L366.675 100.855C367.623 101.424 368.707 101.727 369.812 101.733C371.063 101.733 371.68 101.416 371.68 100.743C371.686 100.598 371.643 100.455 371.558 100.336C371.474 100.218 371.352 100.131 371.213 100.09C370.71 99.9187 370.19 99.7998 369.663 99.7351C369.031 99.654 368.407 99.5229 367.796 99.343C367.326 99.2098 366.905 98.944 366.582 98.5774C366.218 98.1605 366.03 97.6179 366.059 97.065C366.048 96.661 366.142 96.2611 366.332 95.9043C366.522 95.5475 366.801 95.2462 367.142 95.0297C367.993 94.4715 369.002 94.2029 370.018 94.2642C370.646 94.257 371.273 94.326 371.885 94.4696C372.415 94.5772 372.925 94.7662 373.397 95.0297L372.595 96.6355C371.812 96.1829 370.922 95.9506 370.018 95.9633C369.537 95.9392 369.057 96.0287 368.617 96.2247C368.475 96.2912 368.353 96.3965 368.267 96.5286C368.182 96.6606 368.135 96.8142 368.132 96.9716C368.129 97.1308 368.179 97.2863 368.274 97.4145C368.368 97.5426 368.502 97.6363 368.655 97.6812C369.171 97.8587 369.702 97.9899 370.242 98.0733C370.836 98.1577 371.423 98.2888 371.997 98.4654C372.449 98.6074 372.859 98.8574 373.192 99.1936C373.537 99.6123 373.71 100.146 373.677 100.687C373.684 101.088 373.587 101.483 373.398 101.836C373.208 102.189 372.932 102.488 372.595 102.704C371.698 103.25 370.656 103.511 369.607 103.451C368.907 103.447 368.21 103.353 367.534 103.171Z" fill="white"/>
<path d="M194.089 187.587L192.016 183.853C191.679 183.237 191.182 182.723 190.577 182.365C189.973 182.007 189.283 181.818 188.581 181.818H157.51C156.471 181.818 155.473 182.231 154.738 182.966C154.002 183.701 153.589 184.699 153.589 185.739V245.116C153.589 246.2 154.02 247.241 154.787 248.007C155.554 248.774 156.594 249.205 157.679 249.205H228.259C229.343 249.205 230.384 248.774 231.15 248.007C231.917 247.241 232.348 246.2 232.348 245.116V193.264C232.348 192.224 231.935 191.226 231.2 190.491C230.464 189.756 229.467 189.342 228.427 189.342H197.077C196.467 189.345 195.868 189.183 195.342 188.874C194.817 188.565 194.384 188.121 194.089 187.587Z" fill="#407BFF"/>
<path opacity="0.3" d="M194.089 187.587L192.016 183.853C191.679 183.237 191.182 182.723 190.577 182.365C189.973 182.007 189.283 181.818 188.581 181.818H157.51C156.471 181.818 155.473 182.231 154.738 182.966C154.002 183.701 153.589 184.699 153.589 185.739V245.116C153.589 246.2 154.02 247.241 154.787 248.007C155.554 248.774 156.594 249.205 157.679 249.205H228.259C229.343 249.205 230.384 248.774 231.15 248.007C231.917 247.241 232.348 246.2 232.348 245.116V193.264C232.348 192.224 231.935 191.226 231.2 190.491C230.464 189.756 229.467 189.342 228.427 189.342H197.077C196.467 189.345 195.868 189.183 195.342 188.874C194.817 188.565 194.384 188.121 194.089 187.587Z" fill="white"/>
<path d="M222.527 191.714H162.309V236.732H222.527V191.714Z" fill="#263238"/>
<path opacity="0.8" d="M222.527 191.714H162.309V236.732H222.527V191.714Z" fill="white"/>
<path d="M226.878 196.233H157.959V247.767H226.878V196.233Z" fill="#263238"/>
<path opacity="0.9" d="M226.878 196.233H157.959V247.767H226.878V196.233Z" fill="white"/>
<path d="M239.238 197.521H197.954C197.112 197.48 196.27 197.616 195.482 197.918C194.695 198.22 193.979 198.682 193.38 199.276L190.691 202.525C190.201 203.041 189.605 203.446 188.945 203.71C188.284 203.974 187.574 204.092 186.863 204.056H146.531C143.73 204.056 141.863 205.568 142.349 207.436C146.289 222.728 148.268 230.365 152.208 245.639C152.562 246.669 153.229 247.563 154.116 248.196C155.003 248.829 156.066 249.168 157.156 249.168H227.139C228.228 249.168 229.291 248.829 230.178 248.196C231.065 247.563 231.733 246.669 232.087 245.639L243.626 200.919C244.093 199.052 242.151 197.521 239.238 197.521Z" fill="#407BFF"/>
<g opacity="0.6">
<path d="M239.238 197.521H197.954C197.112 197.48 196.27 197.616 195.482 197.918C194.695 198.22 193.979 198.682 193.38 199.276L190.691 202.525C190.201 203.041 189.605 203.446 188.945 203.71C188.284 203.974 187.574 204.092 186.863 204.056H146.531C143.73 204.056 141.863 205.568 142.349 207.436C146.289 222.728 148.268 230.365 152.208 245.639C152.562 246.669 153.229 247.563 154.116 248.196C155.003 248.829 156.066 249.168 157.156 249.168H227.139C228.228 249.168 229.291 248.829 230.178 248.196C231.065 247.563 231.733 246.669 232.087 245.639L243.626 200.919C244.093 199.052 242.151 197.521 239.238 197.521Z" fill="white"/>
</g>
<path d="M155.214 271.537C154.551 271.621 153.879 271.563 153.24 271.367C152.602 271.171 152.012 270.841 151.511 270.399C151.01 269.958 150.609 269.414 150.334 268.806C150.059 268.197 149.917 267.537 149.917 266.869C149.917 266.201 150.059 265.541 150.334 264.932C150.609 264.324 151.01 263.78 151.511 263.339C152.012 262.897 152.602 262.567 153.24 262.371C153.879 262.175 154.551 262.117 155.214 262.201H230.518C231.181 262.117 231.854 262.175 232.492 262.371C233.131 262.567 233.72 262.897 234.221 263.339C234.722 263.78 235.123 264.324 235.398 264.932C235.673 265.541 235.815 266.201 235.815 266.869C235.815 267.537 235.673 268.197 235.398 268.806C235.123 269.414 234.722 269.958 234.221 270.399C233.72 270.841 233.131 271.171 232.492 271.367C231.854 271.563 231.181 271.621 230.518 271.537H155.214Z" fill="#263238"/>
<path opacity="0.6" d="M155.214 271.537C154.551 271.621 153.879 271.563 153.24 271.367C152.602 271.171 152.012 270.841 151.511 270.399C151.01 269.958 150.609 269.414 150.334 268.806C150.059 268.197 149.917 267.537 149.917 266.869C149.917 266.201 150.059 265.541 150.334 264.932C150.609 264.324 151.01 263.78 151.511 263.339C152.012 262.897 152.602 262.567 153.24 262.371C153.879 262.175 154.551 262.117 155.214 262.201H230.518C231.181 262.117 231.854 262.175 232.492 262.371C233.131 262.567 233.72 262.897 234.221 263.339C234.722 263.78 235.123 264.324 235.398 264.932C235.673 265.541 235.815 266.201 235.815 266.869C235.815 267.537 235.673 268.197 235.398 268.806C235.123 269.414 234.722 269.958 234.221 270.399C233.72 270.841 233.131 271.171 232.492 271.367C231.854 271.563 231.181 271.621 230.518 271.537H155.214Z" fill="white"/>
<path d="M334.466 187.587L332.393 183.853C332.054 183.238 331.556 182.726 330.952 182.368C330.348 182.01 329.659 181.82 328.957 181.818H297.962C296.922 181.818 295.924 182.231 295.189 182.966C294.454 183.701 294.041 184.699 294.041 185.739V245.116C294.038 245.652 294.142 246.183 294.345 246.679C294.548 247.175 294.848 247.626 295.226 248.006C295.604 248.386 296.054 248.688 296.549 248.894C297.044 249.099 297.575 249.205 298.111 249.205H368.71C369.246 249.205 369.777 249.099 370.272 248.894C370.767 248.688 371.217 248.386 371.595 248.006C371.973 247.626 372.273 247.175 372.476 246.679C372.68 246.183 372.783 245.652 372.781 245.116V193.264C372.781 192.224 372.368 191.226 371.632 190.491C370.897 189.756 369.9 189.342 368.86 189.342H337.509C336.89 189.355 336.279 189.198 335.743 188.889C335.207 188.579 334.765 188.129 334.466 187.587Z" fill="#407BFF"/>
<path opacity="0.3" d="M334.466 187.587L332.393 183.853C332.054 183.238 331.556 182.726 330.952 182.368C330.348 182.01 329.659 181.82 328.957 181.818H297.962C296.922 181.818 295.924 182.231 295.189 182.966C294.454 183.701 294.041 184.699 294.041 185.739V245.116C294.038 245.652 294.142 246.183 294.345 246.679C294.548 247.175 294.848 247.626 295.226 248.006C295.604 248.386 296.054 248.688 296.549 248.894C297.044 249.099 297.575 249.205 298.111 249.205H368.71C369.246 249.205 369.777 249.099 370.272 248.894C370.767 248.688 371.217 248.386 371.595 248.006C371.973 247.626 372.273 247.175 372.476 246.679C372.68 246.183 372.783 245.652 372.781 245.116V193.264C372.781 192.224 372.368 191.226 371.632 190.491C370.897 189.756 369.9 189.342 368.86 189.342H337.509C336.89 189.355 336.279 189.198 335.743 188.889C335.207 188.579 334.765 188.129 334.466 187.587Z" fill="white"/>
<path d="M362.978 191.714H302.76V236.732H362.978V191.714Z" fill="#263238"/>
<path opacity="0.8" d="M362.978 191.714H302.76V236.732H362.978V191.714Z" fill="white"/>
<path d="M367.329 196.233H298.41V247.767H367.329V196.233Z" fill="#263238"/>
<path opacity="0.9" d="M367.329 196.233H298.41V247.767H367.329V196.233Z" fill="white"/>
<path d="M379.708 197.521H338.405C337.56 197.48 336.715 197.615 335.925 197.917C335.134 198.219 334.415 198.682 333.812 199.276L331.104 202.525C330.625 203.029 330.045 203.426 329.401 203.69C328.757 203.954 328.065 204.079 327.37 204.056H286.945C284.163 204.056 282.296 205.569 282.762 207.436C286.721 222.728 288.681 230.365 292.621 245.639C292.978 246.668 293.646 247.56 294.532 248.193C295.419 248.825 296.48 249.166 297.569 249.168H367.571C368.66 249.166 369.721 248.825 370.608 248.193C371.495 247.56 372.163 246.668 372.519 245.639L384.058 200.919C384.525 199.052 382.583 197.521 379.708 197.521Z" fill="#407BFF"/>
<g opacity="0.6">
<path d="M379.708 197.521H338.405C337.56 197.48 336.715 197.615 335.925 197.917C335.134 198.219 334.415 198.682 333.812 199.276L331.104 202.525C330.625 203.029 330.045 203.426 329.401 203.69C328.757 203.954 328.065 204.079 327.37 204.056H286.945C284.163 204.056 282.296 205.569 282.762 207.436C286.721 222.728 288.681 230.365 292.621 245.639C292.978 246.668 293.646 247.56 294.532 248.193C295.419 248.825 296.48 249.166 297.569 249.168H367.571C368.66 249.166 369.721 248.825 370.608 248.193C371.495 247.56 372.163 246.668 372.519 245.639L384.058 200.919C384.525 199.052 382.583 197.521 379.708 197.521Z" fill="white"/>
</g>
<path d="M295.759 271.537C294.622 271.393 293.578 270.839 292.82 269.98C292.063 269.121 291.645 268.014 291.645 266.869C291.645 265.723 292.063 264.617 292.82 263.758C293.578 262.899 294.622 262.345 295.759 262.201H371.063C371.726 262.117 372.399 262.175 373.037 262.371C373.675 262.567 374.265 262.897 374.766 263.339C375.267 263.78 375.668 264.324 375.943 264.932C376.218 265.541 376.36 266.201 376.36 266.869C376.36 267.537 376.218 268.197 375.943 268.806C375.668 269.414 375.267 269.958 374.766 270.399C374.265 270.841 373.675 271.171 373.037 271.367C372.399 271.563 371.726 271.621 371.063 271.537H295.759Z" fill="#263238"/>
<path opacity="0.6" d="M295.759 271.537C294.622 271.393 293.578 270.839 292.82 269.98C292.063 269.121 291.645 268.014 291.645 266.869C291.645 265.723 292.063 264.617 292.82 263.758C293.578 262.899 294.622 262.345 295.759 262.201H371.063C371.726 262.117 372.399 262.175 373.037 262.371C373.675 262.567 374.265 262.897 374.766 263.339C375.267 263.78 375.668 264.324 375.943 264.932C376.218 265.541 376.36 266.201 376.36 266.869C376.36 267.537 376.218 268.197 375.943 268.806C375.668 269.414 375.267 269.958 374.766 270.399C374.265 270.841 373.675 271.171 373.037 271.367C372.399 271.563 371.726 271.621 371.063 271.537H295.759Z" fill="white"/>
<path d="M194.089 337.487L192.016 333.752C191.682 333.134 191.185 332.618 190.58 332.259C189.975 331.901 189.284 331.713 188.581 331.717H157.51C156.471 331.717 155.473 332.13 154.738 332.865C154.002 333.601 153.589 334.598 153.589 335.638V395.015C153.589 395.551 153.695 396.082 153.901 396.577C154.107 397.072 154.408 397.522 154.788 397.9C155.168 398.278 155.619 398.578 156.115 398.781C156.611 398.985 157.142 399.088 157.679 399.086H228.259C228.795 399.088 229.326 398.985 229.822 398.781C230.318 398.578 230.769 398.278 231.149 397.9C231.529 397.522 231.831 397.072 232.037 396.577C232.242 396.082 232.348 395.551 232.348 395.015V343.182C232.348 342.14 231.936 341.141 231.201 340.402C230.466 339.664 229.469 339.247 228.427 339.242H197.077C196.467 339.244 195.868 339.082 195.342 338.774C194.817 338.465 194.384 338.02 194.089 337.487Z" fill="#407BFF"/>
<path opacity="0.3" d="M194.089 337.487L192.016 333.752C191.682 333.134 191.185 332.618 190.58 332.259C189.975 331.901 189.284 331.713 188.581 331.717H157.51C156.471 331.717 155.473 332.13 154.738 332.865C154.002 333.601 153.589 334.598 153.589 335.638V395.015C153.589 395.551 153.695 396.082 153.901 396.577C154.107 397.072 154.408 397.522 154.788 397.9C155.168 398.278 155.619 398.578 156.115 398.781C156.611 398.985 157.142 399.088 157.679 399.086H228.259C228.795 399.088 229.326 398.985 229.822 398.781C230.318 398.578 230.769 398.278 231.149 397.9C231.529 397.522 231.831 397.072 232.037 396.577C232.242 396.082 232.348 395.551 232.348 395.015V343.182C232.348 342.14 231.936 341.141 231.201 340.402C230.466 339.664 229.469 339.247 228.427 339.242H197.077C196.467 339.244 195.868 339.082 195.342 338.774C194.817 338.465 194.384 338.02 194.089 337.487Z" fill="white"/>
<path d="M222.527 341.632H162.309V386.65H222.527V341.632Z" fill="#263238"/>
<path opacity="0.8" d="M222.527 341.632H162.309V386.65H222.527V341.632Z" fill="white"/>
<path d="M226.878 346.151H157.959V397.685H226.878V346.151Z" fill="#263238"/>
<path opacity="0.9" d="M226.878 346.151H157.959V397.685H226.878V346.151Z" fill="white"/>
<path d="M239.238 347.439H197.954C197.112 347.398 196.27 347.534 195.483 347.836C194.695 348.138 193.979 348.6 193.38 349.194C192.278 350.501 191.736 351.061 190.672 352.443C190.179 352.953 189.582 353.352 188.922 353.613C188.262 353.873 187.553 353.99 186.844 353.955H146.513C143.712 353.955 141.845 355.487 142.33 357.354C146.27 372.627 148.249 380.264 152.189 395.557C152.546 396.584 153.215 397.474 154.102 398.103C154.989 398.732 156.05 399.069 157.137 399.067H227.12C228.207 399.069 229.268 398.732 230.155 398.103C231.042 397.474 231.711 396.584 232.068 395.557L243.607 350.744C244.093 348.951 242.151 347.439 239.238 347.439Z" fill="#407BFF"/>
<g opacity="0.6">
<path d="M239.238 347.439H197.954C197.112 347.398 196.27 347.534 195.483 347.836C194.695 348.138 193.979 348.6 193.38 349.194C192.278 350.501 191.736 351.061 190.672 352.443C190.179 352.953 189.582 353.352 188.922 353.613C188.262 353.873 187.553 353.99 186.844 353.955H146.513C143.712 353.955 141.845 355.487 142.33 357.354C146.27 372.627 148.249 380.264 152.189 395.557C152.546 396.584 153.215 397.474 154.102 398.103C154.989 398.732 156.05 399.069 157.137 399.067H227.12C228.207 399.069 229.268 398.732 230.155 398.103C231.042 397.474 231.711 396.584 232.068 395.557L243.607 350.744C244.093 348.951 242.151 347.439 239.238 347.439Z" fill="white"/>
</g>
<path d="M155.214 423.322C154.077 423.178 153.033 422.625 152.275 421.765C151.518 420.906 151.1 419.8 151.1 418.654C151.1 417.509 151.518 416.403 152.275 415.543C153.033 414.684 154.077 414.13 155.214 413.986H230.518C231.181 413.902 231.854 413.96 232.492 414.156C233.131 414.353 233.72 414.682 234.221 415.124C234.722 415.566 235.123 416.109 235.398 416.717C235.673 417.326 235.815 417.986 235.815 418.654C235.815 419.322 235.673 419.982 235.398 420.591C235.123 421.2 234.722 421.743 234.221 422.184C233.72 422.626 233.131 422.956 232.492 423.152C231.854 423.348 231.181 423.406 230.518 423.322H155.214Z" fill="#263238"/>
<path opacity="0.6" d="M155.214 423.322C154.077 423.178 153.033 422.625 152.275 421.765C151.518 420.906 151.1 419.8 151.1 418.654C151.1 417.509 151.518 416.403 152.275 415.543C153.033 414.684 154.077 414.13 155.214 413.986H230.518C231.181 413.902 231.854 413.96 232.492 414.156C233.131 414.353 233.72 414.682 234.221 415.124C234.722 415.566 235.123 416.109 235.398 416.717C235.673 417.326 235.815 417.986 235.815 418.654C235.815 419.322 235.673 419.982 235.398 420.591C235.123 421.2 234.722 421.743 234.221 422.184C233.72 422.626 233.131 422.956 232.492 423.152C231.854 423.348 231.181 423.406 230.518 423.322H155.214Z" fill="white"/>
<path d="M334.466 337.487L332.393 333.752C332.057 333.135 331.56 332.62 330.955 332.262C330.35 331.904 329.66 331.715 328.957 331.717H297.962C296.922 331.717 295.924 332.13 295.189 332.866C294.454 333.601 294.041 334.598 294.041 335.638V395.015C294.038 395.551 294.142 396.081 294.345 396.576C294.549 397.071 294.849 397.521 295.227 397.899C295.606 398.278 296.055 398.577 296.55 398.781C297.045 398.985 297.576 399.088 298.111 399.086H368.71C369.245 399.088 369.776 398.985 370.271 398.781C370.766 398.577 371.215 398.278 371.594 397.899C371.972 397.521 372.272 397.071 372.476 396.576C372.68 396.081 372.783 395.551 372.781 395.015V343.182C372.781 342.14 372.368 341.141 371.633 340.402C370.899 339.664 369.901 339.247 368.86 339.242H337.509C336.89 339.254 336.279 339.097 335.743 338.788C335.207 338.479 334.765 338.029 334.466 337.487Z" fill="#407BFF"/>
<path opacity="0.3" d="M334.466 337.487L332.393 333.752C332.057 333.135 331.56 332.62 330.955 332.262C330.35 331.904 329.66 331.715 328.957 331.717H297.962C296.922 331.717 295.924 332.13 295.189 332.866C294.454 333.601 294.041 334.598 294.041 335.638V395.015C294.038 395.551 294.142 396.081 294.345 396.576C294.549 397.071 294.849 397.521 295.227 397.899C295.606 398.278 296.055 398.577 296.55 398.781C297.045 398.985 297.576 399.088 298.111 399.086H368.71C369.245 399.088 369.776 398.985 370.271 398.781C370.766 398.577 371.215 398.278 371.594 397.899C371.972 397.521 372.272 397.071 372.476 396.576C372.68 396.081 372.783 395.551 372.781 395.015V343.182C372.781 342.14 372.368 341.141 371.633 340.402C370.899 339.664 369.901 339.247 368.86 339.242H337.509C336.89 339.254 336.279 339.097 335.743 338.788C335.207 338.479 334.765 338.029 334.466 337.487Z" fill="white"/>
<path d="M362.978 341.632H302.76V386.65H362.978V341.632Z" fill="#263238"/>
<path opacity="0.8" d="M362.978 341.632H302.76V386.65H362.978V341.632Z" fill="white"/>
<path d="M367.329 346.151H298.41V397.685H367.329V346.151Z" fill="#263238"/>
<path opacity="0.9" d="M367.329 346.151H298.41V397.685H367.329V346.151Z" fill="white"/>
<path d="M379.708 347.439H338.405C337.56 347.398 336.715 347.533 335.925 347.835C335.134 348.137 334.415 348.6 333.812 349.194C332.71 350.501 332.169 351.061 331.104 352.443C330.622 352.942 330.041 353.334 329.397 353.595C328.754 353.855 328.064 353.978 327.37 353.955H286.945C284.163 353.955 282.296 355.487 282.762 357.354C286.721 372.627 288.681 380.264 292.621 395.557C292.981 396.582 293.65 397.471 294.537 398.1C295.423 398.728 296.483 399.066 297.569 399.067H367.571C368.658 399.066 369.717 398.728 370.604 398.1C371.49 397.471 372.159 396.582 372.519 395.557L384.058 350.744C384.525 348.951 382.583 347.439 379.708 347.439Z" fill="#407BFF"/>
<g opacity="0.6">
<path d="M379.708 347.439H338.405C337.56 347.398 336.715 347.533 335.925 347.835C335.134 348.137 334.415 348.6 333.812 349.194C332.71 350.501 332.169 351.061 331.104 352.443C330.622 352.942 330.041 353.334 329.397 353.595C328.754 353.855 328.064 353.978 327.37 353.955H286.945C284.163 353.955 282.296 355.487 282.762 357.354C286.721 372.627 288.681 380.264 292.621 395.557C292.981 396.582 293.65 397.471 294.537 398.1C295.423 398.728 296.483 399.066 297.569 399.067H367.571C368.658 399.066 369.717 398.728 370.604 398.1C371.49 397.471 372.159 396.582 372.519 395.557L384.058 350.744C384.525 348.951 382.583 347.439 379.708 347.439Z" fill="white"/>
</g>
<path d="M295.759 423.322C294.622 423.178 293.578 422.624 292.82 421.765C292.063 420.906 291.645 419.8 291.645 418.654C291.645 417.509 292.063 416.402 292.82 415.543C293.578 414.684 294.622 414.13 295.759 413.986H371.063C372.2 414.13 373.244 414.684 374.002 415.543C374.759 416.402 375.177 417.509 375.177 418.654C375.177 419.8 374.759 420.906 374.002 421.765C373.244 422.624 372.2 423.178 371.063 423.322H295.759Z" fill="#263238"/>
<path opacity="0.6" d="M295.759 423.322C294.622 423.178 293.578 422.624 292.82 421.765C292.063 420.906 291.645 419.8 291.645 418.654C291.645 417.509 292.063 416.402 292.82 415.543C293.578 414.684 294.622 414.13 295.759 413.986H371.063C372.2 414.13 373.244 414.684 374.002 415.543C374.759 416.402 375.177 417.509 375.177 418.654C375.177 419.8 374.759 420.906 374.002 421.765C373.244 422.624 372.2 423.178 371.063 423.322H295.759Z" fill="white"/>
<path d="M471.818 337.487L469.745 333.752C469.406 333.134 468.906 332.618 468.298 332.26C467.69 331.902 466.996 331.714 466.291 331.717H435.295C434.78 331.717 434.27 331.818 433.795 332.015C433.319 332.212 432.887 332.501 432.523 332.865C432.158 333.23 431.87 333.662 431.673 334.138C431.475 334.613 431.374 335.123 431.374 335.638V395.015C431.372 395.551 431.475 396.081 431.679 396.576C431.883 397.071 432.182 397.521 432.561 397.899C432.939 398.278 433.389 398.577 433.884 398.781C434.379 398.985 434.909 399.088 435.445 399.086H506.044C507.123 399.086 508.159 398.657 508.922 397.894C509.685 397.13 510.114 396.095 510.114 395.015V343.182C510.114 342.14 509.702 341.141 508.967 340.402C508.232 339.664 507.235 339.247 506.193 339.242H474.787C474.18 339.241 473.585 339.077 473.063 338.769C472.541 338.46 472.111 338.017 471.818 337.487Z" fill="#407BFF"/>
<path opacity="0.3" d="M471.818 337.487L469.745 333.752C469.406 333.134 468.906 332.618 468.298 332.26C467.69 331.902 466.996 331.714 466.291 331.717H435.295C434.78 331.717 434.27 331.818 433.795 332.015C433.319 332.212 432.887 332.501 432.523 332.865C432.158 333.23 431.87 333.662 431.673 334.138C431.475 334.613 431.374 335.123 431.374 335.638V395.015C431.372 395.551 431.475 396.081 431.679 396.576C431.883 397.071 432.182 397.521 432.561 397.899C432.939 398.278 433.389 398.577 433.884 398.781C434.379 398.985 434.909 399.088 435.445 399.086H506.044C507.123 399.086 508.159 398.657 508.922 397.894C509.685 397.13 510.114 396.095 510.114 395.015V343.182C510.114 342.14 509.702 341.141 508.967 340.402C508.232 339.664 507.235 339.247 506.193 339.242H474.787C474.18 339.241 473.585 339.077 473.063 338.769C472.541 338.46 472.111 338.017 471.818 337.487Z" fill="white"/>
<path d="M500.255 341.632H440.038V386.65H500.255V341.632Z" fill="#263238"/>
<path opacity="0.8" d="M500.255 341.632H440.038V386.65H500.255V341.632Z" fill="white"/>
<path d="M504.606 346.151H435.687V397.685H504.606V346.151Z" fill="#263238"/>
<path opacity="0.9" d="M504.606 346.151H435.687V397.685H504.606V346.151Z" fill="white"/>
<path d="M516.985 347.439H475.683C474.837 347.398 473.993 347.533 473.202 347.835C472.411 348.137 471.692 348.6 471.089 349.194C469.988 350.501 469.446 351.061 468.382 352.443C467.9 352.942 467.318 353.334 466.675 353.595C466.032 353.855 465.341 353.978 464.647 353.955H424.222C421.44 353.955 419.573 355.487 420.04 357.354C423.998 372.627 425.959 380.264 429.899 395.557C430.258 396.582 430.928 397.471 431.814 398.1C432.7 398.728 433.76 399.066 434.847 399.067H504.83C505.92 399.07 506.983 398.734 507.874 398.105C508.764 397.476 509.436 396.585 509.796 395.557C513.63 380.619 517.471 365.681 521.317 350.744C521.803 348.951 519.861 347.439 516.985 347.439Z" fill="#407BFF"/>
<g opacity="0.6">
<path d="M516.985 347.439H475.683C474.837 347.398 473.993 347.533 473.202 347.835C472.411 348.137 471.692 348.6 471.089 349.194C469.988 350.501 469.446 351.061 468.382 352.443C467.9 352.942 467.318 353.334 466.675 353.595C466.032 353.855 465.341 353.978 464.647 353.955H424.222C421.44 353.955 419.573 355.487 420.04 357.354C423.998 372.627 425.959 380.264 429.899 395.557C430.258 396.582 430.928 397.471 431.814 398.1C432.7 398.728 433.76 399.066 434.847 399.067H504.83C505.92 399.07 506.983 398.734 507.874 398.105C508.764 397.476 509.436 396.585 509.796 395.557C513.63 380.619 517.471 365.681 521.317 350.744C521.803 348.951 519.861 347.439 516.985 347.439Z" fill="white"/>
</g>
<path d="M433.036 423.322C431.899 423.178 430.854 422.624 430.097 421.765C429.34 420.906 428.922 419.8 428.922 418.654C428.922 417.509 429.34 416.402 430.097 415.543C430.854 414.684 431.899 414.13 433.036 413.986H508.34C509.476 414.13 510.521 414.684 511.279 415.543C512.036 416.402 512.454 417.509 512.454 418.654C512.454 419.8 512.036 420.906 511.279 421.765C510.521 422.624 509.476 423.178 508.34 423.322H433.036Z" fill="#263238"/>
<path opacity="0.6" d="M433.036 423.322C431.899 423.178 430.854 422.624 430.097 421.765C429.34 420.906 428.922 419.8 428.922 418.654C428.922 417.509 429.34 416.402 430.097 415.543C430.854 414.684 431.899 414.13 433.036 413.986H508.34C509.476 414.13 510.521 414.684 511.279 415.543C512.036 416.402 512.454 417.509 512.454 418.654C512.454 419.8 512.036 420.906 511.279 421.765C510.521 422.624 509.476 423.178 508.34 423.322H433.036Z" fill="white"/>
<path d="M432.065 271.537C431.402 271.621 430.729 271.563 430.091 271.367C429.452 271.171 428.863 270.841 428.362 270.399C427.861 269.958 427.46 269.414 427.185 268.806C426.91 268.197 426.768 267.537 426.768 266.869C426.768 266.201 426.91 265.541 427.185 264.932C427.46 264.324 427.861 263.78 428.362 263.339C428.863 262.897 429.452 262.567 430.091 262.371C430.729 262.175 431.402 262.117 432.065 262.201H507.369C508.032 262.117 508.704 262.175 509.343 262.371C509.981 262.567 510.571 262.897 511.072 263.339C511.573 263.78 511.974 264.324 512.249 264.932C512.524 265.541 512.666 266.201 512.666 266.869C512.666 267.537 512.524 268.197 512.249 268.806C511.974 269.414 511.573 269.958 511.072 270.399C510.571 270.841 509.981 271.171 509.343 271.367C508.704 271.563 508.032 271.621 507.369 271.537H432.065Z" fill="#263238"/>
<path opacity="0.6" d="M432.065 271.537C431.402 271.621 430.729 271.563 430.091 271.367C429.452 271.171 428.863 270.841 428.362 270.399C427.861 269.958 427.46 269.414 427.185 268.806C426.91 268.197 426.768 267.537 426.768 266.869C426.768 266.201 426.91 265.541 427.185 264.932C427.46 264.324 427.861 263.78 428.362 263.339C428.863 262.897 429.452 262.567 430.091 262.371C430.729 262.175 431.402 262.117 432.065 262.201H507.369C508.032 262.117 508.704 262.175 509.343 262.371C509.981 262.567 510.571 262.897 511.072 263.339C511.573 263.78 511.974 264.324 512.249 264.932C512.524 265.541 512.666 266.201 512.666 266.869C512.666 267.537 512.524 268.197 512.249 268.806C511.974 269.414 511.573 269.958 511.072 270.399C510.571 270.841 509.981 271.171 509.343 271.367C508.704 271.563 508.032 271.621 507.369 271.537H432.065Z" fill="white"/>
<path d="M429.488 250.83L445.546 297.809C445.981 298.839 446.703 299.721 447.628 300.351C448.552 300.98 449.638 301.329 450.755 301.356H482.349C482.969 301.418 483.591 301.266 484.114 300.927C484.636 300.588 485.028 300.081 485.224 299.489L486.158 296.072C486.328 295.563 486.667 295.126 487.118 294.835C487.57 294.543 488.106 294.413 488.641 294.466H520.514C520.967 294.533 521.43 294.479 521.855 294.309C522.28 294.14 522.653 293.861 522.936 293.5C523.218 293.14 523.4 292.711 523.464 292.258C523.527 291.805 523.469 291.343 523.296 290.919L509.591 250.792L509.386 242.95V182.583C509.386 181.528 508.967 180.517 508.221 179.771C507.475 179.025 506.463 178.606 505.409 178.606H473.815C473.102 178.602 472.402 178.791 471.787 179.153C471.172 179.514 470.667 180.035 470.324 180.66L468.214 184.507C467.914 185.045 467.475 185.494 466.943 185.806C466.411 186.118 465.806 186.282 465.189 186.28H433.297C432.237 186.28 431.221 186.701 430.472 187.451C429.722 188.2 429.301 189.216 429.301 190.276V242.987L429.488 250.83Z" fill="#407BFF"/>
<path opacity="0.6" d="M429.488 250.83L445.546 297.809C445.981 298.839 446.703 299.721 447.628 300.351C448.552 300.98 449.638 301.329 450.755 301.356H482.349C482.969 301.418 483.591 301.266 484.114 300.927C484.636 300.588 485.028 300.081 485.224 299.489L486.158 296.072C486.328 295.563 486.667 295.126 487.118 294.835C487.57 294.543 488.106 294.413 488.641 294.466H520.514C520.967 294.533 521.43 294.479 521.855 294.309C522.28 294.14 522.653 293.861 522.936 293.5C523.218 293.14 523.4 292.711 523.464 292.258C523.527 291.805 523.469 291.343 523.296 290.919L509.591 250.792L509.386 242.95V182.583C509.386 181.528 508.967 180.517 508.221 179.771C507.475 179.025 506.463 178.606 505.409 178.606H473.815C473.102 178.602 472.402 178.791 471.787 179.153C471.172 179.514 470.667 180.035 470.324 180.66L468.214 184.507C467.914 185.045 467.475 185.494 466.943 185.806C466.411 186.118 465.806 186.282 465.189 186.28H433.297C432.237 186.28 431.221 186.701 430.472 187.451C429.722 188.2 429.301 189.216 429.301 190.276V242.987L429.488 250.83Z" fill="white"/>
<path d="M429.488 250.83L445.546 297.808C445.98 298.839 446.703 299.721 447.627 300.351C448.551 300.98 449.638 301.329 450.755 301.356H482.348C482.968 301.418 483.591 301.266 484.114 300.927C484.636 300.587 485.028 300.08 485.224 299.489L486.157 296.072C486.328 295.563 486.667 295.126 487.118 294.835C487.569 294.543 488.106 294.413 488.641 294.466H520.514C520.967 294.533 521.43 294.479 521.855 294.309C522.28 294.14 522.653 293.86 522.935 293.5C523.218 293.14 523.4 292.711 523.463 292.258C523.527 291.805 523.469 291.342 523.296 290.919L509.591 250.792L429.488 250.83Z" fill="#407BFF"/>
<path opacity="0.3" d="M429.488 250.83L445.546 297.808C445.98 298.839 446.703 299.721 447.627 300.351C448.551 300.98 449.638 301.329 450.755 301.356H482.348C482.968 301.418 483.591 301.266 484.114 300.927C484.636 300.587 485.028 300.08 485.224 299.489L486.157 296.072C486.328 295.563 486.667 295.126 487.118 294.835C487.569 294.543 488.106 294.413 488.641 294.466H520.514C520.967 294.533 521.43 294.479 521.855 294.309C522.28 294.14 522.653 293.86 522.935 293.5C523.218 293.14 523.4 292.711 523.463 292.258C523.527 291.805 523.469 291.342 523.296 290.919L509.591 250.792L429.488 250.83Z" fill="white"/>
<path opacity="0.1" d="M437.218 250.83H502.216L514.073 284.234H449.075L437.218 250.83Z" fill="black"/>
<path d="M437.218 250.83H502.216V198.156H437.218V250.83Z" fill="#263238"/>
<path opacity="0.8" d="M437.218 250.83H502.216V198.156H437.218V250.83Z" fill="white"/>
<path d="M437.218 250.83H502.216L515.398 212.869H450.382L437.218 250.83Z" fill="#263238"/>
<path opacity="0.9" d="M437.218 250.83H502.216L515.398 212.869H450.382L437.218 250.83Z" fill="white"/>
<path d="M437.218 250.83H502.216L515.398 278.968H450.382L437.218 250.83Z" fill="#263238"/>
<path opacity="0.9" d="M437.218 250.83H502.216L515.398 278.968H450.382L437.218 250.83Z" fill="white"/>
<path d="M437.218 250.83H502.216L523.483 236.359H458.467L437.218 250.83Z" fill="#263238"/>
<path opacity="0.8" d="M437.218 250.83H502.216L523.483 236.359H458.467L437.218 250.83Z" fill="white"/>
<path d="M79.2185 579.682C80.8243 554.344 91.9342 528.707 109.803 511.305C114.266 506.973 123.639 498.384 116.04 493.846C107.357 488.656 90.7018 512.892 88.3678 517.373C93.2972 498.066 108.235 484.081 124.442 476.071C132.453 472.112 140.089 468.359 131.556 462.477C123.023 456.596 104.556 470.861 100.281 476.986C110.401 462.851 123.191 448.697 136.299 440.239C150.77 430.903 144.235 415.33 129.316 427.374C120.073 434.843 104.874 453.515 104.874 453.515C104.874 453.515 128.755 405.546 121.548 401.233C112.212 395.631 95.8553 460.984 91.3367 473.867C92.5503 463.187 93.6893 437.345 85.735 436.224C78.4716 435.216 80.2454 499.56 78.565 510.913C77.5006 515.861 77.0152 518.382 76.1749 523.367C75.3907 514.797 70.5733 492.203 63.3659 494.817C57.2415 497.021 61.0319 513.938 62.619 521.967C66.4655 541.404 70.3492 560.207 70.3866 580.149L79.2185 579.682Z" fill="#407BFF"/>
<path opacity="0.4" d="M86.9672 448.679C88.0502 462.646 89.0212 476.836 87.6768 490.878C90.5494 482.727 93.8719 474.742 97.629 466.959C97.6722 466.826 97.7352 466.7 97.8157 466.585C98.936 464.251 100.094 461.936 101.307 459.639C101.793 458.724 102.988 459.135 102.82 459.994C111.67 448.791 122.369 438.521 135.104 431.986C136.037 431.501 136.672 432.92 135.776 433.424C120.988 441.789 109.99 453.571 99.1041 467.519C94.5103 476.833 90.6158 486.476 87.4527 496.367C95.4877 483.71 107.862 474.416 122.257 470.226C123.228 469.928 123.77 471.421 122.799 471.739C103.1 477.957 89.1892 491.737 83.5876 509.793C83.552 509.934 83.4885 510.068 83.4009 510.185C80.6561 521.724 78.5648 532.927 76.959 544.691C82.5606 528.129 94.4921 513.508 108.235 503.239C109.056 502.622 109.803 504.042 108.982 504.658C93.1605 516.546 81.67 533.29 76.2681 552.328C76.2681 552.328 76.2681 552.328 76.2681 552.421C75.6706 559.89 75.4092 567.359 75.4839 574.827C75.5013 574.939 75.4943 575.053 75.4634 575.162C75.4325 575.271 75.3783 575.372 75.3047 575.458C75.2311 575.544 75.1397 575.613 75.0369 575.66C74.9341 575.708 74.8222 575.732 74.709 575.732C74.5958 575.732 74.484 575.708 74.3812 575.66C74.2783 575.613 74.187 575.544 74.1134 575.458C74.0397 575.372 73.9856 575.271 73.9547 575.162C73.9237 575.053 73.9167 574.939 73.9341 574.827C74.0532 549.79 77.5708 524.884 84.3905 500.793C88.0129 483.82 86.7058 466.1 85.3428 449.015C85.2494 447.839 86.8739 447.521 86.9672 448.679Z" fill="white"/>
<path d="M77.3513 579.663C75.4841 549.601 62.283 519.184 41.0715 498.552C35.7873 493.417 24.6774 483.222 33.6027 477.845C43.891 471.701 63.6647 500.438 66.4095 505.741C60.5838 482.849 42.8453 466.268 23.6318 456.764C14.1277 452.058 5.07172 447.633 15.192 440.65C25.3123 433.666 47.2333 450.602 52.2747 457.847C40.2686 441.042 25.1069 424.237 9.57169 414.266C-7.58794 403.212 0.235654 384.727 17.8434 399.011C28.916 407.862 46.9158 429.951 46.9158 429.951C46.9158 429.951 18.609 373.076 27.1608 367.847C38.14 361.125 57.6149 438.801 62.9738 453.982C61.5547 441.322 60.2104 410.662 69.7331 409.337C78.3409 408.142 76.231 484.436 78.2289 497.917C79.4986 503.799 80.0961 506.749 81.0484 512.687C82.0007 502.529 87.6583 475.735 96.2661 478.834C103.511 481.448 99.0296 501.502 97.1437 511.025C92.5691 534.066 87.957 556.379 87.9384 580.018L77.3513 579.663Z" fill="#407BFF"/>
<path opacity="0.2" d="M68.1647 424.237C66.895 440.818 65.7374 457.623 67.3245 474.278C63.921 464.618 59.9813 455.155 55.5237 445.934C55.4787 445.775 55.4095 445.624 55.3183 445.486C53.974 442.722 52.6109 439.978 51.1918 437.27C50.613 436.168 49.1752 436.673 49.3246 437.681C38.8309 424.33 26.1526 412.212 11.0469 404.407C9.92654 403.828 9.17966 405.528 10.244 406.125C27.777 416.04 40.8101 430.025 53.7499 446.569C59.1838 457.619 63.8019 469.052 67.5672 480.776C58.077 465.746 43.4321 454.693 26.3766 449.687C25.219 449.332 24.5094 451.106 25.7231 451.461C49.1005 458.836 65.4946 475.193 72.2352 496.61C72.2937 496.776 72.3754 496.933 72.478 497.077C75.7269 510.763 78.1916 524.058 80.1148 537.987C73.5049 518.363 59.3142 500.998 43.0321 488.842C42.0425 488.095 41.1649 489.795 42.1359 490.523C60.8969 504.626 74.5246 524.484 80.9364 547.062C80.9364 547.062 80.9364 547.062 80.9364 547.155C81.646 555.968 81.9572 564.819 81.87 573.707C81.87 573.954 81.9684 574.192 82.1435 574.367C82.3186 574.542 82.556 574.64 82.8036 574.64C83.0512 574.64 83.2887 574.542 83.4638 574.367C83.6389 574.192 83.7372 573.954 83.7372 573.707C83.5387 544.064 79.3176 514.586 71.1896 486.079C66.895 465.969 68.4448 445 70.0693 424.666C70.2 423.285 68.2768 422.893 68.1647 424.237Z" fill="white"/>
<path d="M77.3513 579.663C75.4841 549.601 62.283 519.184 41.0715 498.552C35.7873 493.417 24.6774 483.222 33.6027 477.845C43.891 471.701 63.6647 500.438 66.4095 505.741C60.5838 482.849 42.8453 466.268 23.6318 456.764C14.1277 452.058 5.07172 447.633 15.192 440.65C25.3123 433.666 47.2333 450.602 52.2747 457.847C40.2686 441.042 25.1069 424.237 9.57169 414.266C-7.58794 403.212 0.235654 384.727 17.8434 399.011C28.916 407.862 46.9158 429.951 46.9158 429.951C46.9158 429.951 18.609 373.076 27.1608 367.847C38.14 361.125 57.6149 438.801 62.9738 453.982C61.5547 441.322 60.2104 410.662 69.7331 409.337C78.3409 408.142 76.231 484.436 78.2289 497.917C79.4986 503.799 80.0961 506.749 81.0484 512.687C82.0007 502.529 87.6583 475.735 96.2661 478.834C103.511 481.448 99.0296 501.502 97.1437 511.025C92.5691 534.066 87.957 556.379 87.9384 580.018L77.3513 579.663Z" fill="#407BFF"/>
<path opacity="0.2" d="M77.3513 579.663C75.4841 549.601 62.283 519.184 41.0715 498.552C35.7873 493.417 24.6774 483.222 33.6027 477.845C43.891 471.701 63.6647 500.438 66.4095 505.741C60.5838 482.849 42.8453 466.268 23.6318 456.764C14.1277 452.058 5.07172 447.633 15.192 440.65C25.3123 433.666 47.2333 450.602 52.2747 457.847C40.2686 441.042 25.1069 424.237 9.57169 414.266C-7.58794 403.212 0.235654 384.727 17.8434 399.011C28.916 407.862 46.9158 429.951 46.9158 429.951C46.9158 429.951 18.609 373.076 27.1608 367.847C38.14 361.125 57.6149 438.801 62.9738 453.982C61.5547 441.322 60.2104 410.662 69.7331 409.337C78.3409 408.142 76.231 484.436 78.2289 497.917C79.4986 503.799 80.0961 506.749 81.0484 512.687C82.0007 502.529 87.6583 475.735 96.2661 478.834C103.511 481.448 99.0296 501.502 97.1437 511.025C92.5691 534.066 87.957 556.379 87.9384 580.018L77.3513 579.663Z" fill="white"/>
<path opacity="0.5" d="M68.1647 424.237C66.895 440.818 65.7374 457.623 67.3245 474.278C63.921 464.618 59.9813 455.155 55.5237 445.934C55.4787 445.775 55.4095 445.624 55.3183 445.486C53.974 442.722 52.6109 439.978 51.1918 437.27C50.613 436.168 49.1752 436.673 49.3246 437.681C38.8309 424.33 26.1526 412.212 11.0469 404.407C9.92654 403.828 9.17966 405.528 10.244 406.125C27.777 416.04 40.8101 430.025 53.7499 446.569C59.1838 457.619 63.8019 469.052 67.5672 480.776C58.077 465.746 43.4321 454.693 26.3766 449.687C25.219 449.332 24.5094 451.106 25.7231 451.461C49.1005 458.836 65.4946 475.193 72.2352 496.61C72.2937 496.776 72.3754 496.933 72.478 497.077C75.7269 510.763 78.1916 524.058 80.1148 537.987C73.5049 518.363 59.3142 500.998 43.0321 488.842C42.0425 488.095 41.1649 489.795 42.1359 490.523C60.8969 504.626 74.5246 524.484 80.9364 547.062C80.9364 547.062 80.9364 547.062 80.9364 547.155C81.646 555.968 81.9572 564.819 81.87 573.707C81.87 573.954 81.9684 574.192 82.1435 574.367C82.3186 574.542 82.556 574.64 82.8036 574.64C83.0512 574.64 83.2887 574.542 83.4638 574.367C83.6389 574.192 83.7372 573.954 83.7372 573.707C83.5387 544.064 79.3176 514.586 71.1896 486.079C66.895 465.969 68.4448 445 70.0693 424.666C70.2 423.285 68.2768 422.893 68.1647 424.237Z" fill="white"/>
<path d="M108.216 575.574H49.8102C47.9927 575.574 46.2497 576.296 44.9646 577.581C43.6795 578.866 42.9575 580.609 42.9575 582.427V585.452C42.9625 587.266 43.6866 589.004 44.9712 590.285C46.2558 591.566 47.996 592.286 49.8102 592.286L56.5321 640.833H101.494L108.216 592.286C109.118 592.288 110.011 592.113 110.845 591.77C111.678 591.426 112.436 590.922 113.074 590.285C113.712 589.649 114.219 588.892 114.564 588.06C114.91 587.227 115.088 586.335 115.088 585.433V582.408C115.085 581.508 114.906 580.618 114.559 579.787C114.212 578.957 113.706 578.203 113.067 577.568C112.429 576.934 111.673 576.431 110.84 576.089C110.008 575.747 109.116 575.572 108.216 575.574Z" fill="#407BFF"/>
<path opacity="0.2" d="M108.216 575.574H49.8102C47.9927 575.574 46.2497 576.296 44.9646 577.581C43.6795 578.866 42.9575 580.609 42.9575 582.427V585.452C42.9625 587.266 43.6866 589.004 44.9712 590.285C46.2558 591.566 47.996 592.286 49.8102 592.286L56.5321 640.833H101.494L108.216 592.286C109.118 592.288 110.011 592.113 110.845 591.77C111.678 591.426 112.436 590.922 113.074 590.285C113.712 589.649 114.219 588.892 114.564 588.06C114.91 587.227 115.088 586.335 115.088 585.433V582.408C115.085 581.508 114.906 580.618 114.559 579.787C114.212 578.957 113.706 578.203 113.067 577.568C112.429 576.934 111.673 576.431 110.84 576.089C110.008 575.747 109.116 575.572 108.216 575.574Z" fill="black"/>
<path opacity="0.2" d="M106.834 602.312L108.198 592.454H49.8286L51.1917 602.312H106.834Z" fill="black"/>
<path d="M639.218 227.558C637.762 230.583 636.577 233.731 635.677 236.965C634.399 241.796 634.706 245.337 631.843 247.599C628.98 249.861 625.734 250.488 626.373 253.389C626.545 254.213 626.934 254.975 627.501 255.598C628.067 256.22 628.79 256.68 629.594 256.929C629.594 256.929 631.204 271.423 631.843 276.574C632.482 281.724 649.557 276.574 649.557 276.574L652.676 292.946L673.611 294.224L675.873 276.51C681.419 269.255 685.069 260.734 686.494 251.715C688.757 236.901 680.385 219.506 662.671 219.506C644.956 219.506 639.218 227.558 639.218 227.558Z" fill="white" stroke="#263238" stroke-miterlimit="10"/>
<path d="M630.846 264.917C630.846 264.917 634.68 266.195 636.968 263.639" stroke="#263238" stroke-miterlimit="10"/>
<path d="M636.316 243.343L635.025 247.535" stroke="#263238" stroke-miterlimit="10"/>
<path d="M636.315 240.8C636.993 240.8 637.644 241.069 638.123 241.548C638.602 242.028 638.872 242.678 638.872 243.356" stroke="#263238" stroke-miterlimit="10"/>
<path d="M683.35 302.276C683.35 302.276 675.681 291.975 674.339 291.655C672.997 291.336 658.874 288.115 652.113 289.725C645.352 291.336 643.741 294.556 638.591 295.834C634.943 296.525 631.18 296.306 627.637 295.195C628.921 297.199 630.676 298.858 632.75 300.027C635.075 301.193 637.582 301.954 640.163 302.276C644.11 303.031 648.174 302.922 652.075 301.957C660.127 300.346 673.981 300.027 673.981 300.027L683.35 302.276Z" fill="#0C518D" stroke="#263238" stroke-miterlimit="10"/>
<path d="M543.564 296.167C543.564 296.167 540.024 283.923 538.452 281.341C536.37 278.403 533.746 275.891 530.72 273.941C528.47 272.663 519.766 267.55 517.517 267.55C515.267 267.55 514.053 270.106 515.906 271.091C517.069 271.73 522.668 273.992 523.307 274.925C524.076 275.856 524.932 276.712 525.863 277.481L520.75 278.759C520.75 278.759 518.82 282.3 517.849 283.872C516.878 285.444 515.919 287.092 517.21 289.342C518.501 291.591 520.099 295.144 522.041 296.116C523.984 297.087 523 292.563 523 292.563C523 292.563 526.834 296.397 528.802 298.046C530.207 299.159 531.718 300.131 533.314 300.947L534.273 303.503L543.564 296.167Z" fill="white" stroke="#263238" stroke-miterlimit="10"/>
<path d="M697.882 395.59C697.882 395.59 691.491 395.59 690.072 395.45C688.654 395.309 685.855 394.172 684.96 394.172C684.065 394.172 683.58 400.651 685.893 406.211C688.206 411.771 694.213 414.762 694.213 414.762L701.626 406.901C701.626 406.901 698.342 399.284 697.882 395.59Z" fill="white" stroke="#263238" stroke-miterlimit="10"/>
<path d="M692.207 511.335C692.207 511.335 695.185 528.372 693.063 544.131C690.942 559.89 679.004 621.251 679.004 621.251L683.682 639.144C683.682 639.144 688.795 642.122 686.238 643.401C683.682 644.679 671.336 643.401 671.336 643.401C671.336 643.401 669.623 635.732 668.345 631.898C667.067 628.063 663.233 625.507 664.945 620.817C666.658 616.126 667.923 611.448 667.923 611.448L661.955 520.281L692.207 511.335Z" fill="white" stroke="#263238" stroke-miterlimit="10"/>
<path d="M666.019 617.71C668.025 617.57 672.281 617.71 673.892 621.251C676.013 625.929 680.704 637.432 680.704 637.432L685.395 640.422L685.842 640.716C686.839 641.636 687.555 642.748 686.238 643.4C683.682 644.678 671.336 643.4 671.336 643.4C671.336 643.4 669.623 635.732 668.345 631.897C667.067 628.063 663.233 625.507 664.945 620.816C665.329 619.768 665.686 618.72 666.019 617.71Z" fill="#263238" stroke="#263238" stroke-miterlimit="10"/>
<path d="M671.757 625.507L669.84 643.401H666.862L665.367 624.012C665.367 624.012 670.479 620.395 671.757 625.507Z" fill="#263238" stroke="#263238" stroke-miterlimit="10"/>
<path d="M637.249 517.29L629.58 533.484C629.58 533.484 628.302 556.745 622.334 570.804C616.365 584.864 604.44 607.447 604.44 607.447L600.606 614.26C600.606 614.26 606.153 620.65 604.44 624.485C602.728 628.319 595.494 630.453 592.516 633.009C589.538 635.566 588.899 643.4 585.486 643.4C582.074 643.4 572.705 644.257 571.849 642.122C570.992 639.988 576.539 637.432 576.539 637.432C576.539 637.432 584.745 621.89 585.588 619.756C586.432 617.621 599.328 545.409 600.184 536.897C601.041 528.384 603.597 513.456 603.597 513.456L637.249 517.29Z" fill="white" stroke="#263238" stroke-miterlimit="10"/>
<path d="M584.208 637.866C584.208 637.866 590.816 627.475 594.215 622.785C596.304 620.001 599.207 617.937 602.523 616.88C603.942 619.078 605.45 622.222 604.44 624.485C602.74 628.319 595.915 630.441 593.845 633.776C590.956 638.429 588.898 643.4 585.486 643.4C582.073 643.4 572.705 644.257 571.849 642.122C570.992 639.988 576.539 637.432 576.539 637.432C577.817 637.01 584.208 637.866 584.208 637.866Z" fill="#263238" stroke="#263238" stroke-miterlimit="10"/>
<path d="M604.44 626.082L602.971 644.039H600.274L598.715 630.619C598.715 630.619 598.382 624.74 604.44 626.082Z" fill="#263238" stroke="#263238" stroke-miterlimit="10"/>
<path d="M690.073 395.45C690.073 395.45 700.297 417.177 702.854 432.515C705.41 447.852 700.936 475.97 700.936 475.97L702.854 514.313C702.854 514.313 665.789 523.899 640.227 523.899C624.463 523.829 608.778 521.68 593.576 517.508C593.576 517.508 592.937 475.97 598.05 456.159C603.162 436.349 614.665 403.118 615.304 401.201C615.943 399.284 620.416 393.533 620.416 393.533C620.416 393.533 661.315 401.84 690.073 395.45Z" fill="#263238" stroke="#263238" stroke-miterlimit="10"/>
<path d="M680.027 456.939L639.818 493.658" stroke="#707070" stroke-miterlimit="10"/>
<path d="M666.913 480.545L648.56 495.397" stroke="#707070" stroke-miterlimit="10"/>
<path d="M679.797 301.637C679.797 301.637 704.924 311.939 705.883 314.84C706.841 317.741 714.254 333.526 714.254 333.526C714.254 333.526 744.532 379.895 743.893 382.157C743.254 384.42 708.464 405.674 708.464 405.674C708.464 405.674 709.423 406.646 708.464 407.285C705.726 408.298 702.931 409.152 700.093 409.841C700.093 409.841 694.981 405.01 694.981 400.498C694.981 395.986 696.259 394.108 697.23 393.737C698.201 393.366 702.7 390.836 702.7 390.836L703.978 390.516L717.859 375.716L700.464 351.56C700.464 351.56 684.999 379.256 684.999 382.796C684.999 386.337 692.731 394.721 691.121 398.581C689.51 402.441 683.721 403.412 661.175 405.662C638.629 407.911 619.624 400.549 617.72 398.9C615.815 397.252 620.94 387.308 620.94 379.895C620.94 372.482 620.621 345.386 620.621 345.386C620.621 345.386 588.081 358.909 581.639 355.368C575.197 351.828 536.228 309.638 536.228 309.638L530.438 304.168L543.322 292.243L552.013 299.976L589.371 329.602C589.371 329.602 591.301 327.672 592.273 327.672C593.245 327.722 594.214 327.829 595.174 327.992C595.174 327.992 619.649 311.248 622.551 308.667C625.452 306.085 633.491 305.778 633.491 305.778L649.276 302.877C649.276 302.877 666.594 295.835 679.797 301.637Z" fill="#407BFF" stroke="#263238" stroke-miterlimit="10"/>
<path d="M620.544 345.438L640.188 341.897" stroke="#263238" stroke-miterlimit="10"/>
<path d="M625.695 344.799L643.729 350.269" stroke="#263238" stroke-miterlimit="10"/>
<path d="M640.47 388.279C639.45 387.149 638.494 385.963 637.607 384.726" stroke="#263238" stroke-miterlimit="10"/>
<path d="M665.303 404.396C657.292 401.49 649.915 397.068 643.576 391.372" stroke="#263238" stroke-miterlimit="10"/>
<path d="M637.339 377.646C637.339 377.646 644.739 381.838 652.471 386.337" stroke="#263238" stroke-miterlimit="10"/>
<path d="M706.075 337.066L700.413 351.56C700.413 351.56 711.366 342.868 712.644 338.996" stroke="#263238" stroke-miterlimit="10"/>
<path d="M708.464 330.944L707.352 333.794" stroke="#263238" stroke-miterlimit="10"/>
<path d="M719.417 348.978C719.417 348.978 713.615 351.879 704.592 349.63" stroke="#263238" stroke-miterlimit="10"/>
<path d="M719.418 374.744C723.708 375.465 728.104 375.247 732.301 374.105" stroke="#263238" stroke-miterlimit="10"/>
<path d="M728.083 369.888C728.083 369.888 723.252 372.15 719.712 372.15" stroke="#263238" stroke-miterlimit="10"/>
<path d="M703.953 390.529C703.953 390.529 700.732 402.773 708.464 405.661Z" fill="#0E5EA4"/>
<path d="M703.953 390.529C703.953 390.529 700.732 402.773 708.464 405.661" stroke="#263238" stroke-miterlimit="10"/>
<path d="M549.687 298.097L536.151 309.689" stroke="#263238" stroke-miterlimit="10"/>
<path d="M596.03 338.383C596.771 339.137 597.551 339.891 598.317 340.607" stroke="#263238" stroke-miterlimit="10"/>
<path d="M589.294 330.944C589.294 330.944 591.084 333.117 593.538 335.775" stroke="#263238" stroke-miterlimit="10"/>
<path d="M593.487 329.653C596.489 332.607 599.841 335.182 603.469 337.322" stroke="#263238" stroke-miterlimit="10"/>
<path d="M638.284 221.181C638.284 221.181 636.009 227.124 640.572 242.18C645.135 257.236 649.25 267.295 646.963 276.88C644.675 286.466 639.205 288.294 638.284 286.926C637.351 285.738 636.278 284.665 635.089 283.731C635.089 283.731 634.182 287.374 638.284 290.569C642.387 293.764 658.376 296.959 668.422 295.592C678.468 294.224 684.858 298.314 688.462 289.661C692.067 281.009 690.29 267.295 691.21 261.812C692.131 256.329 701.243 249.031 694.853 232.594C688.462 216.158 662.901 214.33 654.235 214.33C645.57 214.33 639.665 211.595 638.284 221.181Z" fill="#263238" stroke="#263238" stroke-miterlimit="10"/>
</svg>
