<svg width="850" height="710" viewBox="0 0 850 710" fill="none" xmlns="http://www.w3.org/2000/svg">
<path d="M445.271 709.434C668.747 709.434 849.91 702.701 849.91 694.394C849.91 686.088 668.747 679.354 445.271 679.354C221.794 679.354 40.6305 686.088 40.6305 694.394C40.6305 702.701 221.794 709.434 445.271 709.434Z" fill="#51E186"/>
<path opacity="0.8" d="M445.271 709.434C668.747 709.434 849.91 702.701 849.91 694.394C849.91 686.088 668.747 679.354 445.271 679.354C221.794 679.354 40.6305 686.088 40.6305 694.394C40.6305 702.701 221.794 709.434 445.271 709.434Z" fill="white"/>
<path d="M639.75 129.054C638.955 129.054 638.192 129.37 637.629 129.933C637.066 130.496 636.75 131.259 636.75 132.054V147.434H581.93V132.054C581.93 131.259 581.614 130.496 581.052 129.933C580.489 129.37 579.726 129.054 578.93 129.054C578.135 129.054 577.372 129.37 576.809 129.933C576.246 130.496 575.93 131.259 575.93 132.054V519.454C575.93 520.25 576.246 521.013 576.809 521.576C577.372 522.138 578.135 522.454 578.93 522.454C579.726 522.454 580.489 522.138 581.052 521.576C581.614 521.013 581.93 520.25 581.93 519.454V432.794H636.75V519.454C636.75 520.25 637.066 521.013 637.629 521.576C638.192 522.138 638.955 522.454 639.75 522.454C640.546 522.454 641.309 522.138 641.872 521.576C642.434 521.013 642.75 520.25 642.75 519.454V131.994C642.735 131.209 642.412 130.461 641.851 129.912C641.29 129.362 640.536 129.054 639.75 129.054ZM636.75 426.854H581.93V407.414H636.75V426.854ZM636.75 401.394H581.93V381.974H636.75V401.394ZM636.75 375.954H581.93V356.594H636.75V375.954ZM636.75 350.534H581.93V331.254H636.75V350.534ZM636.75 325.134H581.93V306.074H636.75V325.134ZM636.75 299.814H581.93V280.634H636.75V299.814ZM636.75 274.614H581.93V255.254H636.75V274.614ZM636.75 249.174H581.93V229.814H636.75V249.174ZM636.75 223.794H581.93V204.374H636.75V223.794ZM636.75 198.354H581.93V178.894H636.75V198.354ZM636.75 172.894H581.93V153.434H636.75V172.894Z" fill="white"/>
<path d="M120.471 441.374C120.471 441.374 165.371 379.914 143.471 365.374C120.691 350.354 109.991 395.854 105.171 418.194C94.8906 465.874 97.7906 475.994 104.691 465.514L120.471 441.374Z" fill="#51E186"/>
<path opacity="0.5" d="M120.471 441.374C120.471 441.374 165.371 379.914 143.471 365.374C120.691 350.354 109.991 395.854 105.171 418.194C94.8906 465.874 97.7906 475.994 104.691 465.514L120.471 441.374Z" fill="white"/>
<path d="M137.311 479.174C137.311 479.174 199.731 435.614 183.711 414.854C167.051 393.234 142.151 432.854 130.331 452.374C105.111 494.134 104.591 504.654 114.511 496.974L137.311 479.174Z" fill="#51E186"/>
<path opacity="0.5" d="M137.311 479.174C137.311 479.174 199.731 435.614 183.711 414.854C167.051 393.234 142.151 432.854 130.331 452.374C105.111 494.134 104.591 504.654 114.511 496.974L137.311 479.174Z" fill="white"/>
<path d="M138.671 529.694C138.671 529.694 192.671 505.434 183.451 487.234C173.851 468.294 149.071 494.934 137.211 508.174C111.871 536.454 109.951 544.414 118.651 539.994L138.671 529.694Z" fill="#51E186"/>
<path opacity="0.5" d="M138.671 529.694C138.671 529.694 192.671 505.434 183.451 487.234C173.851 468.294 149.071 494.934 137.211 508.174C111.871 536.454 109.951 544.414 118.651 539.994L138.671 529.694Z" fill="white"/>
<path d="M141.87 580.434C141.87 580.434 195.87 556.174 186.67 537.974C177.05 519.054 152.29 545.674 140.41 558.934C115.09 587.214 113.15 595.174 121.87 590.734L141.87 580.434Z" fill="#51E186"/>
<path opacity="0.5" d="M141.87 580.434C141.87 580.434 195.87 556.174 186.67 537.974C177.05 519.054 152.29 545.674 140.41 558.934C115.09 587.214 113.15 595.174 121.87 590.734L141.87 580.434Z" fill="white"/>
<path d="M78.5305 467.054C78.5305 467.054 19.1705 419.394 3.75046 440.594C-12.2495 462.594 32.6705 475.454 54.7705 481.294C101.93 493.754 112.17 491.294 102.01 483.934L78.5305 467.054Z" fill="#51E186"/>
<path opacity="0.5" d="M78.5305 467.054C78.5305 467.054 19.1705 419.394 3.75046 440.594C-12.2495 462.594 32.6705 475.454 54.7705 481.294C101.93 493.754 112.17 491.294 102.01 483.934L78.5305 467.054Z" fill="white"/>
<path d="M80.2905 506.874C80.2905 506.874 12.6505 471.954 1.75051 495.814C-9.58949 520.634 37.0105 524.234 59.7505 525.554C108.451 528.394 118.011 523.954 106.591 518.754L80.2905 506.874Z" fill="#51E186"/>
<path opacity="0.5" d="M80.2905 506.874C80.2905 506.874 12.6505 471.954 1.75051 495.814C-9.58949 520.634 37.0105 524.234 59.7505 525.554C108.451 528.394 118.011 523.954 106.591 518.754L80.2905 506.874Z" fill="white"/>
<path d="M88.4705 551.514C88.4705 551.514 30.4705 523.514 21.8105 543.974C12.7905 565.234 52.2705 567.194 71.6105 567.774C112.85 569.054 120.83 565.054 111.05 561.054L88.4705 551.514Z" fill="#51E186"/>
<path opacity="0.5" d="M88.4705 551.514C88.4705 551.514 30.4705 523.514 21.8105 543.974C12.7905 565.234 52.2705 567.194 71.6105 567.774C112.85 569.054 120.83 565.054 111.05 561.054L88.4705 551.514Z" fill="white"/>
<path d="M91.3105 587.574C91.3105 587.574 36.5905 553.574 25.8105 572.994C14.5905 593.174 53.6505 599.314 72.8105 601.954C113.691 607.594 122.031 604.494 112.811 599.354L91.3105 587.574Z" fill="#51E186"/>
<path opacity="0.5" d="M91.3105 587.574C91.3105 587.574 36.5905 553.574 25.8105 572.994C14.5905 593.174 53.6505 599.314 72.8105 601.954C113.691 607.594 122.031 604.494 112.811 599.354L91.3105 587.574Z" fill="white"/>
<path d="M86.1305 406.674C86.1305 406.674 75.8505 317.414 42.1305 326.534C7.11051 336.054 36.4305 381.214 51.3105 403.054C82.9305 449.534 94.5705 454.654 92.0705 440.134L86.1305 406.674Z" fill="#51E186"/>
<path opacity="0.5" d="M86.1305 406.674C86.1305 406.674 75.8505 317.414 42.1305 326.534C7.11051 336.054 36.4305 381.214 51.3105 403.054C82.9305 449.534 94.5705 454.654 92.0705 440.134L86.1305 406.674Z" fill="white"/>
<path d="M49.0305 359.054C49.0305 359.054 100.351 455.214 108.311 499.854C117.471 551.134 118.951 608.414 112.631 653.294" stroke="#51E186" stroke-width="2" stroke-linecap="round" stroke-linejoin="round"/>
<path d="M100.21 470.154L125.35 393.154" stroke="#51E186" stroke-width="2" stroke-linecap="round" stroke-linejoin="round"/>
<path d="M108.311 499.854L155.631 440.354" stroke="#51E186" stroke-width="2" stroke-linecap="round" stroke-linejoin="round"/>
<path d="M105.291 489.034L36.7705 460.254" stroke="#51E186" stroke-width="2" stroke-linecap="round" stroke-linejoin="round"/>
<path d="M114.25 540.154L165.77 500.674" stroke="#51E186" stroke-width="2" stroke-linecap="round" stroke-linejoin="round"/>
<path d="M111.51 523.214L57.6904 512.014" stroke="#51E186" stroke-width="2" stroke-linecap="round" stroke-linejoin="round"/>
<path d="M114.09 564.434L72.4104 557.834" stroke="#51E186" stroke-width="2" stroke-linecap="round" stroke-linejoin="round"/>
<path d="M117.611 591.114L145.651 565.994" stroke="#51E186" stroke-width="2" stroke-linecap="round" stroke-linejoin="round"/>
<path d="M117.05 602.414L69.1504 590.374" stroke="#51E186" stroke-width="2" stroke-linecap="round" stroke-linejoin="round"/>
<path d="M81.5706 617.074H138.191V628.794H133.251L123.031 692.734H96.7306L86.5106 628.794H81.5706V617.074Z" fill="#51E186"/>
<path opacity="0.5" d="M81.5706 617.074H138.191V628.794H133.251L123.031 692.734H96.7306L86.5106 628.794H81.5706V617.074Z" fill="white"/>
<path d="M174.811 13.2944C172.356 11.101 169.358 9.60475 166.13 8.96114C162.901 8.31753 159.559 8.55 156.451 9.6344C145.451 13.2944 134.911 29.1944 137.571 42.6544C139.431 51.9744 148.071 65.7144 150.691 70.9544C153.311 76.1944 149.631 85.0544 141.311 103.454C132.991 121.854 129.771 139.114 153.891 154.314C178.011 169.514 205.311 145.394 219.311 128.094C233.311 110.794 208.811 70.9544 206.711 54.0944C204.611 37.2344 201.011 4.91441 174.811 13.2944Z" fill="#263238"/>
<path d="M231.511 129.254C225.509 135.259 218.257 139.867 210.272 142.75C202.287 145.633 193.764 146.72 185.311 145.934L179.531 170.034L190.531 225.054L262.351 187.834L246.091 145.834L231.511 129.254Z" fill="#51E186" stroke="#263238" stroke-width="2" stroke-linecap="round" stroke-linejoin="round"/>
<path opacity="0.3" d="M231.511 129.254C225.509 135.259 218.257 139.867 210.272 142.75C202.287 145.633 193.764 146.72 185.311 145.934L179.531 170.034L190.531 225.054L262.351 187.834L246.091 145.834L231.511 129.254Z" fill="#263238"/>
<path d="M231.51 129.254L220.51 56.3744L187.91 63.0544L171.65 73.5344C171.65 73.5344 152.25 88.7544 152.25 90.3144C152.25 91.8744 185.07 146.794 185.07 146.794C193.609 147.3 202.159 145.999 210.161 142.976C218.163 139.954 225.438 135.278 231.51 129.254Z" fill="white"/>
<path d="M231.51 129.254L220.51 56.3744L187.91 63.0544L171.65 73.5344C171.65 73.5344 152.25 88.7544 152.25 90.3144C152.25 91.8744 185.07 146.794 185.07 146.794C193.609 147.3 202.159 145.999 210.161 142.976C218.163 139.954 225.438 135.278 231.51 129.254Z" stroke="#263238" stroke-width="2" stroke-linecap="round" stroke-linejoin="round"/>
<path opacity="0.5" d="M187.771 126.134C187.771 126.134 210.751 109.094 208.631 114.134C206.511 119.174 190.631 131.754 186.371 132.134C182.111 132.514 187.771 126.134 187.771 126.134Z" fill="#51E186"/>
<path d="M188.47 93.7744L189.37 94.7144L194.97 100.634L196.41 123.374L203.27 122.294L197.85 100.994L206.53 119.034L213.75 111.814L198.23 97.7344L197.85 86.5544L189.91 82.5744" fill="#263238"/>
<path d="M175.851 66.7744C175.851 66.7744 169.031 69.9144 169.031 76.1944C169.031 82.4744 176.411 97.4144 181.031 100.554C185.651 103.694 193.571 89.3144 193.571 89.3144C193.571 89.3144 205.571 95.0744 208.771 89.8344C211.971 84.5944 201.431 67.2944 194.631 62.5744C187.831 57.8544 175.851 66.7744 175.851 66.7744Z" fill="white" stroke="#263238" stroke-width="2" stroke-linecap="round" stroke-linejoin="round"/>
<path d="M170.091 60.4744C171.966 65.2655 173.542 70.1682 174.811 75.1544C175.851 80.3944 190.011 89.3144 191.571 89.8344C193.131 90.3544 194.191 73.0544 194.191 73.0544L190.011 52.6144L170.091 60.4744Z" fill="white"/>
<mask id="mask0_719_222" style="mask-type:luminance" maskUnits="userSpaceOnUse" x="170" y="52" width="25" height="38">
<path d="M170.091 60.4744C171.966 65.2655 173.542 70.1682 174.811 75.1544C175.851 80.3944 190.011 89.3144 191.571 89.8344C193.131 90.3544 194.191 73.0544 194.191 73.0544L190.011 52.6144L170.091 60.4744Z" fill="white"/>
</mask>
<g mask="url(#mask0_719_222)">
<g style="mix-blend-mode:multiply" opacity="0.5">
<path d="M190.451 54.7944C189.571 54.5477 188.676 54.3606 187.771 54.2344L173.311 59.3344L171.411 64.2944C172.371 66.9744 173.591 70.5744 174.331 73.4944C176.701 75.4057 179.565 76.6054 182.591 76.9544C186.931 77.2544 190.751 73.8944 193.451 69.7744L190.451 54.7944Z" fill="#51E186"/>
</g>
</g>
<path d="M170.091 60.4744C171.966 65.2655 173.542 70.1682 174.811 75.1544C175.851 80.3944 190.011 89.3144 191.571 89.8344C193.131 90.3544 194.191 73.0544 194.191 73.0544L190.011 52.6144L170.091 60.4744Z" stroke="#263238" stroke-width="2" stroke-linecap="round" stroke-linejoin="round"/>
<path d="M160.651 51.5544C160.651 51.5544 154.871 46.8544 154.871 51.5544C154.871 56.2544 160.131 58.8944 164.311 58.8944" fill="white"/>
<path d="M160.651 51.5544C160.651 51.5544 154.871 46.8544 154.871 51.5544C154.871 56.2544 160.131 58.8944 164.311 58.8944" stroke="#263238" stroke-width="2" stroke-linecap="round" stroke-linejoin="round"/>
<path d="M191.571 36.3544C191.571 36.3544 195.251 30.5944 196.291 36.8944C196.77 40.9957 195.645 45.1234 193.151 48.4144L191.571 36.3544Z" fill="white" stroke="#263238" stroke-width="2" stroke-linecap="round" stroke-linejoin="round"/>
<g opacity="0.5">
<path d="M160.651 51.5544C160.651 51.5544 154.871 46.8544 154.871 51.5544C154.871 56.2544 160.131 58.8944 164.311 58.8944" fill="#51E186"/>
<path d="M160.651 51.5544C160.651 51.5544 154.871 46.8544 154.871 51.5544C154.871 56.2544 160.131 58.8944 164.311 58.8944" stroke="#263238" stroke-width="2" stroke-linecap="round" stroke-linejoin="round"/>
</g>
<path opacity="0.5" d="M191.571 36.3544C191.571 36.3544 195.251 30.5944 196.291 36.8944C196.77 40.9957 195.645 45.1234 193.151 48.4144L191.571 36.3544Z" fill="#51E186" stroke="#263238" stroke-width="2" stroke-linecap="round" stroke-linejoin="round"/>
<path d="M154.151 36.3944C154.151 36.3944 158.651 55.1344 168.311 64.3944C177.971 73.6544 188.311 73.7344 191.891 57.2344C194.831 43.6344 187.531 25.4944 187.531 25.4944C187.531 25.4944 163.971 6.09439 154.151 36.3944Z" fill="white"/>
<mask id="mask1_719_222" style="mask-type:luminance" maskUnits="userSpaceOnUse" x="154" y="19" width="39" height="52">
<path d="M154.151 36.3944C154.151 36.3944 158.651 55.1344 168.311 64.3944C177.971 73.6544 188.311 73.7344 191.891 57.2344C194.831 43.6344 187.531 25.4944 187.531 25.4944C187.531 25.4944 163.971 6.09439 154.151 36.3944Z" fill="white"/>
</mask>
<g mask="url(#mask1_719_222)">
<g style="mix-blend-mode:multiply" opacity="0.5">
<path d="M170.931 19.3944L174.591 28.5944C174.591 28.5944 180.351 27.3144 183.591 34.2744C186.831 41.2344 190.091 51.4344 188.231 59.3344C186.451 66.8544 182.231 69.3344 175.731 69.5144C182.811 72.5344 189.231 69.5144 191.891 57.1944C194.831 43.5944 187.531 25.4544 187.531 25.4544C187.531 25.4544 179.551 18.9144 170.931 19.3944Z" fill="#51E186"/>
</g>
</g>
<path d="M154.151 36.3944C154.151 36.3944 158.651 55.1344 168.311 64.3944C177.971 73.6544 188.311 73.7344 191.891 57.2344C194.831 43.6344 187.531 25.4944 187.531 25.4944C187.531 25.4944 163.971 6.09439 154.151 36.3944Z" stroke="#263238" stroke-width="2" stroke-linecap="round" stroke-linejoin="round"/>
<path d="M172.03 46.2944C172.59 47.3544 172.49 48.4944 171.81 48.8544C171.13 49.2144 170.13 48.6344 169.59 47.5744C169.05 46.5144 169.13 45.3944 169.81 45.0344C170.49 44.6744 171.49 45.2544 172.03 46.2944Z" fill="#263238"/>
<path d="M182.471 43.0544C182.871 44.1744 182.611 45.2944 181.891 45.5344C181.171 45.7744 180.251 45.0944 179.891 43.9744C179.531 42.8544 179.751 41.7344 180.471 41.4944C181.191 41.2544 182.071 41.9744 182.471 43.0544Z" fill="#263238"/>
<path d="M183.191 37.0544C182.374 36.5055 181.399 36.2395 180.417 36.2973C179.434 36.3551 178.498 36.7335 177.751 37.3744C174.871 39.6144 180.311 50.8344 180.311 50.8344C180.311 50.8344 180.411 54.3744 175.871 52.7344" stroke="#263238" stroke-width="2" stroke-linecap="round" stroke-linejoin="round"/>
<path d="M183.191 56.3744C182.879 57.1109 182.401 57.765 181.793 58.2849C181.186 58.8049 180.466 59.1765 179.69 59.3705C178.914 59.5644 178.104 59.5754 177.323 59.4025C176.542 59.2297 175.812 58.8777 175.191 58.3744" stroke="#263238" stroke-width="2" stroke-linecap="round" stroke-linejoin="round"/>
<path d="M171.011 40.0344C171.011 40.0344 165.891 35.2144 163.651 44.5144" stroke="#263238" stroke-width="2" stroke-linecap="round" stroke-linejoin="round"/>
<path d="M187.831 19.5544C182.211 14.6744 177.671 14.7344 175.691 15.3744C173.837 14.2179 171.73 13.5314 169.551 13.3744C153.831 11.2744 151.731 23.3744 151.731 34.8744C151.731 46.3744 141.731 60.0344 148.591 61.6144C150.468 62.0648 152.444 61.8384 154.171 60.975C155.898 60.1116 157.265 58.6665 158.031 56.8944C158.031 56.8944 165.371 44.8944 165.371 36.4344C165.371 27.9744 174.511 28.7744 174.511 28.7744C174.905 28.1918 175.421 27.7015 176.023 27.337C176.625 26.9725 177.298 26.7425 177.998 26.6627C178.697 26.5829 179.405 26.6553 180.073 26.8748C180.742 27.0943 181.355 27.4557 181.871 27.9344C186.031 31.4944 186.511 35.6744 189.871 36.7544C193.231 37.8344 198.851 32.4344 198.851 32.4344C195.649 27.7588 191.955 23.4407 187.831 19.5544Z" fill="#263238"/>
<path d="M174.951 22.6944C174.951 22.6944 168.631 17.6144 162.951 23.3144C157.271 29.0144 157.89 39.7944 155.99 46.7744C154.09 53.7544 149.01 55.0144 149.01 55.0144" stroke="white" stroke-width="2" stroke-linecap="round" stroke-linejoin="round"/>
<path d="M170.53 20.7944C170.53 20.7944 163.71 14.0344 155.13 22.5944C148.59 29.1544 151.51 33.4544 150.23 44.2344" stroke="white" stroke-width="2" stroke-linecap="round" stroke-linejoin="round"/>
<path d="M178.131 19.5144C178.131 19.5144 190.131 13.8144 195.251 28.3944" stroke="white" stroke-width="2" stroke-linecap="round" stroke-linejoin="round"/>
<path d="M152.251 90.3544L134.111 163.354L187.311 178.434L189.931 168.994L154.991 152.874L166.851 110.874C166.851 110.874 165.291 103.014 156.851 94.1144" fill="white"/>
<mask id="mask2_719_222" style="mask-type:luminance" maskUnits="userSpaceOnUse" x="134" y="90" width="56" height="89">
<path d="M152.251 90.3544L134.111 163.354L187.311 178.434L189.931 168.994L154.991 152.874L166.851 110.874C166.851 110.874 165.291 103.014 156.851 94.1144" fill="white"/>
</mask>
<g mask="url(#mask2_719_222)">
<g style="mix-blend-mode:multiply" opacity="0.5">
<path d="M190.011 169.054L155.071 152.934L166.931 110.934C166.002 107.448 164.494 104.142 162.471 101.154L161.331 100.294V111.894C161.331 119.314 152.051 142.974 148.791 148.534C145.531 154.094 140.451 161.054 140.451 161.054L150.651 156.414L189.311 171.894L190.011 169.054Z" fill="#51E186"/>
</g>
</g>
<path d="M152.251 90.3544L134.111 163.354L187.311 178.434L189.931 168.994L154.991 152.874L166.851 110.874C166.851 110.874 165.291 103.014 156.851 94.1144" stroke="#263238" stroke-width="2" stroke-linecap="round" stroke-linejoin="round"/>
<path d="M301.831 112.274L261.551 103.814L220.411 56.2744L226.491 94.5144L251.731 118.554L302.451 120.874L301.831 112.274Z" fill="white"/>
<mask id="mask3_719_222" style="mask-type:luminance" maskUnits="userSpaceOnUse" x="220" y="56" width="83" height="65">
<path d="M301.831 112.274L261.551 103.814L220.411 56.2744L226.491 94.5144L251.731 118.554L302.451 120.874L301.831 112.274Z" fill="white"/>
</mask>
<g mask="url(#mask3_719_222)">
<g style="mix-blend-mode:multiply" opacity="0.5">
<path d="M220.411 56.2744L225.311 86.7944L228.431 96.3344L228.831 96.6944C230.011 95.4744 236.671 88.5544 238.371 88.5544C240.071 88.5544 259.251 105.254 256.471 106.554L253.671 107.934L301.451 115.814L301.791 112.154L261.591 103.714L220.411 56.2744Z" fill="#51E186"/>
</g>
</g>
<path d="M301.831 112.274L261.551 103.814L220.411 56.2744L226.491 94.5144L251.731 118.554L302.451 120.874L301.831 112.274Z" stroke="#263238" stroke-width="2" stroke-linecap="round" stroke-linejoin="round"/>
<path d="M677.851 517.054L164.911 441.894C163.28 441.652 161.812 440.773 160.829 439.449C159.847 438.125 159.43 436.465 159.671 434.834L202.391 143.414C202.508 142.608 202.783 141.832 203.201 141.132C203.619 140.432 204.17 139.821 204.824 139.334C205.478 138.848 206.221 138.495 207.012 138.296C207.802 138.097 208.624 138.055 209.431 138.174L219.151 139.594C220.382 139.779 221.64 139.588 222.761 139.045C223.881 138.503 224.812 137.635 225.431 136.554L238.331 114.254C238.722 113.554 239.253 112.942 239.891 112.454C242.91 110.271 246.664 109.352 250.351 109.894L379.651 128.854C382.551 129.271 385.253 130.57 387.391 132.574C387.961 133.145 388.41 133.826 388.711 134.574L400.211 163.054C400.614 164.062 401.275 164.945 402.129 165.616C402.982 166.286 403.996 166.72 405.071 166.874L722.371 213.394C724.001 213.632 725.471 214.507 726.457 215.826C727.443 217.146 727.865 218.804 727.631 220.434L684.911 511.834C684.664 513.461 683.782 514.924 682.459 515.903C681.136 516.881 679.479 517.295 677.851 517.054Z" fill="#263238" stroke="#263238" stroke-width="2" stroke-miterlimit="10"/>
<path d="M683.311 515.634H174.891C173.415 515.634 171.953 515.344 170.589 514.779C169.226 514.214 167.986 513.386 166.943 512.342C165.899 511.299 165.071 510.059 164.506 508.696C163.941 507.332 163.651 505.87 163.651 504.394V219.914C163.651 216.933 164.835 214.074 166.943 211.966C169.051 209.859 171.91 208.674 174.891 208.674H176.271C178.521 208.67 180.719 207.994 182.582 206.732C184.446 205.471 185.89 203.682 186.731 201.594L194.471 182.134C195.336 179.888 196.917 177.99 198.971 176.734C201.176 175.432 203.689 174.742 206.251 174.734H336.931C338.687 174.733 340.429 175.051 342.071 175.674C344.352 176.594 346.255 178.257 347.471 180.394L360.771 203.054C361.762 204.747 363.179 206.151 364.88 207.126C366.582 208.101 368.509 208.615 370.471 208.614H683.311C686.292 208.614 689.151 209.799 691.259 211.907C693.366 214.014 694.551 216.873 694.551 219.854V504.394C694.551 505.87 694.26 507.332 693.695 508.696C693.13 510.059 692.302 511.299 691.259 512.342C690.215 513.386 688.976 514.214 687.612 514.779C686.248 515.344 684.787 515.634 683.311 515.634Z" fill="#51E186"/>
<mask id="mask4_719_222" style="mask-type:luminance" maskUnits="userSpaceOnUse" x="163" y="174" width="532" height="342">
<path d="M683.311 515.634H174.891C173.415 515.634 171.953 515.344 170.589 514.779C169.226 514.214 167.986 513.386 166.943 512.342C165.899 511.299 165.071 510.059 164.506 508.696C163.941 507.332 163.651 505.87 163.651 504.394V219.914C163.651 216.933 164.835 214.074 166.943 211.966C169.051 209.859 171.91 208.674 174.891 208.674H176.271C178.521 208.67 180.719 207.994 182.582 206.732C184.446 205.471 185.89 203.682 186.731 201.594L194.471 182.134C195.336 179.888 196.917 177.99 198.971 176.734C201.176 175.432 203.689 174.742 206.251 174.734H336.931C338.687 174.733 340.429 175.051 342.071 175.674C344.352 176.594 346.255 178.257 347.471 180.394L360.771 203.054C361.762 204.747 363.179 206.151 364.88 207.126C366.582 208.101 368.509 208.615 370.471 208.614H683.311C686.292 208.614 689.151 209.799 691.259 211.907C693.366 214.014 694.551 216.873 694.551 219.854V504.394C694.551 505.87 694.26 507.332 693.695 508.696C693.13 510.059 692.302 511.299 691.259 512.342C690.215 513.386 688.976 514.214 687.612 514.779C686.248 515.344 684.787 515.634 683.311 515.634Z" fill="white"/>
</mask>
<g mask="url(#mask4_719_222)">
<path opacity="0.1" d="M683.311 515.634H174.891C173.415 515.634 171.953 515.344 170.589 514.779C169.226 514.214 167.986 513.386 166.943 512.342C165.899 511.299 165.071 510.059 164.506 508.696C163.941 507.332 163.651 505.87 163.651 504.394V219.914C163.651 216.933 164.835 214.074 166.943 211.966C169.051 209.859 171.91 208.674 174.891 208.674H176.271C178.521 208.67 180.719 207.994 182.582 206.732C184.446 205.471 185.89 203.682 186.731 201.594L194.471 182.134C195.336 179.888 196.917 177.99 198.971 176.734C201.176 175.432 203.689 174.742 206.251 174.734H336.931C338.687 174.733 340.429 175.051 342.071 175.674C344.352 176.594 346.255 178.257 347.471 180.394L360.771 203.054C361.762 204.747 363.179 206.151 364.88 207.126C366.582 208.101 368.509 208.615 370.471 208.614H683.311C686.292 208.614 689.151 209.799 691.259 211.907C693.366 214.014 694.551 216.873 694.551 219.854V504.394C694.551 505.87 694.26 507.332 693.695 508.696C693.13 510.059 692.302 511.299 691.259 512.342C690.215 513.386 688.976 514.214 687.612 514.779C686.248 515.344 684.787 515.634 683.311 515.634Z" fill="#263238"/>
</g>
<path d="M683.311 515.634H174.891C173.415 515.634 171.953 515.344 170.589 514.779C169.226 514.214 167.986 513.386 166.943 512.342C165.899 511.299 165.071 510.059 164.506 508.696C163.941 507.332 163.651 505.87 163.651 504.394V219.914C163.651 216.933 164.835 214.074 166.943 211.966C169.051 209.859 171.91 208.674 174.891 208.674H176.271C178.521 208.67 180.719 207.994 182.582 206.732C184.446 205.471 185.89 203.682 186.731 201.594L194.471 182.134C195.336 179.888 196.917 177.99 198.971 176.734C201.176 175.432 203.689 174.742 206.251 174.734H336.931C338.687 174.733 340.429 175.051 342.071 175.674C344.352 176.594 346.255 178.257 347.471 180.394L360.771 203.054C361.762 204.747 363.179 206.151 364.88 207.126C366.582 208.101 368.509 208.615 370.471 208.614H683.311C686.292 208.614 689.151 209.799 691.259 211.907C693.366 214.014 694.551 216.873 694.551 219.854V504.394C694.551 505.87 694.26 507.332 693.695 508.696C693.13 510.059 692.302 511.299 691.259 512.342C690.215 513.386 688.976 514.214 687.612 514.779C686.248 515.344 684.787 515.634 683.311 515.634Z" stroke="#263238" stroke-width="2" stroke-miterlimit="10"/>
<path d="M307.311 207.714H225.951C224.009 207.714 222.147 206.943 220.775 205.57C219.402 204.198 218.631 202.336 218.631 200.394C218.628 199.431 218.815 198.477 219.182 197.587C219.549 196.697 220.088 195.887 220.768 195.205C221.448 194.524 222.255 193.983 223.145 193.613C224.034 193.244 224.988 193.054 225.951 193.054H307.311C309.257 193.054 311.124 193.828 312.501 195.204C313.877 196.581 314.651 198.448 314.651 200.394C314.651 201.357 314.461 202.311 314.092 203.2C313.722 204.09 313.181 204.897 312.5 205.577C311.818 206.257 311.008 206.796 310.118 207.163C309.228 207.53 308.274 207.717 307.311 207.714Z" fill="white"/>
<path d="M683.311 565.274H174.891C171.91 565.274 169.051 564.09 166.943 561.982C164.835 559.874 163.651 557.015 163.651 554.034V269.554C163.651 266.573 164.835 263.714 166.943 261.607C169.051 259.499 171.91 258.314 174.891 258.314H176.271C178.522 258.313 180.72 257.637 182.585 256.376C184.449 255.114 185.893 253.323 186.731 251.234L194.471 231.794C195.331 229.545 196.913 227.646 198.971 226.394C201.173 225.084 203.688 224.393 206.251 224.394H336.931C338.687 224.393 340.429 224.711 342.071 225.334C344.357 226.255 346.262 227.926 347.471 230.074L360.771 252.754C361.762 254.447 363.179 255.851 364.88 256.826C366.582 257.801 368.509 258.315 370.471 258.314H683.311C686.292 258.314 689.151 259.499 691.259 261.607C693.366 263.714 694.551 266.573 694.551 269.554V554.034C694.551 557.015 693.366 559.874 691.259 561.982C689.151 564.09 686.292 565.274 683.311 565.274Z" fill="#263238" stroke="#263238" stroke-width="2" stroke-miterlimit="10"/>
<path d="M346.291 149.054L265.571 139.054C263.643 138.81 261.89 137.812 260.694 136.28C259.499 134.747 258.959 132.804 259.191 130.874C259.435 128.944 260.436 127.189 261.974 125.997C263.512 124.804 265.46 124.271 267.391 124.514L348.091 134.514C350.021 134.754 351.777 135.75 352.973 137.284C354.169 138.818 354.708 140.764 354.471 142.694C354.352 143.649 354.046 144.572 353.571 145.409C353.095 146.245 352.459 146.98 351.7 147.571C350.94 148.161 350.071 148.597 349.143 148.851C348.215 149.106 347.245 149.175 346.291 149.054Z" fill="#51E186"/>
<path opacity="0.5" d="M346.291 149.054L265.571 139.054C263.643 138.81 261.89 137.812 260.694 136.28C259.499 134.747 258.959 132.804 259.191 130.874C259.435 128.944 260.436 127.189 261.974 125.997C263.512 124.804 265.46 124.271 267.391 124.514L348.091 134.514C350.021 134.754 351.777 135.75 352.973 137.284C354.169 138.818 354.708 140.764 354.471 142.694C354.352 143.649 354.046 144.572 353.571 145.409C353.095 146.245 352.459 146.98 351.7 147.571C350.94 148.161 350.071 148.597 349.143 148.851C348.215 149.106 347.245 149.175 346.291 149.054Z" fill="white"/>
<path d="M307.311 257.374H225.951C224.988 257.374 224.034 257.184 223.145 256.815C222.255 256.446 221.448 255.905 220.768 255.223C220.088 254.541 219.549 253.732 219.182 252.842C218.815 251.951 218.628 250.997 218.631 250.034C218.631 248.091 219.401 246.227 220.773 244.851C222.146 243.475 224.007 242.7 225.951 242.694H307.311C309.257 242.694 311.124 243.468 312.501 244.844C313.877 246.221 314.651 248.088 314.651 250.034C314.651 251.981 313.877 253.848 312.501 255.225C311.124 256.601 309.257 257.374 307.311 257.374Z" fill="#51E186"/>
<path opacity="0.5" d="M307.311 257.374H225.951C224.988 257.374 224.034 257.184 223.145 256.815C222.255 256.446 221.448 255.905 220.768 255.223C220.088 254.541 219.549 253.732 219.182 252.842C218.815 251.951 218.628 250.997 218.631 250.034C218.631 248.091 219.401 246.227 220.773 244.851C222.146 243.475 224.007 242.7 225.951 242.694H307.311C309.257 242.694 311.124 243.468 312.501 244.844C313.877 246.221 314.651 248.088 314.651 250.034C314.651 251.981 313.877 253.848 312.501 255.225C311.124 256.601 309.257 257.374 307.311 257.374Z" fill="white"/>
<path d="M699.931 343.874H158.251C152.43 343.874 147.711 348.593 147.711 354.414V682.194C147.711 688.015 152.43 692.734 158.251 692.734H699.931C705.752 692.734 710.471 688.015 710.471 682.194V354.414C710.471 348.593 705.752 343.874 699.931 343.874Z" fill="white"/>
<mask id="mask5_719_222" style="mask-type:luminance" maskUnits="userSpaceOnUse" x="147" y="343" width="564" height="350">
<path d="M699.931 343.874H158.251C152.43 343.874 147.711 348.593 147.711 354.414V682.194C147.711 688.015 152.43 692.734 158.251 692.734H699.931C705.752 692.734 710.471 688.015 710.471 682.194V354.414C710.471 348.593 705.752 343.874 699.931 343.874Z" fill="white"/>
</mask>
<g mask="url(#mask5_719_222)">
<g style="mix-blend-mode:multiply">
<path d="M710.471 437.774C648.09 496.076 577.215 544.562 500.271 581.574C386.571 635.954 256.611 673.434 180.891 692.734H699.911C701.296 692.737 702.669 692.466 703.95 691.938C705.231 691.409 706.396 690.633 707.376 689.654C708.357 688.675 709.135 687.513 709.666 686.232C710.197 684.952 710.471 683.58 710.471 682.194V437.774Z" fill="#51E186"/>
</g>
<path opacity="0.2" d="M710.471 437.774C648.09 496.076 577.215 544.562 500.271 581.574C386.571 635.954 256.611 673.434 180.891 692.734H699.911C701.296 692.737 702.669 692.466 703.95 691.938C705.231 691.409 706.396 690.633 707.376 689.654C708.357 688.675 709.135 687.513 709.666 686.232C710.197 684.952 710.471 683.58 710.471 682.194V437.774Z" fill="white"/>
</g>
<path d="M699.931 343.874H158.251C152.43 343.874 147.711 348.593 147.711 354.414V682.194C147.711 688.015 152.43 692.734 158.251 692.734H699.931C705.752 692.734 710.471 688.015 710.471 682.194V354.414C710.471 348.593 705.752 343.874 699.931 343.874Z" stroke="#263238" stroke-width="2" stroke-miterlimit="10"/>
<path d="M155.851 374.514V360.514C155.856 357.717 156.971 355.036 158.951 353.06C160.93 351.084 163.613 349.974 166.411 349.974H189.311" stroke="#263238" stroke-width="2" stroke-miterlimit="10"/>
<path d="M155.851 587.134V391.574" stroke="#263238" stroke-width="2" stroke-miterlimit="10"/>
<path d="M702.311 653.854V675.994C702.313 677.38 702.042 678.753 701.514 680.034C700.985 681.315 700.21 682.479 699.231 683.46C698.252 684.441 697.089 685.219 695.809 685.75C694.529 686.281 693.156 686.554 691.771 686.554H673.311" stroke="#263238" stroke-width="2" stroke-miterlimit="10"/>
<path d="M702.311 369.594V637.394" stroke="#263238" stroke-width="2" stroke-miterlimit="10"/>
<path d="M512.751 471.434H345.411C342.395 471.434 339.951 473.879 339.951 476.894V562.274C339.951 565.29 342.395 567.734 345.411 567.734H512.751C515.766 567.734 518.211 565.29 518.211 562.274V476.894C518.211 473.879 515.766 471.434 512.751 471.434Z" fill="#263238" stroke="#263238" stroke-width="2" stroke-miterlimit="10"/>
<path d="M512.751 471.434H345.411C342.395 471.434 339.951 473.879 339.951 476.894V495.254C339.951 498.27 342.395 500.714 345.411 500.714H512.751C515.766 500.714 518.211 498.27 518.211 495.254V476.894C518.211 473.879 515.766 471.434 512.751 471.434Z" fill="white" stroke="#263238" stroke-width="2" stroke-miterlimit="10"/>
<path d="M187.311 178.434L190.971 185.254L198.751 190.854C199.24 191.214 199.826 191.417 200.432 191.439C201.039 191.46 201.637 191.298 202.151 190.974L202.831 190.534C203.325 190.234 203.693 189.764 203.866 189.212C204.039 188.66 204.005 188.063 203.771 187.534L199.351 177.374L202.331 179.694C202.804 180.059 203.4 180.225 203.993 180.158C204.587 180.091 205.131 179.796 205.511 179.334C205.84 178.923 206.02 178.412 206.02 177.884C206.02 177.357 205.84 176.846 205.511 176.434L198.571 167.654L189.891 168.994L187.311 178.434Z" fill="white" stroke="#263238" stroke-width="2" stroke-miterlimit="10"/>
<path d="M202.911 190.534L195.951 181.394" stroke="#263238" stroke-width="2" stroke-linecap="round" stroke-linejoin="round"/>
<path d="M198.831 190.854L193.371 183.614" stroke="#263238" stroke-width="2" stroke-linecap="round" stroke-linejoin="round"/>
<path d="M301.831 112.274L312.711 112.914L325.951 121.374C325.951 121.374 326.691 123.954 324.851 124.314C323.011 124.674 313.071 121.014 313.071 121.014L302.451 120.874L301.831 112.274Z" fill="white" stroke="#263238" stroke-width="2" stroke-miterlimit="10"/>
<path d="M302.391 119.534L313.811 124.694C313.811 124.694 315.651 122.114 313.071 121.014L309.311 118.434" fill="white"/>
<path d="M302.391 119.534L313.811 124.694C313.811 124.694 315.651 122.114 313.071 121.014L309.311 118.434" stroke="#263238" stroke-width="2" stroke-linejoin="round"/>
<path d="M705.85 314.574L701.13 300.454L695.83 293.194C695.743 293.062 695.615 292.962 695.465 292.91C695.315 292.858 695.152 292.857 695.001 292.907C694.851 292.957 694.721 293.056 694.632 293.187C694.544 293.319 694.501 293.476 694.51 293.634V314.554L698.51 319.814L705.85 314.574Z" fill="white"/>
<path d="M782.771 376.314L743.17 377.714C741.709 377.766 740.264 377.4 739.003 376.659C737.742 375.919 736.718 374.835 736.05 373.534L705.85 314.574C705.85 314.574 699.05 318.254 698.53 319.814C698.01 321.374 720.89 378.754 727.91 396.374C728.501 397.854 729.535 399.113 730.871 399.98C732.207 400.847 733.779 401.278 735.37 401.214L779.63 399.334" fill="white"/>
<path d="M782.771 376.314L743.17 377.714C741.709 377.766 740.264 377.4 739.003 376.659C737.742 375.919 736.718 374.835 736.05 373.534L705.85 314.574C705.85 314.574 699.05 318.254 698.53 319.814C698.01 321.374 720.89 378.754 727.91 396.374C728.501 397.854 729.535 399.113 730.871 399.98C732.207 400.847 733.779 401.278 735.37 401.214L779.63 399.334" stroke="#263238" stroke-width="2" stroke-miterlimit="10"/>
<path d="M708.75 321.914L702.55 324.474" stroke="#263238" stroke-width="2" stroke-miterlimit="10"/>
<g opacity="0.5">
<path d="M782.771 376.314L743.17 377.714C741.709 377.766 740.264 377.4 739.003 376.659C737.742 375.919 736.718 374.835 736.05 373.534L705.85 314.574C705.85 314.574 699.05 318.254 698.53 319.814C698.01 321.374 720.89 378.754 727.91 396.374C728.501 397.854 729.535 399.113 730.871 399.98C732.207 400.847 733.779 401.278 735.37 401.214L779.63 399.334" fill="#51E186"/>
<path d="M782.771 376.314L743.17 377.714C741.709 377.766 740.264 377.4 739.003 376.659C737.742 375.919 736.718 374.835 736.05 373.534L705.85 314.574C705.85 314.574 699.05 318.254 698.53 319.814C698.01 321.374 720.89 378.754 727.91 396.374C728.501 397.854 729.535 399.113 730.871 399.98C732.207 400.847 733.779 401.278 735.37 401.214L779.63 399.334" stroke="#263238" stroke-width="2" stroke-miterlimit="10"/>
<path d="M708.751 321.914L702.551 324.474" stroke="#263238" stroke-width="2" stroke-miterlimit="10"/>
</g>
<path d="M705.85 314.574L701.13 300.454L695.83 293.194C695.743 293.062 695.615 292.962 695.465 292.91C695.315 292.858 695.152 292.857 695.001 292.907C694.851 292.957 694.721 293.056 694.632 293.187C694.544 293.319 694.501 293.476 694.51 293.634V314.554L698.51 319.814L705.85 314.574Z" fill="#51E186"/>
<mask id="mask6_719_222" style="mask-type:luminance" maskUnits="userSpaceOnUse" x="694" y="292" width="12" height="28">
<path d="M705.85 314.574L701.13 300.454L695.83 293.194C695.743 293.062 695.615 292.962 695.465 292.91C695.315 292.858 695.152 292.857 695.001 292.907C694.851 292.957 694.721 293.056 694.632 293.187C694.544 293.319 694.501 293.476 694.51 293.634V314.554L698.51 319.814L705.85 314.574Z" fill="white"/>
</mask>
<g mask="url(#mask6_719_222)">
<path opacity="0.5" d="M705.85 314.574L701.13 300.454L695.83 293.194C695.743 293.062 695.615 292.962 695.465 292.91C695.315 292.858 695.152 292.857 695.001 292.907C694.851 292.957 694.721 293.056 694.632 293.187C694.544 293.319 694.501 293.476 694.51 293.634V314.554L698.51 319.814L705.85 314.574Z" fill="white"/>
</g>
<path d="M705.85 314.574L701.13 300.454L695.83 293.194C695.743 293.062 695.615 292.962 695.465 292.91C695.315 292.858 695.152 292.857 695.001 292.907C694.851 292.957 694.721 293.056 694.632 293.187C694.544 293.319 694.501 293.476 694.51 293.634V314.554L698.51 319.814L705.85 314.574Z" stroke="#263238" stroke-width="2" stroke-miterlimit="10"/>
<path d="M795.03 339.054C793.129 341.465 791.765 344.254 791.03 347.234C790.45 351.074 791.37 365.854 791.37 365.854L770.771 368.174C770.771 368.174 772.33 353.154 772.41 350.654C773.07 347.554 774.383 344.63 776.263 342.078C778.143 339.526 780.545 337.404 783.31 335.854C790.39 332.374 796.41 334.074 795.03 339.054Z" fill="white"/>
<mask id="mask7_719_222" style="mask-type:luminance" maskUnits="userSpaceOnUse" x="770" y="334" width="26" height="35">
<path d="M795.03 339.054C793.129 341.465 791.765 344.254 791.03 347.234C790.45 351.074 791.37 365.854 791.37 365.854L770.771 368.174C770.771 368.174 772.33 353.154 772.41 350.654C773.07 347.554 774.383 344.63 776.263 342.078C778.143 339.526 780.545 337.404 783.31 335.854C790.39 332.374 796.41 334.074 795.03 339.054Z" fill="white"/>
</mask>
<g mask="url(#mask7_719_222)">
<g style="mix-blend-mode:multiply" opacity="0.5">
<path d="M794.891 339.214C791.151 338.194 786.611 337.054 782.771 336.134C780.131 337.706 777.843 339.804 776.05 342.299C774.258 344.794 772.998 347.631 772.351 350.634C772.351 351.594 772.071 354.394 771.791 357.474C773.791 357.014 776.971 356.314 779.331 355.894C781.2 355.593 783.04 355.131 784.831 354.514L784.131 366.514H784.591L791.311 365.754C791.311 365.754 790.391 350.974 790.971 347.134C791.701 344.247 793.037 341.547 794.891 339.214Z" fill="#51E186"/>
</g>
</g>
<path d="M795.03 339.054C793.129 341.465 791.765 344.254 791.03 347.234C790.45 351.074 791.37 365.854 791.37 365.854L770.771 368.174C770.771 368.174 772.33 353.154 772.41 350.654C773.07 347.554 774.383 344.63 776.263 342.078C778.143 339.526 780.545 337.404 783.31 335.854C790.39 332.374 796.41 334.074 795.03 339.054Z" stroke="#263238" stroke-width="2" stroke-miterlimit="10"/>
<path d="M799.31 341.594C816.39 319.034 775.21 295.594 764.39 318.014C762.882 320.779 761.688 323.704 760.83 326.734C759.19 327.734 754.83 330.414 754.03 331.154C753.23 331.894 756.03 333.794 757.57 334.734C754.63 341.954 755.07 349.554 755.91 351.274C757.37 354.234 764.57 354.274 769.31 353.394C774.05 352.514 775.93 347.974 777.31 346.734C778.69 345.494 785.57 347.074 787.99 347.794C790.41 348.514 795.99 346.054 799.31 341.594Z" fill="white"/>
<mask id="mask8_719_222" style="mask-type:luminance" maskUnits="userSpaceOnUse" x="753" y="308" width="51" height="46">
<path d="M799.31 341.594C816.39 319.034 775.21 295.594 764.39 318.014C762.882 320.779 761.688 323.704 760.83 326.734C759.19 327.734 754.83 330.414 754.03 331.154C753.23 331.894 756.03 333.794 757.57 334.734C754.63 341.954 755.07 349.554 755.91 351.274C757.37 354.234 764.57 354.274 769.31 353.394C774.05 352.514 775.93 347.974 777.31 346.734C778.69 345.494 785.57 347.074 787.99 347.794C790.41 348.514 795.99 346.054 799.31 341.594Z" fill="white"/>
</mask>
<g mask="url(#mask8_719_222)">
<g style="mix-blend-mode:multiply" opacity="0.5">
<path d="M782.41 339.434C782.41 339.434 782.77 341.134 779.33 342.514C775.89 343.894 775.21 342.854 774.19 345.254C773.757 346.833 772.881 348.253 771.665 349.349C770.449 350.444 768.945 351.168 767.33 351.434C764.072 352.053 760.779 352.474 757.47 352.694C760.19 354.214 765.59 354.094 769.47 353.394C774.19 352.534 776.09 347.974 777.47 346.734C778.85 345.494 785.73 347.074 788.15 347.794C788.718 347.908 789.302 347.908 789.87 347.794C790.773 345.785 791.314 343.632 791.47 341.434L782.41 339.434Z" fill="#51E186"/>
</g>
</g>
<path d="M799.31 341.594C816.39 319.034 775.21 295.594 764.39 318.014C762.882 320.779 761.688 323.704 760.83 326.734C759.19 327.734 754.83 330.414 754.03 331.154C753.23 331.894 756.03 333.794 757.57 334.734C754.63 341.954 755.07 349.554 755.91 351.274C757.37 354.234 764.57 354.274 769.31 353.394C774.05 352.514 775.93 347.974 777.31 346.734C778.69 345.494 785.57 347.074 787.99 347.794C790.41 348.514 795.99 346.054 799.31 341.594Z" stroke="#263238" stroke-width="2" stroke-miterlimit="10"/>
<path d="M765.95 328.714C765.51 329.674 764.77 330.274 764.29 330.054C763.81 329.834 763.77 328.874 764.29 327.914C764.81 326.954 765.47 326.354 765.95 326.574C766.43 326.794 766.39 327.754 765.95 328.714Z" fill="#263238"/>
<path d="M765.55 322.554C765.55 322.554 767.55 320.894 767.95 324.714" stroke="#263238" stroke-width="2" stroke-linecap="round" stroke-linejoin="round"/>
<path d="M757.17 338.614C757.17 338.614 757.17 340.614 760.77 340.614" stroke="#263238" stroke-width="2" stroke-linecap="round" stroke-linejoin="round"/>
<path d="M752.29 469.494L750.71 489.054C750.71 489.054 739.77 566.934 740.29 575.874C740.81 584.814 741.99 677.174 741.99 677.174L755.17 679.274L769.97 576.834L790.75 472.734L752.29 469.494Z" fill="#51E186" stroke="#263238" stroke-width="2" stroke-miterlimit="10"/>
<path opacity="0.2" d="M752.29 469.494L750.71 489.054C750.71 489.054 739.77 566.934 740.29 575.874C740.81 584.814 741.99 677.174 741.99 677.174L755.17 679.274L769.97 576.834L790.75 472.734L752.29 469.494Z" fill="#263238"/>
<path d="M768.97 540.634C768.97 540.634 763.91 570.414 760.09 585.014C756.27 599.614 756.29 614.174 756.29 630.014C756.29 645.854 750.59 675.054 750.59 675.054" stroke="#263238" stroke-width="2" stroke-miterlimit="10"/>
<path d="M779.03 464.694C787.71 460.134 797.03 457.114 799.69 463.174C804.97 475.294 798.65 493.714 798.65 493.714L803.47 578.674L812.29 681.174L799.11 679.054C799.11 679.054 778.87 592.554 775.71 587.274C772.55 581.994 767.57 507.934 767.57 507.934L757.57 498.834" fill="#51E186"/>
<path d="M779.03 464.694C787.71 460.134 797.03 457.114 799.69 463.174C804.97 475.294 798.65 493.714 798.65 493.714L803.47 578.674L812.29 681.174L799.11 679.054C799.11 679.054 778.87 592.554 775.71 587.274C772.55 581.994 767.57 507.934 767.57 507.934L757.57 498.834" stroke="#263238" stroke-width="2" stroke-miterlimit="10"/>
<g opacity="0.2">
<path d="M779.03 464.694C787.71 460.134 797.03 457.114 799.69 463.174C804.97 475.294 798.65 493.714 798.65 493.714L803.47 578.674L812.29 681.174L799.11 679.054C799.11 679.054 778.87 592.554 775.71 587.274C772.55 581.994 767.57 507.934 767.57 507.934L757.57 498.834" fill="#263238"/>
</g>
<path d="M789.31 529.054C789.61 548.754 791.61 558.234 793.17 563.434C795.07 569.774 794.43 581.814 794.43 587.434C794.43 593.054 791.89 586.174 797.61 612.174C803.33 638.174 807.11 674.294 807.11 674.294" stroke="#263238" stroke-width="2" stroke-miterlimit="10"/>
<path d="M789.31 486.114C789.31 486.114 789.93 484.834 789.31 514.634C789.31 516.234 789.31 517.774 789.31 519.274" stroke="#263238" stroke-width="2" stroke-miterlimit="10"/>
<path d="M760.05 480.454L759.63 489.374L757.57 495.574L760.65 499.174" stroke="#263238" stroke-width="2" stroke-linecap="round" stroke-linejoin="round"/>
<path d="M756.01 485.774C756.01 485.774 761.17 490.934 774.57 489.374" stroke="#263238" stroke-width="2" stroke-linecap="round" stroke-linejoin="round"/>
<path d="M787.67 481.314C797.67 479.314 798.31 476.554 801.77 474.234C801.835 470.452 801.155 466.694 799.77 463.174C797.15 457.174 787.77 460.134 779.11 464.694L774.91 471.334L752.37 469.494L751.65 478.334C763.223 482.305 775.603 483.329 787.67 481.314Z" fill="#263238"/>
<path d="M754.55 475.614L754.33 479.134L760.05 480.454L760.49 475.834L754.55 475.614Z" fill="white" stroke="#263238" stroke-width="2" stroke-miterlimit="10"/>
<path d="M794.47 480.834L793.51 472.074L796.41 471.114L797.87 478.894" fill="#51E186"/>
<path d="M794.47 480.834L793.51 472.074L796.41 471.114L797.87 478.894" stroke="#263238" stroke-width="2" stroke-miterlimit="10"/>
<path d="M772.11 483.754L770.17 473.534H775.03L776.97 482.294" fill="#51E186"/>
<path d="M772.11 483.754L770.17 473.534H775.03L776.97 482.294" stroke="#263238" stroke-width="2" stroke-miterlimit="10"/>
<g opacity="0.2">
<path d="M794.47 480.834L793.51 472.074L796.41 471.114L797.87 478.894" fill="#263238"/>
<path d="M772.11 483.754L770.17 473.534H775.03L776.97 482.294" fill="#263238"/>
</g>
<path d="M749.71 391.974C749.71 391.974 748.05 403.074 743.07 421.974C738.09 440.874 733.07 463.534 733.07 463.534L735.85 475.174L744.15 462.974L749.71 391.974Z" fill="#263238" stroke="#263238" stroke-width="2" stroke-miterlimit="10"/>
<path d="M763.57 375.914C763.57 375.914 751.93 378.674 750.83 384.214C750.237 386.764 749.862 389.361 749.71 391.974L767.45 377.574L789.63 368.694L763.57 375.914Z" fill="#263238" stroke="#263238" stroke-width="2" stroke-miterlimit="10"/>
<path d="M766.75 371.634C766.75 371.634 757.29 382.334 753.53 386.734C749.77 391.134 749.75 438.354 749.75 445.294C749.75 452.234 745.99 471.074 752.27 474.854C758.55 478.634 796.97 477.374 800.75 471.074C804.53 464.774 807.03 389.254 806.41 382.334C805.939 379.23 804.716 376.287 802.848 373.764C800.979 371.24 798.522 369.211 795.69 367.854C791.31 365.834 766.75 371.634 766.75 371.634Z" fill="white"/>
<mask id="mask9_719_222" style="mask-type:luminance" maskUnits="userSpaceOnUse" x="748" y="367" width="59" height="110">
<path d="M766.75 371.634C766.75 371.634 757.29 382.334 753.53 386.734C749.77 391.134 749.75 438.354 749.75 445.294C749.75 452.234 745.99 471.074 752.27 474.854C758.55 478.634 796.97 477.374 800.75 471.074C804.53 464.774 807.03 389.254 806.41 382.334C805.939 379.23 804.716 376.287 802.848 373.764C800.979 371.24 798.522 369.211 795.69 367.854C791.31 365.834 766.75 371.634 766.75 371.634Z" fill="white"/>
</mask>
<g mask="url(#mask9_719_222)">
<g style="mix-blend-mode:multiply" opacity="0.5">
<path d="M795.69 367.854C795.168 367.643 794.613 367.521 794.05 367.494L791.33 368.914C795.909 372.666 799.058 377.877 800.25 383.674C801.515 392.097 801.4 400.669 799.91 409.054C798.55 418.314 776.59 409.054 780.71 412.494C784.83 415.934 800.25 421.754 800.95 424.834C801.65 427.914 793.31 433.054 790.31 433.414C787.31 433.774 792.31 440.614 795.45 446.434C798.59 452.254 797.45 460.434 790.31 465.994C783.17 471.554 766.59 474.294 759.43 474.574C757.11 474.574 755.67 475.174 755.23 475.854C766.23 478.314 797.37 476.714 800.75 471.074C804.53 464.774 807.03 389.254 806.41 382.334C805.939 379.23 804.716 376.287 802.848 373.764C800.979 371.24 798.522 369.211 795.69 367.854Z" fill="#51E186"/>
</g>
</g>
<path d="M766.75 371.634C766.75 371.634 757.29 382.334 753.53 386.734C749.77 391.134 749.75 438.354 749.75 445.294C749.75 452.234 745.99 471.074 752.27 474.854C758.55 478.634 796.97 477.374 800.75 471.074C804.53 464.774 807.03 389.254 806.41 382.334C805.939 379.23 804.716 376.287 802.848 373.764C800.979 371.24 798.522 369.211 795.69 367.854C791.31 365.834 766.75 371.634 766.75 371.634Z" stroke="#263238" stroke-width="2" stroke-miterlimit="10"/>
<path d="M786.09 419.534C775.95 416.374 767.07 407.534 767.07 407.534C769.32 418.039 775.43 427.317 784.19 433.534" fill="white"/>
<path d="M786.09 419.534C775.95 416.374 767.07 407.534 767.07 407.534C769.32 418.039 775.43 427.317 784.19 433.534" stroke="#263238" stroke-width="2" stroke-linecap="round" stroke-linejoin="round"/>
<path d="M793.81 360.934L763.59 367.854L761.71 376.674L795.69 367.854L793.81 360.934Z" fill="white" stroke="#263238" stroke-width="2" stroke-miterlimit="10"/>
<path d="M756.93 692.474L755.17 679.194L741.99 677.094L731.01 684.914L721.17 690.314V692.474H756.93Z" fill="#263238" stroke="#263238" stroke-width="2" stroke-miterlimit="10"/>
<path d="M813.93 693.514L812.29 681.174L799.11 679.054L788.13 686.874L778.29 692.294V693.514H813.93Z" fill="#263238" stroke="#263238" stroke-width="2" stroke-miterlimit="10"/>
<path d="M700.091 303.054L691.97 298.354C691.97 298.354 688.81 297.974 690.17 301.494L698.29 307.754" fill="white"/>
<path d="M700.091 303.054L691.97 298.354C691.97 298.354 688.81 297.974 690.17 301.494L698.29 307.754" stroke="#263238" stroke-width="2" stroke-linecap="round" stroke-linejoin="round"/>
<path d="M698.89 315.274C698.508 314.31 697.945 313.427 697.23 312.674L695.71 311.034L687.45 300.794C687.45 300.794 684.89 299.074 685.45 302.794L690.57 312.794L681.47 304.254C681.47 304.254 679.75 302.834 679.75 304.834C679.75 306.834 688.01 315.654 688.01 315.654L678.89 311.374C678.89 311.374 676.89 312.794 678.33 314.214C679.77 315.634 687.43 318.494 687.43 318.494L680.61 318.214C680.61 318.214 678.61 319.914 680.03 320.494C681.45 321.074 689.43 322.754 689.43 322.754C690.444 323.616 691.602 324.293 692.85 324.754L694.85 328.454L702.51 324.594L698.89 315.274Z" fill="white" stroke="#263238" stroke-width="2" stroke-linecap="round" stroke-linejoin="round"/>
<path d="M780.67 404.054L735.03 414.754C732.694 415.166 730.287 414.755 728.22 413.592C726.152 412.429 724.552 410.585 723.69 408.374L694.89 328.374L702.55 324.514L734.37 383.454C735.092 384.803 736.229 385.882 737.612 386.534C738.995 387.186 740.551 387.376 742.05 387.074L776.95 377.214" fill="white"/>
<path d="M780.67 404.054L735.03 414.754C732.694 415.166 730.287 414.755 728.22 413.592C726.152 412.429 724.552 410.585 723.69 408.374L694.89 328.374L702.55 324.514L734.37 383.454C735.092 384.803 736.229 385.882 737.612 386.534C738.995 387.186 740.551 387.376 742.05 387.074L776.95 377.214" stroke="#263238" stroke-width="2" stroke-miterlimit="10"/>
<path d="M706.85 332.054L697.97 336.494" stroke="#263238" stroke-width="2" stroke-miterlimit="10"/>
<path d="M774.99 318.254C774.99 318.254 770.13 323.114 772.55 326.754C773.984 328.857 775.077 331.172 775.79 333.614C775.79 333.614 773.79 338.474 775.39 338.474C776.99 338.474 776.19 334.834 779.03 335.654C781.87 336.474 784.69 341.314 782.27 342.934C780.46 343.947 778.541 344.752 776.55 345.334C776.297 345.412 776.071 345.562 775.902 345.766C775.732 345.97 775.626 346.219 775.596 346.483C775.566 346.746 775.614 347.013 775.734 347.249C775.854 347.486 776.04 347.682 776.27 347.814C778.902 349.592 781.931 350.691 785.09 351.014C787.674 351.07 790.254 350.801 792.77 350.214C792.77 350.214 800.77 339.294 806.53 336.454C812.29 333.614 809.77 320.674 809.77 319.054C809.77 317.434 804.11 313.794 804.11 313.794C804.11 313.794 805.73 310.154 798.45 302.074C791.17 293.994 777.41 292.354 777.01 295.194C776.87 295.946 776.947 296.723 777.235 297.432C777.522 298.141 778.006 298.752 778.63 299.194C778.63 299.194 766.49 293.934 760.83 299.594C755.17 305.254 774.99 318.254 774.99 318.254Z" fill="#263238" stroke="#263238" stroke-width="2" stroke-miterlimit="10"/>
<path d="M774.99 318.254C774.99 318.254 784.83 330.254 799.41 331.414" stroke="white" stroke-width="2" stroke-linecap="round" stroke-linejoin="round"/>
<path d="M771.51 321.914C771.51 321.914 776.09 335.234 795.03 339.034" stroke="white" stroke-width="2" stroke-linecap="round" stroke-linejoin="round"/>
</svg>
