<svg width="728" height="713" viewBox="0 0 728 713" fill="none" xmlns="http://www.w3.org/2000/svg">
<path d="M79.1369 286.485H70.1505C60.5071 286.485 51.2587 290.316 44.4398 297.135C37.621 303.953 33.7902 313.202 33.7902 322.845V522.371C33.7902 532.014 37.621 541.263 44.4398 548.081C51.2587 554.9 60.5071 558.731 70.1505 558.731H193.441C203.084 558.731 212.332 554.9 219.151 548.081C225.97 541.263 229.801 532.014 229.801 522.371" stroke="#263238" stroke-width="1.10311" stroke-linecap="round" stroke-linejoin="round" stroke-dasharray="4.41 4.41"/>
<path d="M219.753 98.2168V58.8057C219.753 52.9087 222.092 47.2525 226.257 43.078C230.423 38.9036 236.074 36.5517 241.971 36.5386H402.301C408.206 36.5386 413.87 38.8846 418.046 43.0605C422.222 47.2364 424.568 52.9001 424.568 58.8057" stroke="#263238" stroke-width="1.10311" stroke-linecap="round" stroke-linejoin="round" stroke-dasharray="4.41 4.41"/>
<path d="M364.001 712.563C539.375 712.563 681.544 692.699 681.544 668.195C681.544 643.691 539.375 623.826 364.001 623.826C188.626 623.826 46.4575 643.691 46.4575 668.195C46.4575 692.699 188.626 712.563 364.001 712.563Z" fill="#4CA6E6"/>
<path opacity="0.5" d="M364.001 712.563C539.375 712.563 681.544 692.699 681.544 668.195C681.544 643.691 539.375 623.826 364.001 623.826C188.626 623.826 46.4575 643.691 46.4575 668.195C46.4575 692.699 188.626 712.563 364.001 712.563Z" fill="white"/>
<path d="M663.339 151.092V449.635C663.339 459.394 659.463 468.753 652.564 475.656C645.664 482.558 636.306 486.438 626.547 486.443H101.453C91.6943 486.438 82.3363 482.558 75.4371 475.656C68.5378 468.753 64.6621 459.394 64.6621 449.635V151.092C64.6621 150.213 64.6621 149.434 64.7782 148.506C65.4245 139.219 69.569 130.522 76.3756 124.171C83.1821 117.82 92.1441 114.287 101.453 114.284H626.547C635.867 114.288 644.838 117.831 651.647 124.196C658.455 130.561 662.592 139.273 663.223 148.572C663.305 149.368 663.339 150.23 663.339 151.092Z" fill="white" stroke="#263238" stroke-width="1.10311" stroke-linecap="round" stroke-linejoin="round"/>
<path d="M82.5688 162.3H647.306V438.078C647.306 447.225 643.672 455.996 637.205 462.464C630.737 468.931 621.965 472.565 612.819 472.565H117.072C107.926 472.565 99.1539 468.931 92.6864 462.464C86.2188 455.996 82.5854 447.225 82.5854 438.078V162.3H82.5688Z" fill="#263238"/>
<path opacity="0.2" d="M647.322 162.3V438.078C647.371 447.173 643.805 455.916 637.409 462.383C631.014 468.85 622.312 472.512 613.217 472.565H116.674C107.579 472.512 98.8767 468.85 92.4811 462.383C86.0856 455.916 82.5201 447.173 82.5686 438.078V162.3H647.322Z" fill="white"/>
<path d="M663.223 148.573H64.7783C65.4247 139.286 69.5692 130.589 76.3757 124.238C83.1822 117.887 92.1442 114.354 101.454 114.351H626.547C635.857 114.354 644.819 117.887 651.625 124.238C658.432 130.589 662.576 139.286 663.223 148.573Z" fill="#4CA6E6" stroke="#263238" stroke-width="1.10311" stroke-miterlimit="10"/>
<path d="M138.311 131.394C138.311 132.683 137.929 133.943 137.213 135.015C136.497 136.086 135.48 136.921 134.289 137.414C133.098 137.908 131.788 138.037 130.524 137.785C129.26 137.534 128.099 136.913 127.188 136.002C126.277 135.091 125.656 133.93 125.405 132.666C125.153 131.402 125.282 130.092 125.775 128.901C126.268 127.71 127.104 126.693 128.175 125.977C129.247 125.261 130.507 124.878 131.795 124.878C133.523 124.878 135.181 125.565 136.403 126.787C137.625 128.009 138.311 129.666 138.311 131.394Z" fill="#263238"/>
<path d="M165.867 131.394C165.867 132.683 165.485 133.943 164.769 135.015C164.053 136.086 163.035 136.921 161.845 137.414C160.654 137.908 159.344 138.037 158.08 137.785C156.816 137.534 155.655 136.913 154.744 136.002C153.832 135.091 153.212 133.93 152.96 132.666C152.709 131.402 152.838 130.092 153.331 128.901C153.824 127.71 154.66 126.693 155.731 125.977C156.803 125.261 158.062 124.878 159.351 124.878C161.079 124.878 162.737 125.565 163.959 126.787C165.181 128.009 165.867 129.666 165.867 131.394Z" fill="#263238"/>
<path d="M186.908 137.91C190.506 137.91 193.424 134.993 193.424 131.394C193.424 127.796 190.506 124.878 186.908 124.878C183.309 124.878 180.392 127.796 180.392 131.394C180.392 134.993 183.309 137.91 186.908 137.91Z" fill="#263238"/>
<path d="M647.306 162.3V438.078C647.306 447.225 643.672 455.996 637.205 462.464C630.737 468.931 621.966 472.565 612.819 472.565H117.072C109.089 472.563 101.354 469.793 95.1864 464.725C89.0183 459.658 84.7992 452.607 83.2487 444.777V444.677C82.8272 442.492 82.6162 440.271 82.6187 438.045V162.3H647.306Z" stroke="#263238" stroke-width="1.10311" stroke-miterlimit="10"/>
<path d="M646.615 201.115C644.744 200.068 642.754 199.249 640.688 198.674L638.288 188H628.101L625.728 198.674C623.649 199.238 621.649 200.059 619.774 201.115L610.575 195.248L603.377 202.393L609.164 211.559C608.104 213.428 607.281 215.42 606.713 217.49L596 219.855V230.004L606.713 232.395C607.275 234.475 608.098 236.477 609.164 238.352L603.275 247.581L610.485 254.752L619.736 248.885C621.607 249.943 623.602 250.767 625.676 251.339L628.063 262H638.211L640.598 251.339C642.666 250.762 644.656 249.938 646.525 248.885L647 249.192V200.86L646.615 201.115ZM633.22 238.186C630.616 238.186 628.071 237.416 625.906 235.974C623.741 234.533 622.053 232.484 621.057 230.086C620.061 227.689 619.802 225.051 620.31 222.507C620.819 219.962 622.074 217.626 623.917 215.792C625.759 213.958 628.106 212.71 630.66 212.206C633.214 211.701 635.862 211.962 638.267 212.957C640.672 213.952 642.727 215.635 644.172 217.793C645.617 219.952 646.387 222.489 646.384 225.083C646.384 226.805 646.044 228.51 645.382 230.1C644.72 231.691 643.75 233.136 642.528 234.352C641.305 235.569 639.854 236.534 638.257 237.192C636.66 237.85 634.948 238.187 633.22 238.186Z" fill="#263238"/>
<path d="M409.513 218.292V190.536L380.332 184.053C378.757 178.415 376.531 172.979 373.7 167.855L377.231 162.3H239.45L242.849 167.705C239.983 172.807 237.755 178.242 236.217 183.888L207.02 190.387V218.209L236.217 224.725C237.755 230.413 239.983 235.891 242.849 241.039L226.816 266.258L246.464 285.889L271.666 269.839C276.778 272.715 282.216 274.97 287.864 276.554L294.364 305.652H322.053L328.585 276.488C334.215 274.896 339.636 272.642 344.734 269.773L369.953 285.823L389.584 266.192L373.65 240.973C376.475 235.857 378.7 230.433 380.282 224.807L409.513 218.292ZM308.374 240.277C301.281 240.277 294.347 238.173 288.45 234.233C282.552 230.292 277.955 224.691 275.241 218.138C272.527 211.585 271.816 204.374 273.2 197.417C274.584 190.461 278 184.071 283.015 179.055C288.031 174.04 294.421 170.624 301.378 169.24C308.334 167.856 315.545 168.567 322.098 171.281C328.651 173.995 334.252 178.592 338.193 184.49C342.134 190.387 344.237 197.321 344.237 204.414C344.239 209.124 343.313 213.789 341.511 218.141C339.71 222.493 337.068 226.447 333.738 229.778C330.407 233.108 326.453 235.75 322.101 237.551C317.749 239.353 313.084 240.279 308.374 240.277Z" fill="#263238"/>
<path d="M225.357 408.881L226.534 386.846L203.704 380.413C202.644 375.884 201.075 371.49 199.028 367.314L212.823 347.949L198.033 331.551L177.374 343.157C173.425 340.673 169.203 338.653 164.79 337.138L160.844 313.727L138.825 312.716L132.459 335.613C127.922 336.63 123.525 338.189 119.36 340.255L100.011 326.477L83.5802 341.25L95.2858 361.926C92.7764 365.857 90.75 370.077 89.2507 374.494L82.6186 375.588V405.432L87.46 406.792C88.4644 411.335 90.0178 415.739 92.0859 419.907L82.5688 433.254L83.1989 444.677V444.777L93.0309 455.67L113.723 443.981C117.665 446.516 121.902 448.56 126.34 450.066L130.22 472.549L130.403 473.494L152.421 474.654L153.001 472.549L158.788 451.774C163.345 450.753 167.764 449.195 171.952 447.131L191.268 460.893L207.683 446.136L196.077 425.444C198.563 421.518 200.562 417.303 202.029 412.893L225.357 408.881ZM166.879 374.477C163.107 370.282 158.176 367.299 152.709 365.907C147.242 364.515 141.485 364.776 136.167 366.656C130.848 368.536 126.206 371.952 122.829 376.471C119.452 380.989 117.49 386.408 117.193 392.042C116.896 397.675 118.277 403.27 121.16 408.119C124.044 412.968 128.301 416.853 133.392 419.282C138.484 421.711 144.181 422.575 149.764 421.766C155.347 420.956 160.565 418.509 164.757 414.734C170.354 409.677 173.719 402.609 174.117 395.077C174.515 387.544 171.912 380.161 166.879 374.543V374.477Z" fill="#263238"/>
<path d="M401.471 376.035C402.324 372.623 402.774 369.123 402.814 365.606L418.648 357.316L414.271 341.25L396.398 342.079C394.588 339.076 392.434 336.294 389.981 333.789L395.27 316.695L380.846 308.404L368.775 321.569C365.369 320.747 361.883 320.302 358.38 320.243L350.09 304.409L334.04 308.769L334.886 326.659C331.882 328.469 329.1 330.622 326.595 333.076L309.485 327.787L301.195 342.195L314.459 354.249C313.601 357.648 313.161 361.139 313.149 364.644L297.282 372.935L301.659 388.984L319.565 388.138C321.34 391.157 323.485 393.941 325.949 396.429L320.627 413.44L335.068 421.73L347.072 408.665C350.482 409.523 353.984 409.963 357.501 409.975L365.791 425.825L381.841 421.465L381.128 406.178L381.012 403.558C384.057 401.766 386.874 399.611 389.401 397.142L406.495 402.447L413.558 390.112L414.752 388.022L401.471 376.035ZM363.553 385.784C359.437 386.919 355.077 386.806 351.025 385.46C346.973 384.114 343.413 381.594 340.795 378.221C338.177 374.849 336.62 370.774 336.321 366.515C336.022 362.256 336.994 358.005 339.115 354.299C341.236 350.594 344.409 347.601 348.233 345.702C352.057 343.802 356.358 343.081 360.593 343.63C364.827 344.179 368.802 345.973 372.016 348.784C375.229 351.596 377.534 355.298 378.641 359.422C380.115 364.918 379.356 370.774 376.529 375.712C373.703 380.651 369.038 384.271 363.553 385.784Z" fill="#263238"/>
<path d="M559.917 413.152L563 394.505L544.14 386.92C543.712 382.946 542.804 379.038 541.435 375.283L555.013 360.155L544.028 344.732L525.307 352.682C522.2 350.189 518.803 348.08 515.191 346.4L514.098 326.085L495.462 323L487.825 341.788C483.871 342.252 479.983 343.17 476.237 344.522L461.076 330.936L445.733 341.928L453.692 360.645C451.501 363.381 449.599 366.337 448.017 369.464C447.807 369.899 447.582 370.333 447.386 370.768L427.097 371.89L424 390.509L427.055 391.743L442.86 398.122C443.292 402.078 444.2 405.966 445.565 409.703L431.959 424.93L442.958 440.352L461.665 432.36C464.762 434.876 468.155 437.004 471.767 438.698L472.818 458.915L491.44 462L499.063 443.353C503.026 442.919 506.922 442.006 510.665 440.633L525.798 454.219L541.211 443.212L533.252 424.481C535.788 421.368 537.929 417.954 539.628 414.316L559.917 413.152ZM507.652 412.311C503.732 415.126 499.065 416.714 494.242 416.874C489.42 417.035 484.658 415.761 480.559 413.213C476.46 410.666 473.208 406.959 471.215 402.562C469.222 398.165 468.576 393.276 469.36 388.512C470.144 383.748 472.323 379.323 475.62 375.798C478.917 372.273 483.185 369.806 487.884 368.708C492.583 367.61 497.501 367.931 502.018 369.63C506.534 371.33 510.446 374.331 513.257 378.255C517.023 383.519 518.546 390.064 517.489 396.45C516.433 402.837 512.884 408.542 507.624 412.311H507.652Z" fill="#263238"/>
<path d="M286.207 241.041H112.811C100.807 241.041 91.0747 250.773 91.0747 262.778V502.842C91.0747 514.847 100.807 524.578 112.811 524.578H286.207C298.211 524.578 307.943 514.847 307.943 502.842V262.778C307.943 250.773 298.211 241.041 286.207 241.041Z" fill="#4CA6E6" stroke="#263238" stroke-width="1.10311" stroke-miterlimit="10"/>
<path opacity="0.2" d="M286.207 241.041H112.811C100.807 241.041 91.0747 250.773 91.0747 262.778V502.842C91.0747 514.847 100.807 524.578 112.811 524.578H286.207C298.211 524.578 307.943 514.847 307.943 502.842V262.778C307.943 250.773 298.211 241.041 286.207 241.041Z" fill="black"/>
<path d="M328.121 284.199V524.263C328.123 527.119 327.563 529.947 326.471 532.586C325.38 535.225 323.779 537.623 321.761 539.643C319.742 541.664 317.345 543.266 314.707 544.36C312.068 545.453 309.241 546.016 306.385 546.016H132.989C130.135 546.014 127.309 545.449 124.672 544.355C122.036 543.26 119.641 541.658 117.624 539.638C115.607 537.618 114.008 535.22 112.918 532.582C111.827 529.944 111.267 527.117 111.269 524.263V284.199C111.269 278.436 113.557 272.91 117.63 268.834C121.703 264.758 127.227 262.466 132.989 262.462H306.385C312.15 262.462 317.678 264.752 321.755 268.828C325.831 272.905 328.121 278.434 328.121 284.199Z" fill="white" stroke="#263238" stroke-width="1.10311" stroke-linecap="round" stroke-linejoin="round"/>
<path d="M328.121 284.199V297.048H111.269V284.199C111.269 278.436 113.557 272.91 117.63 268.834C121.703 264.758 127.227 262.466 132.989 262.462H306.385C312.15 262.462 317.678 264.752 321.755 268.828C325.831 272.905 328.121 278.434 328.121 284.199Z" fill="#4CA6E6" stroke="#263238" stroke-width="1.10311" stroke-miterlimit="10"/>
<path d="M185.018 311.938H131.663V320.891H185.018V311.938Z" fill="#4CA6E6"/>
<path d="M185.018 392.169H131.663V401.122H185.018V392.169Z" fill="#4CA6E6"/>
<path d="M185.018 464.922H131.663V473.876H185.018V464.922Z" fill="#4CA6E6"/>
<path d="M283.189 334.105H131.663V340.671H283.189V334.105Z" fill="#263238"/>
<path d="M255.865 346.656H131.663V353.056H255.865V346.656Z" fill="#263238"/>
<path d="M272.13 359.008H131.663V365.408H272.13V359.008Z" fill="#263238"/>
<path d="M272.13 371.344H131.663V377.744H272.13V371.344Z" fill="#263238"/>
<path d="M283.189 406.858H131.663V413.424H283.189V406.858Z" fill="#263238"/>
<path d="M255.865 419.41H131.663V425.81H255.865V419.41Z" fill="#263238"/>
<path d="M272.13 431.763H131.663V438.163H272.13V431.763Z" fill="#263238"/>
<path d="M283.189 486.742H131.663V493.308H283.189V486.742Z" fill="#263238"/>
<path d="M255.865 499.31H131.663V505.709H255.865V499.31Z" fill="#263238"/>
<path d="M272.13 511.662H131.663V518.062H272.13V511.662Z" fill="#263238"/>
<path d="M572.529 95.9973V193.024C572.529 196.429 571.859 199.8 570.555 202.945C569.252 206.091 567.341 208.948 564.933 211.355C562.525 213.761 559.666 215.67 556.52 216.971C553.374 218.273 550.003 218.941 546.598 218.939H323.131C319.726 218.941 316.354 218.273 313.208 216.971C310.062 215.67 307.204 213.761 304.795 211.355C302.387 208.948 300.477 206.091 299.173 202.945C297.87 199.8 297.199 196.429 297.199 193.024V95.9973C297.204 89.1212 299.937 82.528 304.799 77.6659C309.661 72.8038 316.255 70.0703 323.131 70.0659H546.598C553.475 70.0659 560.071 72.798 564.934 77.661C569.797 82.5241 572.529 89.1199 572.529 95.9973Z" fill="white" stroke="#222221" stroke-width="1.10311" stroke-miterlimit="10"/>
<path d="M572.529 95.9973V98.219H297.199V95.9973C297.204 89.1212 299.937 82.528 304.799 77.6659C309.661 72.8038 316.255 70.0703 323.131 70.0659H546.598C553.475 70.0659 560.071 72.798 564.934 77.661C569.797 82.5241 572.529 89.1199 572.529 95.9973Z" fill="#4CA6E6" stroke="#263238" stroke-width="1.10311" stroke-miterlimit="10"/>
<path d="M337.655 88.7842C337.098 89.3417 336.389 89.7216 335.617 89.8759C334.845 90.0303 334.044 89.952 333.317 89.6511C332.589 89.3502 331.967 88.8402 331.529 88.1856C331.092 87.531 330.858 86.7613 330.858 85.9739C330.858 85.1864 331.092 84.4167 331.529 83.7621C331.967 83.1075 332.589 82.5975 333.317 82.2966C334.044 81.9957 334.845 81.9175 335.617 82.0718C336.389 82.2261 337.098 82.6061 337.655 83.1635C338.395 83.9116 338.81 84.9215 338.81 85.9739C338.81 87.0262 338.395 88.0361 337.655 88.7842Z" fill="#263238"/>
<path d="M356.092 88.7842C355.536 89.3417 354.827 89.7216 354.055 89.8759C353.283 90.0303 352.482 89.952 351.754 89.6511C351.027 89.3502 350.405 88.8402 349.967 88.1856C349.529 87.531 349.296 86.7613 349.296 85.9739C349.296 85.1864 349.529 84.4167 349.967 83.7621C350.405 83.1075 351.027 82.5975 351.754 82.2966C352.482 81.9957 353.283 81.9175 354.055 82.0718C354.827 82.2261 355.536 82.6061 356.092 83.1635C356.832 83.9116 357.247 84.9215 357.247 85.9739C357.247 87.0262 356.832 88.0361 356.092 88.7842Z" fill="#263238"/>
<path d="M374.529 88.7842C373.973 89.3417 373.264 89.7216 372.492 89.8759C371.72 90.0303 370.919 89.952 370.192 89.6511C369.464 89.3502 368.842 88.8402 368.404 88.1856C367.967 87.531 367.733 86.7613 367.733 85.9739C367.733 85.1864 367.967 84.4167 368.404 83.7621C368.842 83.1075 369.464 82.5975 370.192 82.2966C370.919 81.9957 371.72 81.9175 372.492 82.0718C373.264 82.2261 373.973 82.6061 374.529 83.1635C375.269 83.9116 375.685 84.9215 375.685 85.9739C375.685 87.0262 375.269 88.0361 374.529 88.7842Z" fill="#263238"/>
<path d="M404.755 116.059H314.758V193.853H404.755V116.059Z" stroke="#263238" stroke-width="1.10311" stroke-linecap="round" stroke-linejoin="round" stroke-dasharray="4.41 4.41"/>
<path d="M522.225 116.059H418.649V121.53H522.225V116.059Z" fill="#263238"/>
<path d="M498.101 127.384H418.649V132.839H498.101V127.384Z" fill="#263238"/>
<path d="M536.948 138.658H418.649V144.179H536.948V138.658Z" fill="#263238"/>
<path d="M519.39 149.651H418.649V155.172H519.39V149.651Z" fill="#263238"/>
<path d="M580.057 336.807H529.404C523.425 336.807 518.577 341.654 518.577 347.634V377.362C518.577 383.342 523.425 388.189 529.404 388.189H580.057C586.036 388.189 590.883 383.342 590.883 377.362V347.634C590.883 341.654 586.036 336.807 580.057 336.807Z" fill="white" stroke="#263238" stroke-width="1.10311" stroke-linecap="round" stroke-linejoin="round"/>
<path d="M541.906 352.26L527.995 360.981L540.911 372.421" stroke="#263238" stroke-width="1.10311" stroke-linecap="round" stroke-linejoin="round"/>
<path d="M567.24 373.251L579.742 362.607L565.317 353.156" stroke="#263238" stroke-width="1.10311" stroke-linecap="round" stroke-linejoin="round"/>
<path d="M548.671 379.817L558.934 347.618" stroke="#263238" stroke-width="1.10311" stroke-linecap="round" stroke-linejoin="round"/>
<path d="M441.695 660.021C441.695 660.021 393.613 673.799 386.898 676.186C380.796 678.342 364.249 684.145 351.831 682.338C350.632 682.165 349.447 681.91 348.283 681.575C335.698 677.828 330.045 674.329 328.387 666.421C326.729 658.512 332.996 652.676 339.031 648.945C345.066 645.215 377.795 641.318 377.795 641.318L385.704 643.64L441.695 660.021Z" fill="#4CA6E6"/>
<path d="M351.831 682.338C350.632 682.165 349.447 681.91 348.283 681.575C335.698 677.828 330.045 674.329 328.387 666.421C326.729 658.512 332.996 652.676 339.031 648.945C345.066 645.215 377.795 641.318 377.795 641.318L385.704 643.64C378.542 646.956 351.881 648.763 346.061 652.112C340.241 655.461 337.439 661.762 340.871 670.35C342.712 674.827 347.62 679.221 351.831 682.338Z" fill="white"/>
<path d="M434.467 661.978C434.467 661.978 398.355 671.329 384.03 677.314C369.705 683.3 342.397 685.919 332.631 673.584C322.866 661.248 331.504 650.604 341.236 648.233C350.969 645.862 370.65 642.131 381.394 643.64" stroke="#263238" stroke-width="1.10311" stroke-linecap="round" stroke-linejoin="round"/>
<path d="M352.544 681.691C352.544 681.691 334.173 671.61 340.275 657.484C344.785 647.072 369.29 649.327 381.427 643.64" stroke="#263238" stroke-width="1.10311" stroke-linecap="round" stroke-linejoin="round"/>
<path d="M588.148 684.576C587.651 689.55 585.91 694.209 580.936 697.144C577.62 699.1 572.911 700.261 566.163 700.194C549.301 699.979 517.599 687.925 517.599 687.925L487.921 671.511L503.357 647.088L507.585 640.456L518.495 642.91C518.495 642.91 527.531 648.033 536.617 652.112C545.703 656.191 567.771 657.086 575.547 663.337C583.323 669.587 588.994 676.385 588.148 684.576Z" fill="#4CA6E6"/>
<path d="M588.148 684.576C587.65 689.55 585.91 694.209 580.936 697.144C582.368 692.254 582.076 687.02 580.107 682.321C576.79 674.876 565.997 668.311 551.804 667.216C537.612 666.122 526.752 659.49 521.065 656.522C516.621 654.218 507.253 649.177 503.357 647.088L507.585 640.456L518.495 642.91C518.495 642.91 527.531 648.033 536.617 652.112C545.703 656.191 567.771 657.086 575.547 663.337C583.323 669.587 588.993 676.385 588.148 684.576Z" fill="white"/>
<path d="M494.503 676.121C515.867 688.539 539.478 696.603 563.974 699.847C569.379 700.493 575.663 700.593 579.278 696.531C580.239 695.358 580.955 694.003 581.382 692.547C581.81 691.092 581.94 689.565 581.765 688.058C581.118 680.431 574.702 674.396 567.672 671.362C560.642 668.328 552.899 667.632 545.421 665.957C537.984 664.28 530.795 661.65 524.033 658.131C518.661 655.329 513.471 651.93 507.552 650.67C501.633 649.41 494.586 650.935 491.419 656.108" stroke="#263238" stroke-width="1.10311" stroke-linecap="round" stroke-linejoin="round"/>
<path d="M577.288 698.603C580.066 697.272 582.495 695.311 584.38 692.876C586.266 690.441 587.556 687.598 588.148 684.576C589.226 677.396 585.131 670.168 579.377 665.757C573.624 661.347 566.412 659.258 559.299 657.782C552.186 656.307 544.907 655.312 538.093 652.609C527.697 648.53 517.434 640.506 506.59 643.374" stroke="#263238" stroke-width="1.10311" stroke-linecap="round" stroke-linejoin="round"/>
<path d="M527.995 419.261L477.774 400.161L477.144 399.912C477.144 399.912 477.326 398.586 477.475 396.596C477.79 392.584 477.956 386.051 476.066 383.846C473.264 380.53 465.339 383.315 457.596 379.767C449.853 376.219 435.544 382.569 435.544 382.569C435.544 382.569 425.198 380.662 420.622 388.123C418.301 394.142 419.097 403.046 419.097 403.046L418.152 403.377C412.166 405.616 379.603 417.868 372.722 422.793C365.112 428.181 356.689 483.509 353.986 499.758C351.284 516.006 346.476 530.647 348.913 536.234C351.35 541.822 386.334 568.764 406.463 575.711C426.591 582.658 497.969 580.685 497.969 580.685C497.969 580.685 499.129 580.37 501.202 579.707C513.272 575.827 556.099 559.811 578.83 522.207C578.863 522.274 556.845 450.1 527.995 419.261ZM392.303 512.325C388.606 514.945 390.645 525.092 390.645 525.092L384.361 519.554L400.146 480.74L406.877 510.585C406.877 510.585 396.001 509.722 392.303 512.325ZM518.578 536.98C516.837 537.876 523.552 519.223 520.368 514.995C517.185 510.767 507.585 511.165 507.585 511.165L508.397 506.075L514.084 476.894L515.975 474.655C515.975 474.655 535.506 508.131 539.004 519.936C539.004 519.969 517.716 536.98 518.578 536.98Z" fill="#4CA6E6"/>
<path d="M433.173 298.209L407.242 325.732C407.242 325.732 403.677 328.899 405.086 336.874C406.496 344.849 409.812 351.796 412.315 352.26C414.297 352.607 416.305 352.785 418.317 352.791C418.317 352.791 423.872 364.828 427.818 369.553C427.818 369.553 429.177 388.14 428.448 393.296C428.448 393.296 437.766 401.437 446.537 402.465C455.308 403.493 468.854 390.063 468.854 390.063L472.17 373.616C472.17 373.616 480.128 361.545 480.659 358.329C481.189 355.112 484.837 355.941 486.628 354.349C488.418 352.758 492.547 345.678 493.26 338.98C493.973 332.281 493.989 324.588 486.213 326.843C479.465 325.036 483.693 310.777 483.693 310.777L471.838 300.331L433.173 298.209Z" fill="white"/>
<path opacity="0.5" d="M477.774 400.16C477.383 401.184 476.934 402.186 476.431 403.161C472.153 411.219 453.517 426.589 453.517 426.589L447.88 409.262L444.796 426.589C438.578 423.869 419.61 407.439 419.61 407.439C419.61 407.439 418.964 405.897 418.185 403.492L419.13 403.161C419.13 403.161 418.334 394.191 420.655 388.239C425.198 380.778 435.577 382.684 435.577 382.684C435.577 382.684 449.886 376.334 457.629 379.882C465.372 383.43 473.297 380.678 476.099 383.961C478.901 387.244 477.177 399.977 477.177 399.977L477.774 400.16Z" fill="white"/>
<path opacity="0.2" d="M527.995 419.26L477.774 400.159L477.144 399.911C477.144 399.911 477.326 398.584 477.475 396.595L476.431 403.111L469.003 413.191C476.943 416.115 484.695 419.526 492.215 423.405C495.815 425.333 498.752 428.3 500.644 431.919C502.537 435.538 503.297 439.642 502.826 443.699L493.574 522.869L489.778 567.818L501.235 579.706C513.305 575.826 556.131 559.81 578.863 522.206C578.863 522.272 556.844 450.099 527.995 419.26ZM518.577 536.979C516.836 537.874 523.551 519.222 520.368 514.994C517.185 510.766 507.585 511.164 507.585 511.164L508.397 506.074L514.084 476.892L515.974 474.654C515.974 474.654 535.506 508.13 539.004 519.935C539.004 519.968 517.715 536.979 518.577 536.979Z" fill="black"/>
<path opacity="0.2" d="M410.21 514.995L402.4 488.898C402.4 488.898 388.39 441.13 378.79 429.358L381.31 462.95C381.31 462.95 373.02 503.074 365.443 514.995C357.866 526.916 356.175 529.917 365.443 529.917C374.712 529.917 397.277 547.89 397.277 547.89L395.536 532.968L410.21 514.995ZM390.529 525.092L384.245 519.554L400.029 480.74L406.761 510.585C406.761 510.585 395.951 509.772 392.253 512.375C388.556 514.978 390.529 525.092 390.529 525.092Z" fill="black"/>
<path d="M427.818 369.553C427.818 369.553 429.244 383.63 427.818 390.063" stroke="#263238" stroke-width="1.10311" stroke-linecap="round" stroke-linejoin="round"/>
<path d="M470.296 388.173C470.312 383.646 470.834 379.136 471.855 374.726" stroke="#263238" stroke-width="1.10311" stroke-linecap="round" stroke-linejoin="round"/>
<path d="M474.06 308.704C474.06 308.704 482.582 319.398 482.134 327.489C481.687 335.581 481.057 345.164 481.272 354.548C481.488 363.933 466.201 383.597 458.342 385.338C450.483 387.079 443.718 387.526 438.694 382.502C433.671 377.479 428.647 370.498 422.114 361.545C415.582 352.592 417.14 332.944 417.14 332.944" stroke="#263238" stroke-width="1.10311" stroke-linecap="round" stroke-linejoin="round"/>
<path d="M453.534 340.422C453.014 343.36 452.792 346.343 452.87 349.326C452.7 351.84 453.481 354.326 455.059 356.29C456.004 357.251 457.364 358.03 457.546 359.357C457.541 359.954 457.376 360.539 457.066 361.049C456.757 361.56 456.316 361.978 455.788 362.258C454.725 362.795 453.7 363.404 452.721 364.082" stroke="#263238" stroke-width="1.10311" stroke-linecap="round" stroke-linejoin="round"/>
<path d="M440.054 365.11C440.054 365.11 441.032 371.46 449.538 372.786" stroke="#263238" stroke-width="1.10311" stroke-linecap="round" stroke-linejoin="round"/>
<path d="M440.933 345.263C440.933 347.104 440.137 348.579 439.159 348.579C438.18 348.579 437.385 347.104 437.385 345.263C437.385 343.423 438.18 341.947 439.159 341.947C440.137 341.947 440.933 343.439 440.933 345.263Z" fill="#263238"/>
<path d="M466.317 346.058C466.317 347.899 465.521 349.374 464.543 349.374C463.564 349.374 462.769 347.882 462.769 346.058C462.769 344.234 463.564 342.742 464.543 342.742C465.521 342.742 466.317 344.218 466.317 346.058Z" fill="#263238"/>
<path d="M461.194 338.017C461.194 338.017 469.484 329.727 476.431 338.979" stroke="#263238" stroke-width="2.20621" stroke-linecap="round" stroke-linejoin="round"/>
<path d="M443.735 338.184C443.735 338.184 438.496 332.314 430.239 338.184" stroke="#263238" stroke-width="2.20621" stroke-linecap="round" stroke-linejoin="round"/>
<path d="M428.448 377.38C428.448 377.38 433.505 391.307 444.796 395.27C456.087 399.232 471.075 378.689 471.075 378.689L470.296 376.02C470.296 376.02 460.464 388.787 449.538 386.615C438.611 384.443 427.818 369.62 427.818 369.62L428.448 377.38Z" fill="#263238"/>
<path d="M418.317 352.261C418.317 352.261 411.586 354.632 409.795 349.392C408.005 344.153 401.87 330.342 407.242 325.732C412.614 321.123 416.925 331.817 416.925 331.817" stroke="#263238" stroke-width="1.10311" stroke-linecap="round" stroke-linejoin="round"/>
<path d="M481.256 355.112C481.256 355.112 487.506 356.372 489.297 351.133C491.088 345.893 497.222 332.082 491.85 327.473C486.478 322.863 482.168 333.558 482.168 333.558" stroke="#263238" stroke-width="1.10311" stroke-linecap="round" stroke-linejoin="round"/>
<path d="M416.924 345.263C419.263 344.895 421.373 343.65 422.827 341.782C423.715 340.142 424.278 338.346 424.485 336.492C425.101 332.967 425.411 329.394 425.414 325.815C425.341 324.417 425.469 323.015 425.795 321.653C426.293 320.283 427.059 319.026 428.05 317.956C430.388 315.204 433.223 312.882 435.461 310.031C436.661 308.685 437.574 307.109 438.144 305.398C438.714 303.688 438.93 301.879 438.777 300.082C443.907 304.312 449.9 307.366 456.337 309.03C462.773 310.694 469.496 310.928 476.033 309.716C487.888 307.394 499.245 296.999 497.869 283.933C497.609 281.743 496.67 279.689 495.183 278.059C493.696 276.43 491.736 275.307 489.579 274.847C483.726 273.388 478.47 276.505 473.164 278.512C463.498 282.159 454.031 275.892 444.265 274.847C435.975 273.936 425.646 274.98 421.302 283.287C421.302 283.287 406.379 285.044 399.747 297.38C393.115 309.716 405.667 326.777 405.667 326.777C405.667 326.777 410.641 320.675 417.157 333.011L416.924 345.263Z" fill="#263238"/>
<path d="M475.088 305.554C475.088 305.554 471.208 325.782 481.339 335.58C481.339 335.58 483.56 329.496 485.799 328.003C487.413 324.414 488.096 320.475 487.786 316.551C487.476 312.628 486.182 308.845 484.025 305.554C476.531 293.782 475.088 305.554 475.088 305.554Z" fill="#263238"/>
<path opacity="0.2" d="M493.558 282.54C492.668 285.3 491.16 287.821 489.149 289.909C487.138 291.998 484.676 293.6 481.952 294.594C467.892 300.331 454.246 293.98 440.153 292.737C428.663 291.709 415.979 302.088 415.167 313.893" stroke="white" stroke-width="1.10311" stroke-linecap="round" stroke-linejoin="round"/>
<path opacity="0.2" d="M406.496 310.777C406.668 306.118 408.162 301.605 410.805 297.765C413.447 293.924 417.128 290.915 421.418 289.09" stroke="white" stroke-width="1.10311" stroke-linecap="round" stroke-linejoin="round"/>
<path d="M424.568 388.173C430.751 394.616 438.211 399.699 446.47 403.095C446.47 403.095 463.299 398.204 471.855 386.515" stroke="#263238" stroke-width="1.10311" stroke-linecap="round" stroke-linejoin="round"/>
<path d="M441.766 358.764C449.241 355.336 452.521 346.497 449.092 339.023C445.664 331.549 436.826 328.269 429.352 331.697C421.877 335.126 418.598 343.964 422.026 351.438C425.454 358.912 434.292 362.192 441.766 358.764Z" stroke="#263238" stroke-width="1.10311" stroke-linecap="round" stroke-linejoin="round"/>
<path d="M470.617 360.074C478.779 359.072 484.583 351.643 483.581 343.482C482.579 335.32 475.15 329.516 466.988 330.518C458.827 331.52 453.023 338.949 454.025 347.111C455.027 355.272 462.456 361.076 470.617 360.074Z" stroke="#263238" stroke-width="1.10311" stroke-linecap="round" stroke-linejoin="round"/>
<path d="M427.818 382.618C426.309 383.014 424.896 383.71 423.663 384.664C422.429 385.619 421.401 386.812 420.638 388.173C418.002 392.815 419.594 407.422 419.594 407.422C419.594 407.422 433.206 420.885 444.796 426.572L448.211 407.356L453.517 426.572C453.517 426.572 471.457 413.888 476.431 403.161C476.431 403.161 478.089 390.643 476.431 386.581C476.054 385.453 475.336 384.469 474.377 383.765C473.418 383.061 472.265 382.672 471.075 382.651" stroke="#263238" stroke-width="1.10311" stroke-linecap="round" stroke-linejoin="round"/>
<path d="M406.496 511.181C406.496 511.181 401.173 475.533 394.094 460.993" stroke="#263238" stroke-width="1.10311" stroke-linecap="round" stroke-linejoin="round"/>
<path d="M378.79 429.358C382.912 435.217 386.592 441.374 389.799 447.779" stroke="#263238" stroke-width="1.10311" stroke-linecap="round" stroke-linejoin="round"/>
<path d="M518.577 455.97C520.007 450.01 521.965 444.189 524.43 438.577" stroke="#263238" stroke-width="1.10311" stroke-linecap="round" stroke-linejoin="round"/>
<path d="M507.585 511.181C507.585 511.181 511.415 486.742 515.991 466.613" stroke="#263238" stroke-width="1.10311" stroke-linecap="round" stroke-linejoin="round"/>
<path d="M514.084 476.86C517.787 471.952 522.992 468.389 528.907 466.713" stroke="#263238" stroke-width="1.10311" stroke-linecap="round" stroke-linejoin="round"/>
<path d="M477.16 399.911C477.16 399.911 508.049 412.263 527.995 419.277C527.995 419.277 552.534 442.34 578.847 522.273C578.847 522.273 554.739 562.828 508.878 575.827" stroke="#263238" stroke-width="1.10311" stroke-linecap="round" stroke-linejoin="round"/>
<path d="M516.837 538.422L539.004 519.968C539.004 519.968 550.727 511.065 562.913 517.15" stroke="#263238" stroke-width="1.10311" stroke-linecap="round" stroke-linejoin="round"/>
<path d="M515.991 474.655C515.991 474.655 534.312 501.731 539.004 519.969" stroke="#263238" stroke-width="1.10311" stroke-linecap="round" stroke-linejoin="round"/>
<path d="M390.778 526.12L384.295 519.969C384.295 519.969 374.679 518.311 363.769 525.59" stroke="#263238" stroke-width="1.10311" stroke-linecap="round" stroke-linejoin="round"/>
<path d="M384.295 519.969C384.295 519.969 392.353 493.44 400.295 479.861" stroke="#263238" stroke-width="1.10311" stroke-linecap="round" stroke-linejoin="round"/>
<path d="M419.13 403.162C419.13 403.162 374.678 419.841 370.318 424.716C365.957 429.59 349.394 522.854 348.946 533.531C348.565 543.082 383.184 564.52 400.345 573.556" stroke="#263238" stroke-width="1.10311" stroke-linecap="round" stroke-linejoin="round"/>
<path d="M452.373 434.68C452.373 435.26 452.201 435.828 451.878 436.31C451.556 436.793 451.098 437.169 450.561 437.391C450.025 437.613 449.435 437.671 448.866 437.558C448.297 437.445 447.774 437.165 447.363 436.755C446.953 436.345 446.673 435.822 446.56 435.252C446.447 434.683 446.505 434.093 446.727 433.557C446.949 433.021 447.325 432.562 447.808 432.24C448.291 431.917 448.858 431.745 449.438 431.745C449.824 431.743 450.207 431.817 450.564 431.964C450.921 432.111 451.245 432.327 451.518 432.6C451.791 432.873 452.007 433.197 452.154 433.554C452.301 433.911 452.375 434.294 452.373 434.68Z" fill="#263238"/>
<path d="M503.805 590.898H402.666C402.037 590.898 401.434 590.648 400.989 590.204C400.544 589.759 400.295 589.156 400.295 588.527C400.295 587.898 400.544 587.295 400.989 586.851C401.434 586.406 402.037 586.156 402.666 586.156H503.805C504.433 586.156 505.037 586.406 505.481 586.851C505.926 587.295 506.176 587.898 506.176 588.527C506.176 589.156 505.926 589.759 505.481 590.204C505.037 590.648 504.433 590.898 503.805 590.898Z" fill="#263238"/>
<path d="M507.353 582.973L520.899 519.305C521.109 518.318 521.096 517.297 520.86 516.315C520.624 515.334 520.172 514.418 519.536 513.634C518.9 512.85 518.097 512.219 517.185 511.786C516.273 511.353 515.276 511.129 514.267 511.131H396.05C395.05 511.132 394.061 511.354 393.157 511.782C392.252 512.21 391.454 512.834 390.82 513.608C390.185 514.382 389.731 515.287 389.488 516.258C389.246 517.229 389.222 518.241 389.418 519.222L401.571 580.768C401.869 582.28 402.674 583.644 403.853 584.636C405.032 585.628 406.514 586.188 408.054 586.223L500.555 588.345C502.136 588.38 503.68 587.863 504.921 586.882C506.161 585.902 507.022 584.52 507.353 582.973Z" fill="white" stroke="#263238" stroke-width="1.10311" stroke-linecap="round" stroke-linejoin="round"/>
<path d="M482.764 517.216H496.808" stroke="#263238" stroke-width="1.10311" stroke-linecap="round" stroke-linejoin="round"/>
<path d="M415.698 517.216H469.003" stroke="#263238" stroke-width="1.10311" stroke-linecap="round" stroke-linejoin="round"/>
<path d="M507.585 650.57L496.808 678.855C496.808 678.855 469.318 671.925 434.118 664.713C397.294 657.169 358.844 647.403 338.899 612.402C336.478 608.141 334.853 603.101 335.997 598.326C338.865 586.239 354.6 582.956 364.963 581.745C371.477 581.041 378.024 580.675 384.577 580.651C387.893 580.651 398.919 578.844 401.588 580.817C405.599 583.743 409.879 586.28 414.371 588.394C420.257 590.898 506.176 586.156 506.176 586.156C507.671 582.896 508.585 579.4 508.878 575.826C522.391 568.962 553.645 563.159 566.909 565.729C587.684 569.758 599.804 581.878 597.499 594.578C595.195 607.279 549.301 641.335 507.585 650.57Z" fill="#263238"/>
<path d="M507.585 650.571C507.585 650.571 481.438 643.64 460.083 629.216C438.727 614.791 422.048 598.045 392.286 601.51" stroke="white" stroke-width="1.10311" stroke-linecap="round" stroke-linejoin="round"/>
<path d="M455.192 625.816C468.688 621.936 478.586 613.198 489.413 604.825C500.833 595.66 513.096 587.599 526.039 580.751" stroke="white" stroke-width="1.10311" stroke-linecap="round" stroke-linejoin="round"/>
<path d="M450.433 347.618H454.396" stroke="#263238" stroke-width="1.10311" stroke-linecap="round" stroke-linejoin="round"/>
<path d="M636.539 420.864C635.392 420.417 634.153 420.015 632.868 419.648C633.155 418.34 633.373 417.067 633.533 415.84C634.428 408.705 632.96 403.727 629.404 401.811C625.848 399.896 620.881 401.398 615.41 406.044C614.722 406.629 614.033 407.26 613.357 407.925C612.657 407.26 611.969 406.64 611.28 406.067C605.752 401.479 600.762 400.022 597.24 401.983C593.719 403.945 592.297 408.946 593.26 416.012C593.432 417.239 593.662 418.501 593.96 419.797C592.687 420.176 591.471 420.589 590.324 421.048C583.636 423.674 580 427.356 580 431.371C580 435.386 583.728 439.045 590.427 441.614C591.574 442.062 592.813 442.463 594.109 442.83C593.822 444.138 593.604 445.411 593.444 446.639C592.549 453.773 594.017 458.752 597.573 460.667C598.598 461.219 599.747 461.5 600.911 461.482C603.985 461.482 607.644 459.772 611.567 456.434C612.255 455.849 612.932 455.219 613.62 454.553C614.309 455.219 615.008 455.838 615.697 456.412C619.62 459.669 623.267 461.344 626.318 461.344C627.52 461.366 628.706 461.074 629.76 460.495C633.293 458.534 634.703 453.544 633.728 446.421C633.568 445.193 633.327 443.931 633.04 442.635C634.313 442.257 635.529 441.844 636.676 441.396C643.364 438.758 647 435.076 647 431.073C647 427.07 643.249 423.433 636.539 420.864ZM626.055 404.323C626.669 404.31 627.276 404.452 627.821 404.736C630.023 405.883 630.918 409.921 630.23 415.427C630.092 416.574 629.897 417.721 629.645 418.868C626.955 418.284 624.231 417.866 621.489 417.618C619.728 415.05 617.788 412.608 615.685 410.311C616.305 409.703 616.935 409.164 617.566 408.602C620.813 405.815 623.841 404.323 626.055 404.323ZM627.202 435.294C627.89 437.038 628.463 438.735 628.945 440.341C627.374 440.697 625.71 441.006 623.944 441.259C624.586 440.181 625.217 439.079 625.825 437.955C626.307 437.061 626.766 436.177 627.202 435.283V435.294ZM622.9 436.372C621.879 438.276 620.824 440.054 619.734 441.729C617.761 441.89 615.685 441.981 613.529 441.993C611.372 442.004 609.319 441.993 607.335 441.786C606.187 440.1 605.144 438.345 604.111 436.476C603.079 434.606 602.299 433.034 601.507 431.348C602.272 429.658 603.121 427.941 604.054 426.198C604.987 424.454 606.042 422.669 607.22 420.841C609.204 420.681 611.28 420.589 613.425 420.577H613.838C615.8 420.577 617.738 420.646 619.574 420.784C620.721 422.47 621.765 424.225 622.785 426.095C623.806 427.964 624.621 429.536 625.401 431.222C624.69 432.92 623.841 434.652 622.9 436.361V436.372ZM613.586 449.862C612.294 448.455 611.02 446.925 609.766 445.274C610.875 445.319 611.999 445.342 613.139 445.342H613.517C614.79 445.342 616.052 445.342 617.303 445.239C616.142 446.838 614.901 448.377 613.586 449.85V449.862ZM601.209 438.081C601.829 439.229 602.471 440.284 603.125 441.351C601.358 441.121 599.684 440.823 598.124 440.479C598.582 438.873 599.144 437.187 599.798 435.432C600.257 436.315 600.716 437.198 601.209 438.081ZM599.752 427.265C599.076 425.544 598.502 423.823 598.009 422.218C599.58 421.862 601.244 421.552 603.01 421.3C602.368 422.363 601.741 423.464 601.129 424.603C600.659 425.487 600.2 426.336 599.752 427.265ZM613.368 412.697C614.668 414.104 615.941 415.633 617.188 417.285C615.938 417.285 614.676 417.205 613.403 417.216C612.129 417.228 610.856 417.216 609.606 417.32C610.845 415.668 612.106 414.119 613.38 412.697H613.368ZM625.745 424.466C625.125 423.319 624.483 422.263 623.829 421.208C625.565 421.438 627.228 421.724 628.819 422.068C628.36 423.709 627.798 425.395 627.144 427.104C626.708 426.232 626.238 425.349 625.756 424.466H625.745ZM596.552 415.61C595.795 410.105 596.655 406.101 598.846 404.897C599.407 404.599 600.035 404.449 600.67 404.461C602.884 404.461 605.901 405.918 609.147 408.625C609.778 409.153 610.42 409.715 611.051 410.323C608.964 412.632 607.048 415.089 605.316 417.675C602.577 417.955 599.857 418.399 597.172 419.006C596.919 417.836 596.713 416.7 596.564 415.61H596.552ZM583.315 431.417C583.315 428.423 587.605 425.211 594.786 423.066C595.626 425.894 596.649 428.664 597.848 431.36C596.677 434.064 595.685 436.842 594.877 439.676C587.674 437.6 583.326 434.422 583.315 431.417ZM599.133 457.799C596.506 456.377 595.749 451.043 597.321 443.691C600.007 444.274 602.727 444.692 605.465 444.941C607.233 447.507 609.176 449.949 611.28 452.248C607.266 456.125 603.549 458.224 600.957 458.224C600.323 458.247 599.695 458.105 599.133 457.811V457.799ZM628.119 457.65C625.928 458.855 622.074 457.455 617.796 453.911C617.161 453.383 616.53 452.821 615.903 452.225C617.984 449.906 619.9 447.445 621.638 444.861C624.377 444.581 627.097 444.137 629.783 443.53C631.423 450.871 630.723 456.159 628.119 457.662V457.65ZM632.157 439.469C631.312 436.643 630.289 433.873 629.094 431.176C630.257 428.469 631.249 425.691 632.065 422.86C633.212 423.193 634.359 423.56 635.357 424.007C640.531 425.991 643.639 428.664 643.651 431.165C643.662 434.124 639.349 437.336 632.157 439.481V439.469Z" fill="#51C5FF"/>
<path d="M619.746 430.924C619.746 432.162 619.379 433.373 618.69 434.403C618.002 435.433 617.024 436.236 615.88 436.71C614.735 437.184 613.476 437.308 612.261 437.066C611.046 436.825 609.93 436.228 609.054 435.352C608.178 434.476 607.582 433.36 607.34 432.145C607.099 430.931 607.223 429.671 607.697 428.527C608.171 427.382 608.973 426.404 610.003 425.716C611.033 425.028 612.244 424.661 613.483 424.661C614.306 424.659 615.121 424.82 615.881 425.134C616.642 425.449 617.333 425.91 617.915 426.492C618.497 427.074 618.958 427.765 619.272 428.525C619.586 429.286 619.747 430.101 619.746 430.924Z" fill="#51C5FF"/>
<path d="M393.541 154.679L390.729 152.937C390.706 152.664 390.679 152.391 390.65 152.119L393.066 149.864C393.188 149.752 393.279 149.611 393.33 149.453C393.382 149.296 393.392 149.129 393.36 148.966C393.327 148.804 393.254 148.653 393.146 148.527C393.039 148.402 392.901 148.306 392.746 148.249L389.655 147.094C389.578 146.827 389.498 146.561 389.414 146.296L391.341 143.618C391.438 143.484 391.499 143.328 391.518 143.164C391.537 143 391.514 142.834 391.451 142.682C391.389 142.529 391.288 142.395 391.158 142.293C391.029 142.19 390.876 142.122 390.713 142.096L387.453 141.566C387.327 141.319 387.195 141.076 387.061 140.833L388.43 137.829C388.5 137.679 388.531 137.513 388.518 137.348C388.505 137.183 388.45 137.024 388.358 136.887C388.266 136.749 388.141 136.637 387.993 136.563C387.845 136.488 387.681 136.452 387.515 136.46L384.209 136.575C384.038 136.361 383.864 136.15 383.686 135.942L384.446 132.72C384.485 132.56 384.481 132.392 384.437 132.233C384.392 132.074 384.307 131.929 384.19 131.812C384.073 131.695 383.928 131.61 383.769 131.565C383.61 131.521 383.443 131.517 383.282 131.556L380.062 132.314C379.852 132.138 379.643 131.964 379.427 131.791L379.543 128.487C379.55 128.321 379.514 128.157 379.439 128.009C379.365 127.862 379.253 127.736 379.115 127.644C378.978 127.552 378.819 127.497 378.654 127.484C378.489 127.472 378.323 127.502 378.173 127.572L375.169 128.941C374.926 128.807 374.682 128.676 374.436 128.547L373.906 125.289C373.88 125.127 373.812 124.973 373.71 124.844C373.608 124.715 373.474 124.614 373.322 124.551C373.17 124.488 373.004 124.464 372.84 124.483C372.676 124.502 372.52 124.563 372.386 124.659L369.706 126.586C369.442 126.502 369.177 126.421 368.911 126.345L367.755 123.254C367.698 123.099 367.602 122.962 367.476 122.854C367.351 122.747 367.2 122.673 367.038 122.641C366.876 122.609 366.708 122.618 366.551 122.669C366.394 122.72 366.253 122.811 366.141 122.932L363.886 125.352C363.613 125.323 363.341 125.294 363.067 125.273L361.325 122.459C361.238 122.319 361.117 122.203 360.973 122.122C360.829 122.042 360.667 122 360.502 122C360.337 122 360.175 122.042 360.031 122.122C359.887 122.203 359.766 122.319 359.679 122.459L357.937 125.273C357.665 125.294 357.391 125.323 357.119 125.352L354.864 122.934C354.751 122.814 354.609 122.725 354.453 122.675C354.296 122.625 354.129 122.616 353.968 122.648C353.807 122.68 353.656 122.752 353.53 122.858C353.405 122.964 353.308 123.101 353.249 123.254L352.094 126.345C351.826 126.422 351.56 126.504 351.298 126.588L348.618 124.659C348.485 124.561 348.328 124.499 348.164 124.479C348 124.459 347.833 124.482 347.68 124.545C347.527 124.608 347.393 124.71 347.291 124.84C347.188 124.97 347.121 125.124 347.096 125.287L346.564 128.547C346.319 128.675 346.076 128.807 345.831 128.941L342.829 127.572C342.679 127.502 342.514 127.472 342.349 127.484C342.184 127.497 342.025 127.551 341.888 127.643C341.75 127.735 341.638 127.86 341.563 128.008C341.488 128.155 341.453 128.319 341.46 128.485L341.575 131.793C341.361 131.964 341.15 132.138 340.94 132.316L337.72 131.556C337.56 131.519 337.392 131.523 337.234 131.568C337.075 131.614 336.931 131.698 336.814 131.815C336.698 131.931 336.613 132.075 336.567 132.234C336.522 132.392 336.517 132.56 336.554 132.72L337.314 135.942C337.136 136.152 336.962 136.361 336.791 136.575L333.485 136.46C333.32 136.453 333.156 136.49 333.009 136.565C332.862 136.64 332.737 136.752 332.645 136.889C332.553 137.026 332.498 137.184 332.485 137.349C332.472 137.514 332.501 137.679 332.57 137.829L333.939 140.835C333.807 141.076 333.675 141.319 333.547 141.568L330.289 142.096C330.126 142.122 329.973 142.19 329.843 142.292C329.714 142.394 329.612 142.528 329.549 142.681C329.486 142.833 329.463 143 329.482 143.164C329.501 143.328 329.562 143.484 329.659 143.618L331.586 146.296C331.502 146.56 331.422 146.826 331.345 147.091L328.254 148.249C328.1 148.307 327.963 148.403 327.856 148.529C327.749 148.655 327.676 148.805 327.644 148.967C327.612 149.129 327.622 149.296 327.673 149.453C327.723 149.61 327.813 149.751 327.934 149.864L330.352 152.119C330.321 152.391 330.294 152.663 330.271 152.937L327.459 154.679C327.319 154.766 327.203 154.887 327.122 155.031C327.042 155.175 327 155.337 327 155.502C327 155.667 327.042 155.829 327.122 155.973C327.203 156.117 327.319 156.238 327.459 156.325L330.271 158.065C330.294 158.339 330.321 158.613 330.352 158.885L327.934 161.14C327.813 161.253 327.723 161.394 327.673 161.551C327.622 161.708 327.612 161.875 327.644 162.037C327.676 162.199 327.749 162.349 327.856 162.475C327.963 162.601 328.1 162.697 328.254 162.755L331.345 163.91C331.422 164.178 331.504 164.444 331.588 164.706L329.659 167.386C329.563 167.52 329.502 167.676 329.483 167.84C329.464 168.003 329.488 168.169 329.551 168.322C329.614 168.474 329.715 168.608 329.844 168.71C329.973 168.812 330.127 168.88 330.289 168.906L333.547 169.436C333.675 169.683 333.805 169.928 333.941 170.169L332.57 173.173C332.501 173.323 332.472 173.488 332.485 173.653C332.498 173.817 332.553 173.976 332.645 174.113C332.737 174.25 332.862 174.362 333.009 174.437C333.156 174.512 333.32 174.548 333.485 174.542L336.791 174.427C336.962 174.643 337.136 174.852 337.314 175.062L336.554 178.284C336.515 178.445 336.518 178.613 336.563 178.772C336.608 178.931 336.693 179.076 336.81 179.193C336.927 179.31 337.073 179.394 337.232 179.439C337.391 179.483 337.56 179.485 337.72 179.446L340.94 178.688C341.15 178.866 341.361 179.038 341.575 179.209L341.46 182.517C341.453 182.682 341.489 182.846 341.565 182.993C341.64 183.14 341.751 183.266 341.889 183.357C342.026 183.449 342.185 183.504 342.349 183.516C342.514 183.529 342.679 183.499 342.829 183.43L345.833 182.061C346.074 182.195 346.319 182.327 346.566 182.455L347.096 185.71C347.121 185.874 347.188 186.028 347.29 186.158C347.393 186.289 347.527 186.39 347.679 186.454C347.832 186.517 347.999 186.54 348.163 186.521C348.328 186.501 348.484 186.44 348.618 186.343L351.296 184.412C351.56 184.496 351.826 184.58 352.092 184.655L353.247 187.745C353.304 187.901 353.4 188.039 353.525 188.146C353.651 188.254 353.802 188.327 353.964 188.359C354.127 188.392 354.294 188.381 354.451 188.33C354.609 188.279 354.75 188.188 354.862 188.066L357.119 185.647C357.391 185.679 357.663 185.706 357.937 185.731L359.679 188.543C359.766 188.683 359.888 188.798 360.032 188.878C360.175 188.958 360.337 189 360.502 189C360.667 189 360.829 188.958 360.973 188.878C361.117 188.798 361.238 188.683 361.325 188.543L363.065 185.729C363.339 185.706 363.613 185.679 363.886 185.647L366.141 188.066C366.252 188.187 366.393 188.278 366.55 188.329C366.707 188.38 366.875 188.39 367.036 188.358C367.198 188.326 367.349 188.252 367.475 188.145C367.6 188.038 367.696 187.9 367.753 187.745L368.911 184.655C369.176 184.58 369.442 184.496 369.706 184.412L372.386 186.343C372.52 186.438 372.677 186.498 372.84 186.517C373.004 186.536 373.17 186.512 373.322 186.449C373.474 186.385 373.607 186.284 373.71 186.155C373.812 186.026 373.88 185.873 373.906 185.71L374.438 182.452C374.683 182.327 374.926 182.193 375.169 182.061L378.173 183.43C378.323 183.5 378.489 183.529 378.653 183.516C378.818 183.503 378.977 183.448 379.114 183.357C379.252 183.265 379.363 183.139 379.438 182.992C379.513 182.845 379.549 182.68 379.543 182.515L379.427 179.207C379.641 179.04 379.852 178.866 380.062 178.688L383.282 179.446C383.442 179.485 383.61 179.482 383.769 179.438C383.928 179.393 384.073 179.308 384.19 179.192C384.307 179.075 384.392 178.93 384.437 178.771C384.482 178.612 384.485 178.444 384.446 178.284L383.688 175.062C383.864 174.852 384.038 174.643 384.209 174.427L387.518 174.542C387.683 174.549 387.847 174.513 387.994 174.438C388.142 174.364 388.267 174.252 388.359 174.114C388.451 173.977 388.505 173.818 388.518 173.653C388.53 173.488 388.5 173.323 388.43 173.173L387.061 170.169C387.195 169.928 387.325 169.683 387.453 169.436L390.711 168.906C390.874 168.881 391.028 168.814 391.158 168.712C391.288 168.61 391.39 168.476 391.453 168.323C391.516 168.17 391.539 168.004 391.519 167.84C391.5 167.676 391.438 167.519 391.341 167.386L389.414 164.706C389.498 164.442 389.578 164.177 389.655 163.91L392.746 162.755C392.901 162.698 393.039 162.602 393.146 162.477C393.254 162.351 393.327 162.2 393.36 162.038C393.392 161.875 393.382 161.708 393.33 161.551C393.279 161.393 393.188 161.252 393.066 161.14L390.648 158.885C390.677 158.613 390.704 158.339 390.729 158.065L393.541 156.325C393.681 156.238 393.797 156.117 393.878 155.973C393.958 155.829 394 155.667 394 155.502C394 155.337 393.958 155.175 393.878 155.031C393.797 154.887 393.681 154.766 393.541 154.679ZM374.716 178.012C374.212 177.889 373.775 177.574 373.499 177.135C373.223 176.695 373.129 176.165 373.238 175.657C373.347 175.149 373.65 174.704 374.082 174.416C374.514 174.128 375.041 174.02 375.552 174.115C376.058 174.236 376.497 174.551 376.775 174.991C377.053 175.432 377.147 175.964 377.037 176.473C376.928 176.982 376.624 177.428 376.189 177.716C375.755 178.003 375.228 178.109 374.716 178.012ZM373.76 171.548C373.527 171.499 373.286 171.495 373.052 171.538C372.818 171.581 372.594 171.67 372.395 171.8C372.195 171.929 372.022 172.097 371.887 172.293C371.752 172.489 371.657 172.71 371.607 172.943L370.609 177.603C367.433 179.043 363.986 179.786 360.5 179.781C356.815 179.781 353.318 178.964 350.18 177.505L349.181 172.846C349.132 172.613 349.037 172.392 348.902 172.196C348.767 172 348.594 171.832 348.395 171.702C348.195 171.572 347.971 171.483 347.737 171.44C347.502 171.397 347.262 171.4 347.029 171.45L342.915 172.333C342.15 171.547 341.44 170.709 340.787 169.827H360.806C361.032 169.827 361.183 169.785 361.183 169.58V162.499C361.183 162.292 361.032 162.252 360.806 162.252H354.952V157.761H361.283C361.861 157.761 364.373 157.927 365.177 161.138C365.429 162.124 365.981 165.338 366.358 166.366C366.735 167.52 368.268 169.825 369.901 169.825H379.875C379.997 169.824 380.118 169.812 380.238 169.79C379.547 170.73 378.787 171.62 377.97 172.449L373.762 171.546L373.76 171.548ZM346.074 177.913C345.564 178.008 345.036 177.9 344.604 177.612C344.172 177.324 343.869 176.879 343.761 176.372C343.652 175.864 343.745 175.334 344.021 174.894C344.297 174.454 344.734 174.139 345.239 174.017C345.495 173.962 345.759 173.958 346.016 174.006C346.274 174.053 346.519 174.151 346.739 174.293C346.959 174.435 347.148 174.62 347.297 174.835C347.445 175.051 347.55 175.293 347.605 175.549C347.659 175.805 347.663 176.07 347.616 176.327C347.568 176.585 347.471 176.83 347.328 177.05C347.186 177.27 347.002 177.459 346.786 177.608C346.571 177.756 346.328 177.861 346.072 177.915L346.074 177.913ZM338.48 147.121C338.586 147.36 338.644 147.617 338.651 147.878C338.657 148.139 338.612 148.399 338.518 148.643C338.424 148.887 338.283 149.11 338.103 149.299C337.923 149.488 337.708 149.64 337.469 149.746C337.23 149.852 336.973 149.91 336.712 149.917C336.45 149.923 336.191 149.878 335.947 149.784C335.703 149.691 335.48 149.55 335.291 149.369C335.101 149.189 334.949 148.974 334.843 148.735C334.629 148.253 334.616 147.705 334.805 147.213C334.995 146.72 335.372 146.324 335.855 146.11C336.337 145.895 336.884 145.882 337.377 146.071C337.869 146.261 338.266 146.639 338.48 147.121ZM336.146 152.655L340.432 150.749C340.871 150.553 341.215 150.191 341.388 149.741C341.561 149.292 341.548 148.792 341.353 148.352L340.471 146.357H343.943V162.005H336.939C336.075 158.969 335.807 155.794 336.146 152.655ZM354.954 151.134V146.522H363.22C363.647 146.522 366.235 147.016 366.235 148.951C366.235 150.557 364.25 151.134 362.617 151.134H354.954ZM384.997 155.286C384.997 155.898 384.974 156.503 384.928 157.104H382.415C382.164 157.104 382.063 157.271 382.063 157.516V158.67C382.063 161.387 380.531 161.978 379.189 162.129C377.911 162.271 376.492 161.593 376.318 160.81C375.564 156.57 374.308 155.663 372.323 154.097C374.786 152.535 377.348 150.228 377.348 147.14C377.348 143.804 375.062 141.704 373.504 140.674C371.318 139.234 368.898 138.945 368.245 138.945H342.253C345.844 134.928 350.662 132.209 355.957 131.211L359.02 134.424C359.713 135.149 360.862 135.178 361.585 134.483L365.014 131.204C368.508 131.86 371.817 133.268 374.713 135.33C377.608 137.392 380.021 140.06 381.783 143.147L379.436 148.448C379.241 148.888 379.229 149.388 379.401 149.837C379.574 150.286 379.918 150.649 380.357 150.846L384.877 152.851C384.955 153.653 384.997 154.464 384.997 155.286ZM359.022 128.476C359.211 128.295 359.433 128.154 359.677 128.059C359.921 127.965 360.181 127.919 360.442 127.925C360.704 127.931 360.961 127.989 361.2 128.094C361.439 128.2 361.655 128.352 361.836 128.541C362.016 128.73 362.158 128.954 362.252 129.198C362.347 129.442 362.392 129.702 362.386 129.964C362.38 130.226 362.322 130.484 362.216 130.723C362.11 130.962 361.958 131.179 361.769 131.359C361.58 131.54 361.357 131.681 361.114 131.775C360.87 131.87 360.61 131.915 360.349 131.909C360.088 131.903 359.83 131.845 359.592 131.739C359.353 131.633 359.137 131.481 358.957 131.292C358.593 130.91 358.395 130.399 358.408 129.871C358.42 129.343 358.641 128.841 359.022 128.476ZM382.31 147.217C382.525 146.735 382.922 146.357 383.415 146.168C383.907 145.979 384.455 145.993 384.937 146.207C385.419 146.421 385.797 146.818 385.986 147.311C386.176 147.804 386.162 148.351 385.947 148.833C385.841 149.072 385.689 149.288 385.5 149.468C385.31 149.648 385.087 149.789 384.843 149.883C384.599 149.976 384.339 150.021 384.078 150.015C383.817 150.008 383.559 149.95 383.321 149.844C383.082 149.738 382.866 149.585 382.686 149.396C382.506 149.207 382.365 148.984 382.272 148.74C382.178 148.496 382.133 148.236 382.14 147.974C382.146 147.713 382.204 147.456 382.31 147.217Z" fill="#263238"/>
<path d="M472.5 550C472.5 540.335 464.665 532.5 455 532.5C445.339 532.5 437.507 540.329 437.5 549.988V563.531C437.505 565.724 439.284 567.5 441.479 567.5H455.007C464.669 567.496 472.5 559.663 472.5 550Z" fill="#294172"/>
<path d="M460.138 536.644C455.611 536.644 451.928 540.326 451.928 544.853V549.21H447.589C443.063 549.21 439.38 552.893 439.38 557.42C439.38 561.946 443.063 565.629 447.589 565.629C452.116 565.629 455.798 561.946 455.798 557.42V553.062H460.138C464.664 553.062 468.347 549.38 468.347 544.853C468.347 540.326 464.664 536.644 460.138 536.644ZM451.959 557.42C451.959 559.829 449.998 561.789 447.589 561.789C445.18 561.789 443.22 559.829 443.22 557.42C443.22 555.01 445.18 553.05 447.589 553.05H451.928V553.062H451.959V557.42ZM460.138 549.222H455.798V549.21H455.768V544.853C455.768 542.443 457.728 540.483 460.138 540.483C462.547 540.483 464.507 542.443 464.507 544.853C464.507 547.262 462.547 549.222 460.138 549.222Z" fill="#3C6EB4"/>
<path d="M461.952 536.892C461.315 536.726 460.826 536.648 460.138 536.648C455.602 536.648 451.925 540.326 451.925 544.861V549.215H448.485C447.412 549.215 446.545 550.057 446.546 551.128C446.546 552.192 447.403 553.038 448.465 553.038L451.313 553.039C451.651 553.039 451.925 553.312 451.925 553.65V557.417C451.921 559.808 449.981 561.745 447.59 561.745C446.779 561.745 446.579 561.639 446.026 561.639C444.864 561.639 444.087 562.418 444.087 563.489C444.087 564.375 444.846 565.136 445.775 565.379C446.412 565.546 446.901 565.624 447.59 565.624C452.125 565.624 455.803 561.946 455.803 557.41V553.057H459.243C460.315 553.057 461.182 552.214 461.181 551.143C461.181 550.079 460.324 549.233 459.263 549.233L456.415 549.233C456.253 549.233 456.097 549.168 455.982 549.054C455.867 548.939 455.803 548.784 455.803 548.621V544.854C455.807 542.463 457.747 540.526 460.138 540.526C460.948 540.526 461.149 540.632 461.702 540.632C462.863 540.632 463.641 539.853 463.641 538.783C463.64 537.897 462.881 537.135 461.952 536.892Z" fill="white"/>
<path d="M181.532 197.089C179.923 196.028 177.947 195.395 175.823 195.395C175.579 195.395 175.337 195.403 175.099 195.419L175.13 195.416C173.959 195.419 172.815 195.524 171.702 195.718L171.823 195.7C171.206 192.138 169.132 189.151 166.252 187.324L166.202 187.295L165.076 186.644L164.336 187.715C163.454 189.059 162.764 190.623 162.352 192.295L162.331 192.398C162.097 193.248 161.963 194.225 161.963 195.233C161.963 197.414 162.593 199.446 163.68 201.16L163.654 201.115C161.981 201.9 160.028 202.396 157.973 202.491H157.939H106.15C104.796 202.493 103.699 203.588 103.693 204.94C103.691 205.087 103.691 205.263 103.691 205.439C103.691 210.035 104.523 214.437 106.045 218.503L105.961 218.246C107.426 222.533 110.193 226.055 113.784 228.434L113.857 228.478C118.435 230.849 123.853 232.237 129.594 232.237C130.138 232.237 130.676 232.224 131.214 232.201L131.138 232.203C131.185 232.203 131.24 232.203 131.295 232.203C134.634 232.203 137.897 231.886 141.06 231.279L140.737 231.332C145.449 230.45 149.649 228.867 153.455 226.678L153.261 226.78C156.561 224.851 159.38 222.525 161.779 219.818L161.811 219.782C165.289 215.687 168.119 210.907 170.066 205.699L170.174 205.37H170.899C171.043 205.376 171.211 205.381 171.379 205.381C174.597 205.381 177.521 204.118 179.682 202.06L179.677 202.066C180.666 201.126 181.451 199.984 181.968 198.703L181.992 198.64L182.312 197.698L181.532 197.089ZM110.949 200.979H117.895C118.228 200.976 118.498 200.706 118.498 200.372V194.191C118.498 193.857 118.228 193.584 117.895 193.582H110.949C110.615 193.584 110.345 193.855 110.345 194.188V200.372C110.345 200.706 110.615 200.979 110.949 200.979ZM120.514 200.979H127.455C127.788 200.979 128.061 200.708 128.061 200.372V194.191C128.061 193.857 127.791 193.584 127.457 193.582H120.512C120.176 193.582 119.903 193.855 119.903 194.191V200.372C119.905 200.708 120.178 200.979 120.514 200.979ZM130.222 200.979H137.167C137.501 200.976 137.771 200.706 137.771 200.372V194.191C137.771 193.857 137.501 193.584 137.167 193.582H130.222C129.888 193.584 129.618 193.855 129.618 194.188V200.372C129.618 200.706 129.888 200.979 130.224 200.979H130.222ZM139.819 200.979H146.756C147.092 200.979 147.363 200.708 147.365 200.372V194.191C147.365 193.855 147.092 193.582 146.756 193.582H139.819C139.485 193.582 139.212 193.852 139.212 194.188V200.372C139.212 200.706 139.483 200.979 139.816 200.979C139.816 200.979 139.816 200.979 139.819 200.979ZM120.514 192.085H127.455C127.791 192.083 128.061 191.812 128.061 191.476V185.294C128.061 184.961 127.791 184.688 127.455 184.688H120.514C120.178 184.688 119.908 184.958 119.905 185.294V191.476C119.908 191.812 120.178 192.083 120.514 192.085ZM130.222 192.085H137.167C137.501 192.083 137.771 191.81 137.771 191.476V185.294C137.771 184.961 137.501 184.688 137.165 184.688H130.227C129.893 184.688 129.62 184.958 129.62 185.294V191.476C129.623 191.812 129.891 192.083 130.227 192.085H130.222ZM139.819 192.085H146.756C147.092 192.083 147.363 191.812 147.365 191.476V185.294C147.363 184.958 147.092 184.688 146.756 184.688H139.819C139.485 184.688 139.212 184.958 139.212 185.294V191.476C139.212 191.812 139.483 192.083 139.819 192.085ZM139.819 183.192H146.756C147.092 183.192 147.365 182.919 147.365 182.583V176.398C147.363 176.062 147.092 175.792 146.756 175.792H139.819C139.485 175.792 139.212 176.062 139.212 176.398V182.583C139.212 182.916 139.483 183.189 139.816 183.189C139.816 183.189 139.816 183.189 139.819 183.189V183.192ZM149.497 200.979H156.437C156.773 200.979 157.044 200.708 157.046 200.372V194.191C157.046 193.855 156.773 193.582 156.437 193.582H149.497C149.161 193.582 148.891 193.852 148.891 194.188V200.372C148.891 200.706 149.161 200.979 149.497 200.979Z" fill="#388EFF"/>
<g clip-path="url(#clip0_352_11080)">
<path d="M553.5 248.167C547.686 248.167 542.688 249.736 538.765 253.099C534.869 256.437 532.321 261.298 530.908 267.356C530.599 268.678 531.272 270.033 532.512 270.587C533.751 271.14 535.21 270.737 535.988 269.625C537.782 267.061 539.574 265.521 541.295 264.731C542.962 263.965 544.759 263.81 546.817 264.362C548.894 264.918 550.502 266.547 553.026 269.293L553.108 269.381C555.011 271.451 557.332 273.976 560.507 275.935C563.801 277.967 567.901 279.333 573.334 279.333C579.147 279.333 584.146 277.764 588.069 274.401C591.964 271.062 594.512 266.202 595.926 260.144C596.235 258.821 595.562 257.466 594.322 256.913C593.083 256.359 591.624 256.763 590.846 257.875C589.051 260.438 587.26 261.978 585.539 262.769C583.872 263.534 582.075 263.689 580.017 263.138C577.94 262.582 576.331 260.952 573.808 258.207L573.726 258.118C571.823 256.048 569.502 253.524 566.327 251.565C563.033 249.532 558.933 248.167 553.5 248.167Z" fill="#263238"/>
<path d="M533.667 273.667C527.853 273.667 522.855 275.236 518.931 278.599C515.036 281.937 512.488 286.798 511.074 292.856C510.766 294.178 511.439 295.533 512.678 296.087C513.918 296.64 515.376 296.237 516.155 295.125C517.949 292.561 519.74 291.021 521.462 290.231C523.129 289.465 524.926 289.31 526.984 289.862C529.061 290.418 530.669 292.048 533.193 294.793L533.275 294.881C535.177 296.951 537.499 299.476 540.673 301.435C543.968 303.468 548.067 304.833 553.5 304.833C559.314 304.833 564.312 303.264 568.236 299.901C572.131 296.562 574.679 291.702 576.093 285.644C576.401 284.321 575.729 282.966 574.489 282.413C573.249 281.859 571.791 282.263 571.012 283.375C569.218 285.938 567.427 287.478 565.705 288.269C564.039 289.034 562.242 289.189 560.183 288.638C558.106 288.082 556.499 286.452 553.974 283.707L553.893 283.618C551.99 281.548 549.669 279.024 546.494 277.065C543.2 275.032 539.1 273.667 533.667 273.667Z" fill="#263238"/>
</g>
<defs>
<clipPath id="clip0_352_11080">
<rect width="85" height="85" fill="white" transform="translate(511 234)"/>
</clipPath>
</defs>
</svg>
