<svg width="458" height="428" viewBox="0 0 458 428" fill="none" xmlns="http://www.w3.org/2000/svg">
<path d="M24.7932 239.303C24.7932 239.303 26.7113 242.925 25.0074 246.333C23.3035 249.741 21.1712 253.149 22.4468 254.853C23.7225 256.557 27.5587 258.689 27.1024 262.302C26.6462 265.914 21.5716 273.158 24.7653 277.199C27.959 281.24 33.285 281.036 33.4992 285.505C33.7133 289.974 28.3873 293.606 29.8771 297.609C31.3669 301.613 40.1194 302.507 40.1194 305.282C40.1194 308.057 36.7115 311.036 39.4769 314.016C42.2423 316.995 55.6504 324.779 57.5592 321.576C59.468 318.373 63.3321 309.537 60.7995 296.995C60.3711 294.881 57.373 294.416 56.9446 291.408C56.5163 288.401 57.8013 283.103 55.669 280.114C53.5368 277.125 46.7676 276.157 46.302 273.81C45.8364 271.464 48.8626 265.719 45.883 262.097C42.9034 258.475 35.8642 256.771 35.8642 254.443C35.8642 252.115 37.9965 249.117 35.0169 245.923C32.0373 242.729 24.7932 239.303 24.7932 239.303Z" fill="#60EB9F"/>
<path d="M56.0787 320.832C57.4372 325.04 58.4767 329.344 59.1887 333.709C60.8926 344.361 61.8144 415.647 61.8144 415.647" stroke="#263238" stroke-width="2" stroke-linecap="round" stroke-linejoin="round"/>
<path d="M34.9889 264.406C39.4303 277.795 47.1958 295.934 50.3523 304.695C52.4939 310.654 54.4864 315.682 56.1159 320.832" stroke="#263238" stroke-width="2" stroke-linecap="round" stroke-linejoin="round"/>
<path d="M25.8547 240.579C25.8547 240.579 29.4768 243.567 32.6705 256.557C32.8753 257.395 33.1174 258.279 33.3781 259.21" stroke="#263238" stroke-width="2" stroke-linecap="round" stroke-linejoin="round"/>
<path d="M91.3772 263.568C90.943 264.438 90.7023 265.393 90.6718 266.365C90.6413 267.338 90.8215 268.305 91.2003 269.201C92.569 271.929 94.273 274.648 93.2487 276.017C92.2245 277.386 89.1611 279.08 89.5243 281.985C89.8874 284.89 93.9564 290.673 91.3865 293.913C88.8166 297.153 84.5614 296.986 84.3938 300.561C84.2262 304.137 88.4907 307.079 87.2896 310.282C86.0885 313.485 79.1144 314.202 79.1144 316.418C79.1144 318.634 81.8426 321.018 79.6265 323.411C77.4105 325.804 66.684 332.023 65.1477 329.463C63.6113 326.902 60.4921 319.826 62.5592 309.788C62.9037 308.103 65.3525 307.721 65.6412 305.338C65.9298 302.954 64.9615 298.69 66.6654 296.306C68.3694 293.922 73.8257 293.066 74.1702 291.185C74.5147 289.304 72.1217 284.714 74.5054 281.808C76.8891 278.903 82.5223 277.553 82.5223 275.672C82.5223 273.792 80.8184 271.417 83.202 268.857C85.5857 266.296 91.3772 263.568 91.3772 263.568Z" fill="#60EB9F"/>
<path d="M66.7306 327.517C65.4381 331.316 64.4633 335.215 63.8162 339.175C62.4568 347.694 61.7119 404.781 61.7119 404.781" stroke="#263238" stroke-width="2" stroke-linecap="round" stroke-linejoin="round"/>
<path d="M83.2114 283.661C79.6639 294.379 73.4441 308.895 70.9207 315.906C69.3844 320.17 67.9505 323.839 66.7307 327.517" stroke="#263238" stroke-width="2" stroke-linecap="round" stroke-linejoin="round"/>
<path d="M90.5298 264.592C90.5298 264.592 87.634 266.985 85.0734 277.377C84.9151 278.047 84.7196 278.755 84.5148 279.499" stroke="#263238" stroke-width="2" stroke-linecap="round" stroke-linejoin="round"/>
<path d="M32.8007 311.837C33.1645 312.563 33.3655 313.36 33.3896 314.173C33.4137 314.985 33.2604 315.792 32.9404 316.539C31.8044 318.82 30.3798 321.101 31.2365 322.237C32.0931 323.373 34.6537 324.798 34.365 327.219C34.0764 329.64 30.6405 334.482 32.8007 337.191C34.9609 339.901 38.4992 339.752 38.6388 342.778C38.7785 345.804 35.2216 348.188 36.2179 350.897C37.2142 353.607 43.0523 354.165 43.0523 356.018C43.0523 357.871 40.7804 359.864 42.6333 361.856C44.4862 363.849 53.4435 369.054 54.7378 366.922C56.032 364.789 58.6019 358.868 56.9073 350.478C56.6187 349.072 54.6074 348.756 54.3281 346.754C54.0488 344.752 54.8961 341.167 53.4715 339.202C52.0469 337.238 47.4937 336.502 47.2051 334.929C46.9164 333.355 48.9183 329.519 46.9164 327.098C44.9145 324.677 40.231 323.541 40.231 321.967C40.231 320.394 41.6556 318.411 39.6537 316.278C37.6518 314.146 32.8007 311.837 32.8007 311.837Z" fill="#60EB9F"/>
<path d="M53.1736 364.743C54.3375 368.075 55.2098 371.502 55.7807 374.985C56.9167 382.099 57.5405 408.505 57.5405 408.505" stroke="#263238" stroke-width="2" stroke-linecap="round" stroke-linejoin="round"/>
<path d="M39.5793 328.625C42.5403 337.573 47.7359 349.705 49.8216 355.562C51.0321 358.923 52.1587 361.847 53.1457 364.743" stroke="#263238" stroke-width="2" stroke-linecap="round" stroke-linejoin="round"/>
<path d="M33.4712 312.694C33.4712 312.694 35.8921 314.686 38.0243 323.373C38.164 323.932 38.3223 324.528 38.4992 325.152" stroke="#263238" stroke-width="2" stroke-linecap="round" stroke-linejoin="round"/>
<path d="M106.117 308.289C105.597 308.913 105.219 309.643 105.01 310.428C104.801 311.212 104.766 312.033 104.906 312.833C105.493 315.319 106.359 317.861 105.26 318.774C104.161 319.686 101.349 320.487 101.07 322.908C100.791 325.329 103.016 330.822 100.316 332.973C97.6157 335.124 94.1799 334.165 93.3605 337.042C92.5411 339.919 95.4462 343.094 93.8633 345.497C92.2804 347.899 86.4144 347.126 86.0326 348.923C85.6509 350.72 87.3734 353.188 85.1015 354.705C82.8296 356.223 72.9411 359.24 72.1869 356.866C71.4327 354.491 70.2688 348.15 73.835 340.366C74.4402 339.063 76.4607 339.212 77.1963 337.34C77.9319 335.469 77.9133 331.8 79.7569 330.189C81.6005 328.578 86.2002 328.923 86.8334 327.461C87.4665 325.999 86.4051 321.8 88.9004 319.9C91.3958 318.001 96.2376 317.964 96.5915 316.446C96.9453 314.928 96.0235 312.647 98.4537 311.027C100.884 309.407 106.117 308.289 106.117 308.289Z" fill="#60EB9F"/>
<path d="M73.3601 355.255C71.2781 357.956 69.8733 361.117 69.2632 364.473C68.118 371.596 67.5034 397.993 67.5034 397.993" stroke="#263238" stroke-width="2" stroke-linecap="round" stroke-linejoin="round"/>
<path d="M95.6417 323.066C90.6975 331.111 82.8668 341.688 79.4775 346.949C77.457 350.05 75.2316 352.61 73.3601 355.255" stroke="#263238" stroke-width="2" stroke-linecap="round" stroke-linejoin="round"/>
<path d="M105.232 308.96C105.232 308.96 102.439 310.347 98.3514 318.317C98.0907 318.83 97.7927 319.37 97.4855 319.938" stroke="#263238" stroke-width="2" stroke-linecap="round" stroke-linejoin="round"/>
<path d="M55.5292 423.72H71.3581C79.7382 419.418 85.6135 408.543 85.6135 395.786C85.6135 387.406 83.0622 379.855 78.956 374.436H47.9313C43.8251 379.855 41.2738 387.425 41.2738 395.786C41.2738 408.543 47.1957 419.418 55.5292 423.72Z" fill="white" stroke="#263238" stroke-width="2" stroke-linecap="round" stroke-linejoin="round"/>
<path d="M41.572 393.514C41.572 393.514 57.103 374.557 58.7883 381.075C61.2837 390.73 45.5479 404.567 52.3823 403.71C59.2167 402.853 81.4237 381.931 76.7309 393.03C72.0381 404.129 59.645 413.962 67.7643 412.733C75.8836 411.504 81.0047 398.207 81.0047 405.898C81.0047 413.589 78.8446 417.072 78.8446 417.072" stroke="#263238" stroke-width="2" stroke-linecap="round" stroke-linejoin="round"/>
<path d="M46.4044 413.533C46.4044 413.533 63.9187 406.699 59.6449 411.83C55.3711 416.96 54.5144 420.796 57.5126 420.796C60.5108 420.796 67.3359 416.951 66.4793 419.94C65.6226 422.928 64.617 423.571 64.617 423.571" stroke="#263238" stroke-width="2" stroke-linecap="round" stroke-linejoin="round"/>
<path d="M66.4792 374.668C66.4792 374.668 60.0731 385.348 64.766 384.492C69.4588 383.635 78.863 375.097 78.0064 380.646C77.1498 386.196 79.2914 388.337 83.1369 384.063" stroke="#263238" stroke-width="2" stroke-linecap="round" stroke-linejoin="round"/>
<path d="M71.6562 423.72H55.5293V426.085H71.6562V423.72Z" fill="white" stroke="#263238" stroke-width="2" stroke-linecap="round" stroke-linejoin="round"/>
<path d="M305.99 44.3741H240.263L237.525 49.4486C236.046 52.1013 233.885 54.3109 231.266 55.8491C228.647 57.3872 225.665 58.1982 222.627 58.1982C219.59 58.1982 216.608 57.3872 213.989 55.8491C211.37 54.3109 209.209 52.1013 207.729 49.4486L205.001 44.3741H139.264C135.941 44.3318 132.737 45.6103 130.356 47.9288C127.974 50.2472 126.611 53.4161 126.564 56.7393V395.246C126.608 398.571 127.971 401.742 130.352 404.063C132.734 406.383 135.94 407.663 139.264 407.621H305.99C309.309 407.655 312.507 406.372 314.881 404.052C317.255 401.732 318.611 398.565 318.653 395.246V56.7393C318.609 53.4218 317.251 50.2572 314.877 47.9393C312.504 45.6214 309.308 44.3393 305.99 44.3741Z" fill="white"/>
<path d="M313.727 64.812H132.84V401.68H313.727V64.812Z" fill="#60EB9F"/>
<path d="M308.038 92.4104H206.556V164.404H308.038V92.4104Z" fill="white" stroke="#999999" stroke-width="2" stroke-miterlimit="10"/>
<path d="M269.211 106.079H211.603V115.232H269.211V106.079Z" fill="#E8E8E8"/>
<path d="M269.211 127.085H211.603V136.238H269.211V127.085Z" fill="#E8E8E8"/>
<path d="M216.352 152.84H212.283V156.909H216.352V152.84Z" fill="white" stroke="#999999" stroke-width="2" stroke-miterlimit="10"/>
<path d="M219.396 155.549H269.211" stroke="#999999" stroke-width="2" stroke-miterlimit="10"/>
<path d="M216.352 145.046H212.283V149.115H216.352V145.046Z" fill="white" stroke="#999999" stroke-width="2" stroke-miterlimit="10"/>
<path d="M219.396 147.411H252.944" stroke="#999999" stroke-width="2" stroke-miterlimit="10"/>
<path d="M213.149 146.592L214.052 147.644L215.402 146.145" stroke="#60EB9F" stroke-width="2" stroke-miterlimit="10"/>
<path d="M213.763 100.437L212.655 97.0847H213.26L214.08 99.6639L214.908 97.0847H215.467L214.368 100.437V102.299H213.791L213.763 100.437Z" fill="#263238"/>
<path d="M215.728 98.3415C215.728 97.5314 216.119 97.0193 216.929 97.0193C217.739 97.0193 218.13 97.5314 218.13 98.3415V101.051C218.13 101.852 217.739 102.373 216.929 102.373C216.119 102.373 215.728 101.852 215.728 101.051V98.3415ZM216.305 101.135C216.305 101.61 216.51 101.889 216.929 101.889C217.348 101.889 217.553 101.61 217.553 101.135V98.3415C217.553 97.8759 217.357 97.5873 216.929 97.5873C216.5 97.5873 216.305 97.8759 216.305 98.3415V101.135Z" fill="#263238"/>
<path d="M219.247 101.089C219.247 101.554 219.434 101.843 219.862 101.843C220.29 101.843 220.467 101.554 220.467 101.089V97.0847H221.016V101.061C221.016 101.861 220.644 102.392 219.834 102.392C219.024 102.392 218.67 101.861 218.67 101.061V97.0847H219.247V101.089Z" fill="#263238"/>
<path d="M222.748 97.0847C223.568 97.0847 223.912 97.5037 223.912 98.2765V98.7049C223.912 99.2821 223.717 99.636 223.261 99.785C223.745 99.9339 223.922 100.325 223.922 100.884V101.74C223.905 101.957 223.943 102.175 224.033 102.373H223.437C223.355 102.17 223.319 101.95 223.335 101.731V100.902C223.335 100.316 223.065 100.129 222.571 100.129H222.162V102.373H221.575V97.0847H222.748ZM222.599 99.5522C223.065 99.5522 223.335 99.4032 223.335 98.8352V98.3324C223.335 97.8575 223.167 97.6155 222.73 97.6155H222.162V99.5522H222.599Z" fill="#263238"/>
<path d="M226.305 101.265L226.1 102.327H225.542L226.566 97.0847H227.404L228.409 102.336H227.832L227.627 101.275L226.305 101.265ZM226.38 100.763H227.553L226.957 97.7272L226.38 100.763Z" fill="#263238"/>
<path d="M231.194 98.3417V98.8072H230.635V98.3044C230.635 97.8389 230.449 97.5502 230.02 97.5502C229.592 97.5502 229.406 97.8389 229.406 98.3044V101.098C229.406 101.563 229.601 101.852 230.02 101.852C230.439 101.852 230.635 101.563 230.635 101.098V100.409H231.194V101.061C231.194 101.861 230.821 102.383 230.011 102.383C229.201 102.383 228.828 101.861 228.828 101.061V98.351C228.828 97.5502 229.201 97.0288 230.011 97.0288C230.821 97.0288 231.194 97.5409 231.194 98.3417Z" fill="#263238"/>
<path d="M234.043 98.3417V98.8072H233.493V98.3044C233.493 97.8389 233.298 97.5502 232.87 97.5502C232.441 97.5502 232.255 97.8389 232.255 98.3044V101.098C232.255 101.563 232.451 101.852 232.87 101.852C233.289 101.852 233.493 101.563 233.493 101.098V100.409H234.043V101.061C234.043 101.861 233.67 102.383 232.86 102.383C232.05 102.383 231.678 101.861 231.678 101.061V98.351C231.678 97.5502 232.059 97.0288 232.86 97.0288C233.661 97.0288 234.043 97.5409 234.043 98.3417Z" fill="#263238"/>
<path d="M234.536 98.3415C234.536 97.5314 234.927 97.0193 235.737 97.0193C236.547 97.0193 236.938 97.5314 236.938 98.3415V101.051C236.938 101.852 236.547 102.373 235.737 102.373C234.927 102.373 234.536 101.852 234.536 101.051V98.3415ZM235.113 101.135C235.113 101.61 235.318 101.889 235.737 101.889C236.156 101.889 236.352 101.61 236.352 101.135V98.3415C236.352 97.8759 236.166 97.5873 235.737 97.5873C235.309 97.5873 235.113 97.8759 235.113 98.3415V101.135Z" fill="#263238"/>
<path d="M238.056 101.089C238.056 101.554 238.242 101.843 238.67 101.843C239.099 101.843 239.276 101.554 239.276 101.089V97.0847H239.825V101.061C239.825 101.861 239.452 102.392 238.642 102.392C237.832 102.392 237.479 101.861 237.479 101.061V97.0847H238.056V101.089Z" fill="#263238"/>
<path d="M240.924 102.327H240.439V97.0847H241.184L242.395 100.874V97.0847H242.916V102.336H242.302L240.961 98.081L240.924 102.327Z" fill="#263238"/>
<path d="M244.229 102.327V97.6061H243.298V97.0847H245.812V97.6155H244.881V102.336L244.229 102.327Z" fill="#263238"/>
<path d="M213.763 123.528L212.655 120.158H213.26L214.08 122.737L214.908 120.158H215.467L214.368 123.528V125.391H213.791L213.763 123.528Z" fill="#263238"/>
<path d="M215.728 121.424C215.728 120.623 216.119 120.102 216.929 120.102C217.739 120.102 218.13 120.623 218.13 121.424V124.143C218.13 124.934 217.739 125.455 216.929 125.455C216.119 125.455 215.728 124.934 215.728 124.143V121.424ZM216.305 124.217C216.305 124.692 216.51 124.971 216.929 124.971C217.348 124.971 217.553 124.692 217.553 124.217V121.424C217.553 120.949 217.357 120.66 216.929 120.66C216.5 120.66 216.305 120.949 216.305 121.424V124.217Z" fill="#263238"/>
<path d="M219.247 124.171C219.247 124.646 219.434 124.925 219.862 124.925C220.29 124.925 220.467 124.646 220.467 124.171V120.158H221.016V124.143C221.016 124.934 220.644 125.465 219.834 125.465C219.024 125.465 218.67 124.934 218.67 124.143V120.158H219.247V124.171Z" fill="#263238"/>
<path d="M222.748 120.158C223.568 120.158 223.912 120.577 223.912 121.359V121.787C223.912 122.364 223.717 122.718 223.261 122.867C223.745 123.007 223.922 123.398 223.922 123.957V124.776C223.905 124.993 223.943 125.211 224.033 125.409H223.437C223.354 125.206 223.318 124.986 223.335 124.767V123.947C223.335 123.351 223.065 123.165 222.571 123.165H222.162V125.409H221.575V120.158H222.748ZM222.599 122.634C223.065 122.634 223.335 122.486 223.335 121.908V121.405C223.335 120.94 223.167 120.688 222.73 120.688H222.162V122.634H222.599Z" fill="#263238"/>
<path d="M227.581 122.486V123.007H226.296V124.869H227.879V125.4H225.719V120.148H227.879V120.679H226.296V122.476L227.581 122.486Z" fill="#263238"/>
<path d="M230.355 125.4H229.787L228.922 121.219V125.409H228.409V120.158H229.266L230.123 124.348L230.961 120.158H231.78V125.409H231.221V121.182L230.355 125.4Z" fill="#263238"/>
<path d="M232.935 124.348L232.73 125.409H232.19L233.195 120.158H234.043L235.048 125.409H234.462L234.266 124.348H232.935ZM233.009 123.845H234.182L233.586 120.819L233.009 123.845Z" fill="#263238"/>
<path d="M236.091 120.158V125.409H235.505V120.158H236.091Z" fill="#263238"/>
<path d="M236.715 125.409V120.158H237.302V124.878H238.801V125.409H236.715Z" fill="#263238"/>
<path d="M308.038 256.976H206.556V347.992H308.038V256.976Z" fill="white" stroke="#999999" stroke-width="2" stroke-miterlimit="10"/>
<path d="M245.849 365.357H214.136C212.737 365.357 211.603 366.491 211.603 367.89V375.357C211.603 376.756 212.737 377.89 214.136 377.89H245.849C247.248 377.89 248.382 376.756 248.382 375.357V367.89C248.382 366.491 247.248 365.357 245.849 365.357Z" fill="#E8E8E8"/>
<path d="M294.835 365.357H263.121C261.723 365.357 260.589 366.491 260.589 367.89V375.357C260.589 376.756 261.723 377.89 263.121 377.89H294.835C296.234 377.89 297.368 376.756 297.368 375.357V367.89C297.368 366.491 296.234 365.357 294.835 365.357Z" fill="#263238"/>
<path d="M274.686 369.771V369.948H273.96V369.734C273.96 369.138 273.736 368.802 273.215 368.802C272.693 368.802 272.47 369.147 272.47 369.734C272.47 371.195 274.658 371.335 274.658 373.179C274.658 374.166 274.183 374.808 273.187 374.808C272.191 374.808 271.716 374.166 271.716 373.179V372.806H272.405V373.216C272.405 373.803 272.647 374.147 273.168 374.147C273.69 374.147 273.932 373.803 273.932 373.216C273.932 371.754 271.753 371.614 271.753 369.78C271.753 368.765 272.218 368.141 273.196 368.141C274.174 368.141 274.686 368.775 274.686 369.771Z" fill="white"/>
<path d="M276.064 373.421L275.813 374.734H275.142L276.399 368.216H277.451L278.699 374.734H277.973L277.721 373.421H276.064ZM276.157 372.797H277.619L276.883 369.017L276.157 372.797Z" fill="white"/>
<path d="M279.546 368.197L280.617 373.886L281.669 368.197H282.34L281.12 374.715H280.04L278.811 368.197H279.546Z" fill="white"/>
<path d="M285.263 371.093V371.745H283.662V374.073H285.627V374.734H282.936V368.216H285.627V368.877H283.662V371.112L285.263 371.093Z" fill="white"/>
<path d="M222.99 369.78V370.367H222.301V369.743C222.301 369.147 222.069 368.812 221.529 368.812C220.989 368.812 220.765 369.166 220.765 369.743V373.198C220.765 373.784 221.007 374.129 221.529 374.129C222.05 374.129 222.301 373.775 222.301 373.198V372.341H222.99V373.16C222.99 374.147 222.525 374.799 221.519 374.799C220.514 374.799 220.048 374.147 220.048 373.16V369.78C220.048 368.784 220.514 368.132 221.519 368.132C222.525 368.132 222.99 368.784 222.99 369.78Z" fill="#263238"/>
<path d="M224.387 373.421L224.136 374.734H223.465L224.713 368.216H225.774L227.022 374.734H226.296L226.044 373.421H224.387ZM224.48 372.797H225.942L225.197 369.017L224.48 372.797Z" fill="#263238"/>
<path d="M228.233 374.734H227.581V368.216H228.512L230.03 372.946V368.216H230.672V374.734H229.918L228.242 369.454L228.233 374.734Z" fill="#263238"/>
<path d="M234.294 369.78V370.367H233.596V369.743C233.596 369.147 233.363 368.812 232.832 368.812C232.302 368.812 232.069 369.166 232.069 369.743V373.198C232.069 373.784 232.311 374.129 232.832 374.129C233.354 374.129 233.596 373.775 233.596 373.198V372.341H234.294V373.16C234.294 374.147 233.829 374.799 232.814 374.799C231.799 374.799 231.352 374.147 231.352 373.16V369.78C231.352 368.784 231.817 368.132 232.814 368.132C233.81 368.132 234.294 368.784 234.294 369.78Z" fill="#263238"/>
<path d="M237.274 371.093V371.745H235.682V374.073H237.646V374.734H234.965V368.216H237.646V368.877H235.691V371.112L237.274 371.093Z" fill="#263238"/>
<path d="M238.307 374.734V368.216H239.043V374.091H240.905V374.752L238.307 374.734Z" fill="#263238"/>
<path d="M211.948 271.64H280.729" stroke="#999999" stroke-width="2" stroke-miterlimit="10"/>
<path d="M211.948 332.843H280.729" stroke="#999999" stroke-width="2" stroke-miterlimit="10"/>
<path d="M210.932 327.563H304.109" stroke="#999999" stroke-width="2" stroke-miterlimit="10"/>
<path d="M216.352 281.119H212.283V285.188H216.352V281.119Z" fill="white" stroke="#999999" stroke-width="2" stroke-miterlimit="10"/>
<path d="M219.396 283.494H252.944" stroke="#999999" stroke-width="2" stroke-miterlimit="10"/>
<path d="M213.149 282.675L214.052 283.717L215.402 282.218" stroke="#60EB9F" stroke-width="2" stroke-miterlimit="10"/>
<path d="M216.352 292.367H212.283V296.436H216.352V292.367Z" fill="white" stroke="#999999" stroke-width="2" stroke-miterlimit="10"/>
<path d="M219.396 294.742H265.868" stroke="#999999" stroke-width="2" stroke-miterlimit="10"/>
<path d="M216.352 303.615H212.283V307.684H216.352V303.615Z" fill="white" stroke="#999999" stroke-width="2" stroke-miterlimit="10"/>
<path d="M219.396 305.98H252.944" stroke="#999999" stroke-width="2" stroke-miterlimit="10"/>
<path d="M213.149 305.161L214.052 306.213L215.402 304.714" stroke="#60EB9F" stroke-width="2" stroke-miterlimit="10"/>
<path d="M216.352 314.863H212.283V318.932H216.352V314.863Z" fill="white" stroke="#999999" stroke-width="2" stroke-miterlimit="10"/>
<path d="M219.396 317.228H271.529" stroke="#999999" stroke-width="2" stroke-miterlimit="10"/>
<path d="M214.07 263.149C214.88 263.149 215.262 263.642 215.262 264.452V267.097C215.262 267.907 214.88 268.4 214.07 268.4H212.841V263.149H214.07ZM214.07 267.86C214.489 267.86 214.694 267.6 214.694 267.125V264.425C214.694 263.94 214.489 263.68 214.061 263.68H213.437V267.86H214.07Z" fill="#263238"/>
<path d="M217.674 265.467V265.998H216.398V267.86H217.972V268.409H215.811V263.158H217.972V263.689H216.398V265.476L217.674 265.467Z" fill="#263238"/>
<path d="M218.512 268.409V263.158H219.098V267.869H220.597V268.409H218.512Z" fill="#263238"/>
<path d="M222.907 265.467V265.998H221.622V267.86H223.195V268.409H221.035V263.158H223.195V263.689H221.622V265.476L222.907 265.467Z" fill="#263238"/>
<path d="M224.499 268.409V263.689H223.568V263.158H226.082V263.689H225.151V268.409H224.499Z" fill="#263238"/>
<path d="M228.335 265.467V265.998H227.031V267.86H228.605V268.409H226.473V263.158H228.633V263.689H227.031V265.476L228.335 265.467Z" fill="#263238"/>
<path d="M230.905 267.339L230.7 268.4H230.197L231.203 263.149H232.059L232.991 268.41H232.404L232.199 267.348L230.905 267.339ZM230.97 266.836H232.143L231.557 263.81L230.97 266.836Z" fill="#263238"/>
<path d="M235.784 264.415V264.89H235.235V264.387C235.235 263.912 235.039 263.624 234.611 263.624C234.182 263.624 233.996 263.912 233.996 264.387V267.181C233.996 267.655 234.192 267.935 234.611 267.935C235.03 267.935 235.235 267.655 235.235 267.181V266.492H235.784V267.153C235.784 267.944 235.411 268.465 234.601 268.465C233.791 268.465 233.419 267.944 233.419 267.153V264.434C233.419 263.633 233.801 263.112 234.601 263.112C235.402 263.112 235.784 263.614 235.784 264.415Z" fill="#263238"/>
<path d="M238.633 264.415V264.89H238.084V264.387C238.084 263.912 237.897 263.624 237.469 263.624C237.041 263.624 236.855 263.912 236.855 264.387V267.181C236.855 267.655 237.05 267.935 237.469 267.935C237.888 267.935 238.084 267.655 238.084 267.181V266.492H238.633V267.153C238.633 267.944 238.261 268.465 237.451 268.465C236.64 268.465 236.277 267.944 236.277 267.153V264.434C236.277 263.633 236.65 263.112 237.451 263.112C238.251 263.112 238.633 263.614 238.633 264.415Z" fill="#263238"/>
<path d="M239.127 264.415C239.127 263.614 239.527 263.093 240.328 263.093C241.129 263.093 241.529 263.614 241.529 264.415V267.134C241.529 267.926 241.138 268.447 240.328 268.447C240.158 268.457 239.987 268.429 239.829 268.365C239.671 268.301 239.529 268.203 239.414 268.077C239.299 267.951 239.214 267.801 239.164 267.638C239.114 267.475 239.101 267.303 239.127 267.134V264.415ZM239.704 267.209C239.704 267.683 239.909 267.963 240.328 267.963C240.747 267.963 240.952 267.683 240.952 267.209V264.415C240.952 263.94 240.756 263.652 240.328 263.652C239.899 263.652 239.704 263.94 239.704 264.415V267.209Z" fill="#263238"/>
<path d="M242.646 267.162C242.646 267.637 242.832 267.916 243.261 267.916C243.689 267.916 243.866 267.637 243.866 267.162V263.149H244.415V267.134C244.415 267.926 244.043 268.456 243.233 268.456C242.423 268.456 242.069 267.926 242.069 267.134V263.149H242.646V267.162Z" fill="#263238"/>
<path d="M245.514 268.409H244.983V263.158H245.728L246.948 266.948V263.158H247.46V268.409H246.855L245.514 264.164V268.409Z" fill="#263238"/>
<path d="M248.82 268.409V263.689H247.888V263.158H250.402V263.689H249.471V268.409H248.82Z" fill="#263238"/>
<path d="M211.948 337.461H280.729" stroke="#999999" stroke-width="2" stroke-miterlimit="10"/>
<path d="M308.038 174.693H206.556V246.687H308.038V174.693Z" fill="white" stroke="#999999" stroke-width="2" stroke-miterlimit="10"/>
<path d="M218.726 205.019C220.505 205.019 221.948 203.577 221.948 201.798C221.948 200.019 220.505 198.576 218.726 198.576C216.947 198.576 215.504 200.019 215.504 201.798C215.504 203.577 216.947 205.019 218.726 205.019Z" fill="#E8E8E8"/>
<path d="M247.013 201.798C247.015 202.436 246.827 203.06 246.474 203.591C246.121 204.122 245.618 204.537 245.029 204.782C244.44 205.027 243.791 205.091 243.165 204.967C242.539 204.843 241.965 204.536 241.513 204.085C241.062 203.634 240.755 203.059 240.631 202.433C240.507 201.808 240.572 201.159 240.817 200.57C241.062 199.981 241.476 199.478 242.007 199.125C242.539 198.771 243.163 198.584 243.801 198.585C244.652 198.588 245.468 198.927 246.07 199.529C246.671 200.131 247.011 200.947 247.013 201.798Z" fill="#60EB9F"/>
<path d="M211.948 226.025H280.729" stroke="#999999" stroke-width="2" stroke-miterlimit="10"/>
<path d="M211.948 230.429H280.729" stroke="#999999" stroke-width="2" stroke-miterlimit="10"/>
<path d="M211.948 234.834H280.729" stroke="#999999" stroke-width="2" stroke-miterlimit="10"/>
<path d="M211.948 239.247H280.729" stroke="#999999" stroke-width="2" stroke-miterlimit="10"/>
<path d="M304.109 189.097H210.588V211.118H304.109V189.097Z" stroke="#999999" stroke-width="2" stroke-miterlimit="10"/>
<path d="M224.145 202.31H236.007" stroke="#999999" stroke-width="2" stroke-miterlimit="10"/>
<path d="M250.57 202.31H274.295" stroke="#999999" stroke-width="2" stroke-miterlimit="10"/>
<path d="M210.932 221.621H304.109" stroke="#999999" stroke-width="2" stroke-miterlimit="10"/>
<path d="M214.703 181.723V182.244H213.437V184.107H215.02V184.61H212.86V179.395H215.02V179.954H213.437V181.751L214.703 181.723Z" fill="#263238"/>
<path d="M217.469 184.61H216.91L216.044 180.429V184.61H215.532V179.395H216.352L217.208 183.585L218.046 179.395H218.866V184.61H218.307V180.419L217.469 184.61Z" fill="#263238"/>
<path d="M220.057 183.585L219.853 184.647H219.312L220.318 179.395H221.165L222.171 184.647H221.584L221.38 183.585H220.057ZM220.132 183.082H221.305L220.709 180.056L220.132 183.082Z" fill="#263238"/>
<path d="M223.214 179.395V184.61H222.627V179.395H223.214Z" fill="#263238"/>
<path d="M223.819 184.61V179.395H224.396V184.116H225.905V184.61H223.819Z" fill="#263238"/>
<path d="M228.028 184.61H227.497V179.395H228.242L229.462 183.194V179.395H229.974V184.61H229.369L228.028 180.364V184.61Z" fill="#263238"/>
<path d="M230.532 180.662C230.532 179.861 230.933 179.339 231.733 179.339C232.534 179.339 232.944 179.861 232.944 180.662V183.38C232.969 183.55 232.956 183.724 232.906 183.888C232.856 184.052 232.769 184.203 232.653 184.33C232.538 184.456 232.395 184.556 232.236 184.62C232.076 184.685 231.905 184.713 231.733 184.703C230.933 184.703 230.532 184.172 230.532 183.38V180.662ZM231.11 183.455C231.11 183.939 231.314 184.209 231.733 184.209C232.152 184.209 232.357 183.939 232.357 183.455V180.662C232.357 180.187 232.162 179.907 231.733 179.907C231.305 179.907 231.11 180.187 231.11 180.662V183.455Z" fill="#263238"/>
<path d="M234.257 184.609V179.954H233.326V179.423H235.784V179.954H234.853V184.609H234.257Z" fill="#263238"/>
<path d="M236.78 179.395V184.61H236.203V179.395H236.78Z" fill="#263238"/>
<path d="M239.183 181.816V182.347H237.972V184.61H237.385V179.395H239.508V179.954H238.009V181.816H239.183Z" fill="#263238"/>
<path d="M240.523 179.395V184.61H239.937V179.395H240.523Z" fill="#263238"/>
<path d="M243.438 180.661V181.136H242.888V180.634C242.888 180.159 242.693 179.879 242.274 179.879C241.855 179.879 241.659 180.159 241.659 180.634V183.427C241.659 183.902 241.846 184.181 242.274 184.181C242.702 184.181 242.888 183.902 242.888 183.427V182.747H243.438V183.399C243.438 184.19 243.065 184.721 242.255 184.721C241.445 184.721 241.073 184.19 241.073 183.399V180.68C241.073 179.889 241.455 179.358 242.255 179.358C243.056 179.358 243.438 179.87 243.438 180.661Z" fill="#263238"/>
<path d="M244.564 183.585L244.359 184.647H243.819L244.825 179.395H245.672L246.678 184.61H246.101L245.896 183.548L244.564 183.585ZM244.639 183.082H245.812L245.216 180.056L244.639 183.082Z" fill="#263238"/>
<path d="M247.609 184.609V179.954H246.678V179.423H249.183V179.954H248.252V184.609H247.609Z" fill="#263238"/>
<path d="M250.142 179.395V184.61H249.555V179.395H250.142Z" fill="#263238"/>
<path d="M250.682 180.662C250.682 179.861 251.073 179.339 251.883 179.339C252.693 179.339 253.084 179.861 253.084 180.662V183.38C253.084 184.172 252.693 184.703 251.883 184.703C251.073 184.703 250.682 184.172 250.682 183.38V180.662ZM251.259 183.455C251.259 183.939 251.464 184.209 251.883 184.209C252.302 184.209 252.497 183.939 252.497 183.455V180.662C252.497 180.187 252.311 179.907 251.883 179.907C251.454 179.907 251.259 180.187 251.259 180.662V183.455Z" fill="#263238"/>
<path d="M254.183 184.61H253.652V179.395H254.397L255.617 183.194V179.395H256.129V184.61H255.524L254.183 180.364V184.61Z" fill="#263238"/>
<path d="M259.006 180.652V180.801H258.447V180.624C258.447 180.149 258.27 179.879 257.851 179.879C257.432 179.879 257.246 180.149 257.246 180.615C257.246 181.797 259.015 181.909 259.015 183.408C259.015 184.2 258.634 184.721 257.823 184.721C257.013 184.721 256.65 184.2 256.65 183.408V183.101H257.2V183.436C257.2 183.911 257.395 184.181 257.814 184.181C258.233 184.181 258.429 183.911 258.429 183.436C258.429 182.263 256.669 182.151 256.669 180.643C256.669 179.833 257.051 179.33 257.833 179.33C258.615 179.33 259.006 179.861 259.006 180.652Z" fill="#263238"/>
<path d="M159.107 162.058V162.262H158.427V162.048C158.427 161.462 158.203 161.117 157.682 161.117C157.161 161.117 156.937 161.462 156.937 162.048C156.937 163.51 159.116 163.65 159.116 165.475C159.116 166.462 158.65 167.104 157.654 167.104C156.658 167.104 156.192 166.462 156.192 165.475V165.056H156.872V165.456C156.872 166.043 157.114 166.387 157.635 166.387C158.157 166.387 158.399 166.043 158.399 165.456C158.399 164.013 156.22 163.873 156.22 162.039C156.22 161.033 156.686 160.409 157.663 160.409C158.641 160.409 159.107 161.071 159.107 162.058Z" fill="#263238"/>
<path d="M162.067 163.38V164.032H160.475V166.341H162.431V167.002H159.758V160.484H162.431V161.145H160.475V163.371L162.067 163.38Z" fill="#263238"/>
<path d="M164.088 167.002V161.154H162.887V160.493H165.95V161.154H164.749V167.002H164.088Z" fill="#263238"/>
<path d="M167.384 167.002V161.154H166.192V160.493H169.302V161.154H168.101V167.002H167.384Z" fill="#263238"/>
<path d="M170.522 160.493V167.011H169.796V160.493H170.522Z" fill="#263238"/>
<path d="M171.909 167.002H171.258V160.484H172.189L173.697 165.196V160.494H174.33V167.012H173.585L171.919 161.751L171.909 167.002Z" fill="#263238"/>
<path d="M177.943 162.067V162.626H177.254V162.03C177.254 161.443 177.021 161.099 176.49 161.099C175.96 161.099 175.727 161.452 175.727 162.03V165.466C175.727 166.052 175.969 166.397 176.49 166.397C177.012 166.397 177.254 166.043 177.254 165.466V164.171H176.583V163.52H177.943V165.428C177.943 166.415 177.477 167.067 176.472 167.067C175.466 167.067 175.019 166.415 175.019 165.428V162.067C175.019 161.08 175.475 160.428 176.472 160.428C177.468 160.428 177.943 161.08 177.943 162.067Z" fill="#263238"/>
<path d="M195.085 177.384H139.358V280.887H195.085V177.384Z" fill="white" stroke="#999999" stroke-width="2" stroke-miterlimit="10"/>
<path d="M143.306 184.423H168.846" stroke="#999999" stroke-width="2" stroke-miterlimit="10"/>
<path d="M143.306 199.73H168.846" stroke="#999999" stroke-width="2" stroke-miterlimit="10"/>
<path d="M143.306 215.038H179.433" stroke="#999999" stroke-width="2" stroke-miterlimit="10"/>
<path d="M143.306 230.346H168.846" stroke="#999999" stroke-width="2" stroke-miterlimit="10"/>
<path d="M143.306 245.653H162.924" stroke="#999999" stroke-width="2" stroke-miterlimit="10"/>
<path d="M143.306 260.961H168.846" stroke="#999999" stroke-width="2" stroke-miterlimit="10"/>
<path d="M143.306 274.527H177.254" stroke="#999999" stroke-width="2" stroke-miterlimit="10"/>
<path d="M139.907 192.31H194.554" stroke="#999999" stroke-width="2" stroke-miterlimit="10"/>
<path d="M139.907 207.245H194.554" stroke="#999999" stroke-width="2" stroke-miterlimit="10"/>
<path d="M139.907 222.171H194.554" stroke="#999999" stroke-width="2" stroke-miterlimit="10"/>
<path d="M139.907 237.096H194.554" stroke="#999999" stroke-width="2" stroke-miterlimit="10"/>
<path d="M139.907 252.031H194.554" stroke="#999999" stroke-width="2" stroke-miterlimit="10"/>
<path d="M139.907 266.958H194.554" stroke="#999999" stroke-width="2" stroke-miterlimit="10"/>
<path d="M153.995 163.874V161.08H151.862C151.724 160.601 151.521 160.144 151.257 159.721L152.794 158.185L150.838 156.229L149.255 157.803C148.841 157.576 148.4 157.401 147.943 157.281V155.028H145.149V157.281C144.692 157.401 144.251 157.576 143.836 157.803L142.263 156.229L140.307 158.185L141.844 159.721C141.577 160.144 141.371 160.601 141.229 161.08H139.134V163.874H141.173C141.284 164.397 141.476 164.899 141.741 165.363L140.335 166.769L142.291 168.725L143.65 167.365C144.123 167.659 144.638 167.879 145.177 168.017V169.879H147.97V168.017C148.51 167.879 149.025 167.659 149.497 167.365L150.866 168.725L152.822 166.769L151.416 165.363C151.673 164.896 151.865 164.394 151.984 163.874H153.995ZM146.546 166.127C145.86 166.129 145.189 165.927 144.618 165.547C144.047 165.167 143.602 164.626 143.338 163.993C143.075 163.36 143.006 162.663 143.139 161.99C143.272 161.317 143.602 160.699 144.087 160.214C144.572 159.729 145.19 159.399 145.863 159.266C146.536 159.132 147.233 159.202 147.866 159.465C148.5 159.728 149.041 160.174 149.42 160.745C149.8 161.316 150.002 161.987 150 162.673C149.998 163.585 149.636 164.459 148.992 165.106C148.349 165.753 147.477 166.12 146.564 166.127H146.546Z" fill="#263238"/>
<path d="M167.086 137.085C179.418 137.085 189.414 127.089 189.414 114.757C189.414 102.426 179.418 92.429 167.086 92.429C154.755 92.429 144.758 102.426 144.758 114.757C144.758 127.089 154.755 137.085 167.086 137.085Z" stroke="#263238" stroke-width="2" stroke-miterlimit="10"/>
<path d="M153.995 108.36C155.028 113.891 162.635 118.044 161.248 120.465C159.861 122.886 151.574 130.484 151.574 130.484L151.453 130.689C154.067 133.266 157.275 135.159 160.794 136.202C164.314 137.245 168.036 137.404 171.632 136.667C175.228 135.929 178.586 134.318 181.411 131.974C184.236 129.63 186.44 126.626 187.829 123.229C189.217 119.831 189.747 116.143 189.372 112.492C188.997 108.84 187.728 105.337 185.677 102.293C183.627 99.2483 180.858 96.7557 177.616 95.0353C174.373 93.3149 170.757 92.4198 167.086 92.429C167.086 92.429 152.915 102.83 153.995 108.36Z" stroke="#263238" stroke-width="2" stroke-miterlimit="10"/>
<path d="M187.71 123.361C184.029 122.893 180.515 121.541 177.468 119.422C172.636 115.967 168.827 104.217 168.827 104.217C168.827 104.217 163.297 110.437 162.952 114.236C162.707 119.385 163.777 124.512 166.062 129.133C168.483 133.631 171.649 135.474 175.122 135.474" stroke="#263238" stroke-width="2" stroke-miterlimit="10"/>
<path d="M167.812 119.078V123.575C167.812 126.368 169.191 127.029 171.611 127.029" stroke="#263238" stroke-width="2" stroke-miterlimit="10"/>
<path d="M170.932 130.139C170.932 130.139 175.774 129.795 177.496 126.34" stroke="#263238" stroke-width="2" stroke-miterlimit="10"/>
<path d="M173.697 119.254C173.697 120.493 173.232 121.498 172.664 121.498C172.096 121.498 171.621 120.493 171.621 119.254C171.621 118.016 172.086 117.01 172.664 117.01C173.241 117.01 173.697 118.016 173.697 119.254Z" stroke="#263238" stroke-width="2" stroke-miterlimit="10"/>
<path d="M166.779 118.91C166.779 120.148 166.323 121.154 165.745 121.154C165.168 121.154 164.712 120.148 164.712 118.91C164.712 117.671 165.177 116.656 165.745 116.656C166.313 116.656 166.779 117.662 166.779 118.91Z" stroke="#263238" stroke-width="2" stroke-miterlimit="10"/>
<path d="M162.98 114.236C163.379 113.998 163.826 113.854 164.289 113.815C164.751 113.775 165.217 113.842 165.65 114.008C166.083 114.175 166.473 114.438 166.789 114.778C167.106 115.117 167.341 115.524 167.477 115.968" stroke="#263238" stroke-width="2" stroke-miterlimit="10"/>
<path d="M170.243 114.236C170.243 114.236 171.965 113.547 173.036 114.59" stroke="#263238" stroke-width="2" stroke-miterlimit="10"/>
<path d="M141.937 142.812H194.386" stroke="black" stroke-width="2" stroke-miterlimit="10"/>
<path d="M141.937 149.497H194.386" stroke="black" stroke-width="2" stroke-miterlimit="10"/>
<path d="M313.727 64.812H132.84V81.2555H313.727V64.812Z" fill="#263238"/>
<path d="M182.068 70.082H165.932C164.399 70.082 163.157 71.3243 163.157 72.8568V73.4434C163.157 74.9758 164.399 76.2181 165.932 76.2181H182.068C183.6 76.2181 184.843 74.9758 184.843 73.4434V72.8568C184.843 71.3243 183.6 70.082 182.068 70.082Z" fill="white" stroke="#999999" stroke-width="2" stroke-miterlimit="10"/>
<path d="M208.446 70.082H192.31C190.778 70.082 189.535 71.3243 189.535 72.8568V73.4434C189.535 74.9758 190.778 76.2181 192.31 76.2181H208.446C209.979 76.2181 211.221 74.9758 211.221 73.4434V72.8568C211.221 71.3243 209.979 70.082 208.446 70.082Z" fill="white" stroke="#999999" stroke-width="2" stroke-miterlimit="10"/>
<path d="M234.834 70.082H218.698C217.165 70.082 215.923 71.3243 215.923 72.8568V73.4434C215.923 74.9758 217.165 76.2181 218.698 76.2181H234.834C236.367 76.2181 237.609 74.9758 237.609 73.4434V72.8568C237.609 71.3243 236.367 70.082 234.834 70.082Z" fill="white" stroke="#999999" stroke-width="2" stroke-miterlimit="10"/>
<path d="M261.222 70.082H245.086C243.553 70.082 242.311 71.3243 242.311 72.8568V73.4434C242.311 74.9758 243.553 76.2181 245.086 76.2181H261.222C262.754 76.2181 263.997 74.9758 263.997 73.4434V72.8568C263.997 71.3243 262.754 70.082 261.222 70.082Z" fill="#60EB9F" stroke="#999999" stroke-width="2" stroke-miterlimit="10"/>
<path d="M293.243 72.531C293.245 73.4231 292.982 74.2957 292.487 75.0382C291.993 75.7807 291.289 76.3598 290.465 76.7021C289.641 77.0443 288.734 77.1343 287.859 76.9607C286.984 76.7871 286.18 76.3577 285.55 75.7269C284.919 75.0961 284.489 74.2923 284.316 73.4172C284.142 72.5421 284.232 71.6352 284.575 70.8114C284.917 69.9875 285.496 69.2838 286.238 68.7893C286.981 68.2948 287.854 68.0319 288.746 68.0337C289.938 68.0362 291.08 68.5108 291.923 69.3536C292.766 70.1965 293.24 71.339 293.243 72.531Z" fill="white" stroke="#999999" stroke-width="2" stroke-miterlimit="10"/>
<path d="M305.469 49.2439H292.219V56.5159H305.469V49.2439Z" stroke="#263238" stroke-width="2" stroke-linecap="round" stroke-linejoin="round"/>
<path d="M302.554 49.2439H292.219V56.5159H302.554V49.2439Z" fill="#263238" stroke="#263238" stroke-width="2" stroke-linecap="round" stroke-linejoin="round"/>
<path d="M307.321 51.2737H305.45V54.4767H307.321V51.2737Z" fill="#263238" stroke="#263238" stroke-width="2" stroke-linecap="round" stroke-linejoin="round"/>
<path d="M139.907 51.4973H137.477V55.6594H139.907V51.4973Z" fill="#263238" stroke="#263238" stroke-width="2" stroke-linecap="round" stroke-linejoin="round"/>
<path d="M143.734 50.0354H141.304V55.6686H143.734V50.0354Z" fill="#263238" stroke="#263238" stroke-width="2" stroke-linecap="round" stroke-linejoin="round"/>
<path d="M147.552 48.3035H145.121V55.6593H147.552V48.3035Z" fill="#263238" stroke="#263238" stroke-width="2" stroke-linecap="round" stroke-linejoin="round"/>
<path d="M132.412 58.9927H312.778" stroke="#263238" stroke-width="2" stroke-linecap="round" stroke-linejoin="round"/>
<path d="M328.057 160.717C328.412 160.714 328.752 160.572 329.003 160.321C329.254 160.071 329.396 159.731 329.398 159.376V123.277C329.396 122.922 329.254 122.582 329.003 122.331C328.752 122.08 328.412 121.938 328.057 121.936H324.547V53.0334C324.557 50.7516 324.116 48.4903 323.249 46.3794C322.383 44.2684 321.108 42.3494 319.498 40.7324C317.888 39.1155 315.975 37.8324 313.867 36.957C311.76 36.0815 309.501 35.6308 307.219 35.6309H138.017C135.741 35.6309 133.488 36.0791 131.386 36.9499C129.283 37.8207 127.373 39.0971 125.764 40.7061C124.155 42.3152 122.879 44.2254 122.008 46.3278C121.137 48.4301 120.689 50.6834 120.689 52.9589V408.747C120.689 413.343 122.514 417.75 125.764 421C129.014 424.25 133.421 426.075 138.017 426.075H307.219C311.815 426.075 316.222 424.25 319.472 421C322.721 417.75 324.547 413.343 324.547 408.747V191.742H328.057C328.412 191.739 328.752 191.597 329.003 191.346C329.254 191.095 329.396 190.756 329.398 190.401V174.367C329.398 174.011 329.257 173.67 329.005 173.419C328.754 173.167 328.413 173.026 328.057 173.026H324.547V160.717H328.057ZM318.653 395.246C318.632 396.893 318.287 398.519 317.638 400.032C316.988 401.546 316.047 402.916 314.867 404.065C313.688 405.215 312.293 406.12 310.764 406.73C309.234 407.34 307.599 407.643 305.953 407.621H139.237C135.912 407.663 132.706 406.383 130.325 404.063C127.943 401.742 126.58 398.571 126.536 395.246V56.7392C126.583 53.416 127.946 50.2472 130.328 47.9287C132.709 45.6103 135.913 44.3318 139.237 44.374H204.973L207.701 49.4486C209.181 52.1013 211.342 54.3108 213.961 55.849C216.58 57.3872 219.562 58.1982 222.599 58.1982C225.637 58.1982 228.619 57.3872 231.238 55.849C233.857 54.3108 236.018 52.1013 237.497 49.4486L240.235 44.374H305.99C309.307 44.3392 312.504 45.6213 314.877 47.9392C317.251 50.2572 318.609 53.4218 318.653 56.7392V395.246Z" fill="#263238" stroke="#263238" stroke-width="2" stroke-linecap="round" stroke-linejoin="round"/>
<path d="M227.143 46.3106C227.143 45.4156 226.878 44.5407 226.38 43.7965C225.883 43.0524 225.176 42.4724 224.35 42.1299C223.523 41.7874 222.613 41.6977 221.735 41.8724C220.857 42.047 220.051 42.4779 219.418 43.1108C218.785 43.7437 218.354 44.55 218.18 45.4278C218.005 46.3056 218.095 47.2155 218.437 48.0423C218.78 48.8692 219.36 49.576 220.104 50.0732C220.848 50.5704 221.723 50.8358 222.618 50.8358C223.817 50.8334 224.967 50.3558 225.815 49.5077C226.663 48.6596 227.141 47.51 227.143 46.3106Z" fill="white" stroke="#263238" stroke-width="2" stroke-linecap="round" stroke-linejoin="round"/>
<path d="M351.531 113.221C351.531 113.221 361 91.6933 376.494 90.8273C391.988 89.9614 415.824 111.498 421.271 124.124C426.718 136.75 419.549 143.677 420.703 147.402C421.858 151.126 438.208 160.605 437.063 173.52C435.918 186.434 426.15 192.142 429.614 196.192C433.078 200.243 440.527 207.673 436.216 213.995C431.905 220.318 420.145 224.293 411.765 224.293C403.385 224.293 370.144 210.522 357.518 203.632C344.892 196.742 346.037 166.034 349.194 157.709C352.35 149.385 362.108 148.519 359.529 143.64C356.95 138.761 349.194 136.471 348.356 127.569C347.518 118.668 351.531 113.221 351.531 113.221Z" fill="#263238" stroke="#263238" stroke-width="2" stroke-linecap="round" stroke-linejoin="round"/>
<path d="M430.387 252.683C430.387 252.683 433.087 265.663 434.353 269.443C435.62 273.224 435.284 275.03 432.91 277.199C430.536 279.369 428.04 282.06 426.597 283.149C425.154 284.239 423.711 283.689 422.808 282.218C421.904 280.747 422.994 280.235 423.534 280.235H424.614C423.623 277.362 422.9 274.404 422.454 271.399C422.091 267.795 424.074 262.208 424.074 259.499C424.074 256.789 424.251 253.735 424.251 253.735L430.387 252.683Z" fill="white" stroke="#263238" stroke-width="2" stroke-linecap="round" stroke-linejoin="round"/>
<path d="M427.286 269.63C427.286 269.63 427.109 276.147 426.932 277.749C426.756 279.35 426.392 282.256 424.586 280.272" stroke="#263238" stroke-width="2" stroke-linecap="round" stroke-linejoin="round"/>
<path d="M418.096 170.158C418.096 170.158 418.096 170.568 418.096 171.313C418.227 177.03 418.981 202.533 422.081 213.642C425.582 226.193 435.797 251.882 435.797 251.882C435.797 251.882 429.67 255.672 423.543 256.845C419.79 257.549 415.972 257.842 412.156 257.72C412.156 257.72 406.904 234.07 405.154 217.143C403.403 200.215 404.279 173.948 404.279 173.948L418.096 170.158Z" fill="#60EB9F"/>
<path d="M429.707 254.927C429.186 255.15 428.646 255.365 428.078 255.569C413.562 218.707 413.469 182.784 413.897 171.313L415.666 170.819C415.228 181.49 415.051 217.729 429.707 254.927Z" fill="white"/>
<path d="M408.152 172.886L409.884 172.412C410.349 184.758 412.538 229.573 420.675 257.301L418.906 257.497C410.834 229.815 408.645 185.792 408.152 172.886Z" fill="white"/>
<path d="M418.096 170.158C418.096 170.158 418.096 170.568 418.096 171.313C418.227 177.03 418.981 202.533 422.081 213.642C425.582 226.193 435.797 251.882 435.797 251.882C435.797 251.882 429.67 255.672 423.543 256.845C419.79 257.549 415.972 257.842 412.156 257.72C412.156 257.72 406.904 234.07 405.154 217.143C403.403 200.215 404.279 173.948 404.279 173.948L418.096 170.158Z" stroke="#263238" stroke-width="2" stroke-miterlimit="10"/>
<path d="M412.463 284.574C412.463 284.574 419.176 338.858 420.35 342.07C421.523 345.283 424.139 349.948 425.601 359.585C427.063 369.222 430.257 404.278 430.257 404.278C430.257 404.278 443.106 413.049 444.223 421.206C445.155 428.022 436.058 427.631 429.326 421.792C422.594 415.954 423.487 414.204 421.737 410.991C419.986 407.779 419.4 403.403 419.102 400.489C418.804 397.574 404.511 363.998 402.761 356.996C401.01 349.994 401.299 343.569 400.135 340.646C398.971 337.722 383.831 293.038 383.831 293.038L412.463 284.574Z" fill="white" stroke="#263238" stroke-width="2" stroke-linecap="round" stroke-linejoin="round"/>
<path d="M413.515 294.313C404.5 297.06 395.118 298.413 385.694 298.327L383.831 293.038L412.435 284.574C412.435 284.574 412.901 289.453 413.515 294.313Z" fill="#263238" stroke="#263238" stroke-width="2" stroke-linecap="round" stroke-linejoin="round"/>
<path d="M421.812 410.954C420.835 409.025 420.157 406.96 419.8 404.827C421.728 408.235 423.525 411.541 423.525 411.541C424.277 409.401 425.254 407.347 426.439 405.414C427.901 403.365 430.527 405.414 430.527 405.414L432.063 405.591C435.657 408.384 443.358 414.902 444.242 421.168C445.173 427.984 436.076 427.593 429.344 421.755C422.612 415.917 423.562 414.166 421.812 410.954Z" fill="#60EB9F" stroke="#263238" stroke-width="2" stroke-linecap="round" stroke-linejoin="round"/>
<path d="M374.818 292.451C374.818 292.451 378.021 336.521 376.271 345.869C374.52 355.218 374.231 357.797 374.231 357.797C374.231 357.797 373.356 393.403 373.067 398.077C372.779 402.751 374.818 421.131 374.52 422.006C374.222 422.882 372.602 423.096 371.14 423.682C369.678 424.269 366.913 422.835 366.066 423.459C359.389 428.375 352.341 426.681 348.84 426.681C345.339 426.681 344.752 424.632 346.791 422.025C348.831 419.418 361.391 412.714 361.969 408.896C362.546 405.079 354.967 366.279 354.38 356.642C353.793 347.005 354.38 335.925 353.803 333.876C353.225 331.828 347.965 302.935 347.378 290.393L374.818 292.451Z" fill="white" stroke="#263238" stroke-width="2" stroke-linecap="round" stroke-linejoin="round"/>
<path d="M375.265 299.053C370.824 300.589 361.764 302.321 348.067 298.326C347.732 295.337 347.48 292.619 347.378 290.412L374.818 292.451C374.818 292.451 375.004 295.021 375.265 299.053Z" fill="#263238" stroke="#263238" stroke-width="2" stroke-linecap="round" stroke-linejoin="round"/>
<path d="M361.54 409.986C361.941 409.983 362.338 410.059 362.709 410.211C363.08 410.363 363.417 410.587 363.7 410.87C365.507 412.565 366.177 415.945 366.177 415.945L373.943 413.356C374.325 417.872 374.65 421.662 374.52 422.044C374.231 422.919 372.602 423.133 371.14 423.72C369.678 424.306 366.913 422.872 366.066 423.496C359.389 428.412 352.341 426.718 348.84 426.718C345.339 426.718 344.752 424.669 346.791 422.062C348.654 419.651 359.24 413.868 361.54 409.986Z" fill="#60EB9F" stroke="#263238" stroke-width="2" stroke-linecap="round" stroke-linejoin="round"/>
<path d="M406.634 223.279L422.938 289.555C422.938 289.555 398.459 294.481 380.656 295.412L378.021 288.997L376.857 296.287C376.857 296.287 361.68 297.461 350.004 295.123C343.06 293.75 336.707 290.272 331.81 285.16L350.59 225.364L406.634 223.279Z" fill="white" stroke="#263238" stroke-width="2" stroke-linecap="round" stroke-linejoin="round"/>
<path d="M333.551 279.192C337.756 284.877 343.944 288.776 350.888 290.114C359.658 291.853 368.607 292.51 377.537 292.069L376.866 296.241C376.866 296.241 361.689 297.414 350.013 295.077C343.069 293.704 336.716 290.225 331.819 285.114L333.551 279.192Z" fill="white" stroke="#263238" stroke-width="2" stroke-linecap="round" stroke-linejoin="round"/>
<path d="M422.938 289.555C422.938 289.555 398.459 294.481 380.656 295.412L379.259 292.004C379.967 291.958 380.358 291.911 380.358 291.911C380.358 291.911 391.643 290.812 402.165 288.81C411.374 287.069 420.452 285.7 421.83 285.281L422.938 289.555Z" fill="white" stroke="#263238" stroke-width="2" stroke-linecap="round" stroke-linejoin="round"/>
<path d="M406.122 229.657L393.301 232.04L392.388 228.009" stroke="#263238" stroke-width="2" stroke-linecap="round" stroke-linejoin="round"/>
<path d="M389.641 228.372L390.368 232.58C390.368 232.58 372.974 233.316 365.47 232.58V229.834" stroke="#263238" stroke-width="2" stroke-linecap="round" stroke-linejoin="round"/>
<path d="M362.909 229.294V232.227L351.922 230.755V229.107" stroke="#263238" stroke-width="2" stroke-linecap="round" stroke-linejoin="round"/>
<path d="M380.665 234.424L379.38 284.9" stroke="#263238" stroke-width="2" stroke-linecap="round" stroke-linejoin="round"/>
<path d="M379.38 261.408L377.192 259.685L376.643 236.985" stroke="#263238" stroke-width="2" stroke-linecap="round" stroke-linejoin="round"/>
<path d="M391.28 232.953C391.28 232.953 391.829 245.225 400.982 250.719C410.135 256.212 413.431 256.026 413.431 256.026" stroke="#263238" stroke-width="2" stroke-linecap="round" stroke-linejoin="round"/>
<path d="M363.822 234.238C363.822 234.238 361.447 256.761 342.406 256.938" stroke="#263238" stroke-width="2" stroke-linecap="round" stroke-linejoin="round"/>
<path d="M406.672 279.724C410.577 279.093 413.231 275.416 412.6 271.511C411.969 267.607 408.292 264.953 404.387 265.584C400.482 266.215 397.828 269.892 398.46 273.797C399.091 277.702 402.768 280.355 406.672 279.724Z" fill="#60EB9F"/>
<path d="M398.943 271.585C398.943 272.679 399.268 273.748 399.875 274.658C400.483 275.567 401.347 276.276 402.357 276.695C403.368 277.113 404.48 277.223 405.553 277.009C406.626 276.796 407.611 276.269 408.385 275.496C409.158 274.722 409.685 273.737 409.899 272.664C410.112 271.591 410.002 270.479 409.584 269.468C409.165 268.458 408.456 267.594 407.547 266.986C406.637 266.378 405.568 266.054 404.474 266.054C403.007 266.054 401.6 266.637 400.563 267.674C399.526 268.711 398.943 270.118 398.943 271.585Z" stroke="white" stroke-width="2" stroke-miterlimit="10"/>
<path d="M391.839 284.779C392.852 284.779 393.673 283.957 393.673 282.944C393.673 281.931 392.852 281.11 391.839 281.11C390.826 281.11 390.005 281.931 390.005 282.944C390.005 283.957 390.826 284.779 391.839 284.779Z" fill="#60EB9F"/>
<path d="M339.287 271.501C339.287 272.171 339.486 272.827 339.858 273.384C340.23 273.941 340.76 274.376 341.379 274.632C341.998 274.889 342.68 274.956 343.337 274.825C343.995 274.694 344.599 274.372 345.073 273.898C345.547 273.424 345.869 272.82 346 272.162C346.131 271.505 346.064 270.823 345.807 270.204C345.551 269.585 345.116 269.055 344.559 268.683C344.002 268.311 343.346 268.112 342.676 268.112C341.777 268.112 340.915 268.469 340.279 269.105C339.644 269.74 339.287 270.602 339.287 271.501Z" fill="#60EB9F"/>
<path d="M342.462 270.095C342.462 270.095 344.827 268.047 344.985 270.402C345.143 272.758 343.253 271.333 343.253 271.333C343.253 271.333 344.51 273.372 343.253 273.372C341.996 273.372 341.996 271.957 341.996 271.957C341.996 271.957 341.205 273.689 340.581 272.432C339.957 271.175 341.512 270.7 341.512 270.7C341.512 270.7 340.097 270.235 340.721 269.443C341.345 268.652 342.145 268.205 342.462 270.095Z" stroke="white" stroke-width="2" stroke-miterlimit="10"/>
<path d="M407.212 189.712C407.212 189.712 407.51 209.852 409.26 216.267C411.011 222.683 409.26 223.279 406.923 225.029C404.586 226.78 374.52 229.685 363.719 228.819C352.918 227.953 349.129 228.819 348.542 224.442C347.955 220.066 349.129 207.803 349.129 207.803C349.129 207.803 328.989 210.141 327.825 208.967C326.661 207.794 338.067 179.488 342.127 169.274C346.186 159.06 349.063 157.411 354.967 157.607C364.017 157.905 368.617 156.536 369.781 156.248C370.945 155.959 371.643 147.681 371.643 147.681L383.394 145.009C383.394 145.009 383.608 152.942 384.772 154.981C385.936 157.02 395.573 159.069 402.873 159.944C410.173 160.819 415.713 161.108 417.463 166.946C418.619 171.274 418.679 175.82 417.64 180.177" fill="white"/>
<path d="M407.212 189.712C407.212 189.712 407.51 209.852 409.26 216.267C411.011 222.683 409.26 223.279 406.923 225.029C404.586 226.78 374.52 229.685 363.719 228.819C352.918 227.953 349.129 228.819 348.542 224.442C347.955 220.066 349.129 207.803 349.129 207.803C349.129 207.803 328.989 210.141 327.825 208.967C326.661 207.794 338.067 179.488 342.127 169.274C346.186 159.06 349.063 157.411 354.967 157.607C364.017 157.905 368.617 156.536 369.781 156.248C370.945 155.959 371.643 147.681 371.643 147.681L383.394 145.009C383.394 145.009 383.608 152.942 384.772 154.981C385.936 157.02 395.573 159.069 402.873 159.944C410.173 160.819 415.713 161.108 417.463 166.946C418.619 171.274 418.679 175.82 417.64 180.177" stroke="#263238" stroke-width="2" stroke-linecap="round" stroke-linejoin="round"/>
<path d="M371.364 151.182C375.371 154.348 380.189 156.319 385.265 156.872C393.803 157.803 390.014 144.227 390.014 144.227C390.014 144.227 376.103 151.182 371.364 151.182Z" fill="#263238" stroke="#263238" stroke-width="2" stroke-linecap="round" stroke-linejoin="round"/>
<path d="M407.212 189.712C407.212 189.712 407.51 209.852 409.26 216.267C411.011 222.682 409.26 223.278 406.923 225.029C404.586 226.779 374.52 229.684 363.719 228.818C352.918 227.952 349.129 228.818 348.542 224.442C347.955 220.066 349.129 207.803 349.129 207.803C349.129 207.803 328.989 210.14 327.825 208.967C326.661 207.794 338.067 179.488 342.127 169.274C342.313 168.789 342.508 168.342 342.695 167.886C348.766 169.795 358.887 172.123 373.356 172.775C388.319 173.35 403.303 172.474 418.096 170.158C418.459 172.951 418.897 179.674 418.338 182.57" fill="#60EB9F"/>
<path d="M346.279 168.92L347.983 169.358L336.81 208.995L334.948 209.125L346.279 168.92Z" fill="white"/>
<path d="M364.464 228.865L363.719 228.818L362.714 228.744L364.818 172.16L366.568 172.318L364.464 228.865Z" fill="white"/>
<path d="M410.657 187.505L408.971 188.585C408.459 180.745 408.208 174.618 408.105 171.499L409.847 171.294C409.949 174.237 410.182 180.028 410.657 187.505Z" fill="white"/>
<path d="M356.773 171.117L358.514 171.387L355.898 228.372C355.274 228.372 354.687 228.288 354.156 228.232L356.773 171.117Z" fill="white"/>
<path d="M352.546 170.363L354.268 170.689C352.713 179.367 349.613 196.192 347.406 207.999L345.59 208.194C347.872 195.904 351.009 178.92 352.546 170.363Z" fill="white"/>
<path d="M373.124 228.903L371.373 228.949L374.399 172.822L376.15 172.887L373.124 228.903Z" fill="white"/>
<path d="M383.747 172.97H385.507L384.949 228.232L383.198 228.362L383.747 172.97Z" fill="white"/>
<path d="M415.647 184.302L413.934 185.401C413.692 178.883 413.794 173.818 413.934 170.773L415.694 170.521C415.554 173.333 415.489 178.091 415.647 184.302Z" fill="white"/>
<path d="M391.978 172.756L393.729 172.672L396.438 227.059L394.688 227.273L391.978 172.756Z" fill="white"/>
<path d="M403.906 225.923C403.673 223.744 403.357 220.885 402.928 217.161C401.867 207.85 401.02 180.847 400.768 172.207L402.509 172.058C402.761 180.54 403.608 207.682 404.67 216.956C405.079 220.569 405.396 223.371 405.601 225.532C405.154 225.662 404.586 225.792 403.906 225.923Z" fill="white"/>
<path d="M407.212 189.712C407.212 189.712 407.51 209.852 409.26 216.267C411.011 222.682 409.26 223.278 406.923 225.029C404.586 226.779 374.52 229.684 363.719 228.818C352.918 227.952 349.129 228.818 348.542 224.442C347.955 220.066 349.129 207.803 349.129 207.803C349.129 207.803 328.989 210.14 327.825 208.967C326.661 207.794 338.067 179.488 342.127 169.274C342.313 168.789 342.508 168.342 342.695 167.886C348.766 169.795 358.887 172.123 373.356 172.775C388.319 173.35 403.303 172.474 418.096 170.158C418.459 172.951 418.897 179.674 418.338 182.57" stroke="#263238" stroke-width="2" stroke-linecap="round" stroke-linejoin="round"/>
<path d="M372.053 104.533C372.053 104.533 361.726 121.368 360.833 125.176C359.939 128.984 361.959 138.212 364.892 143.603C371.121 155 378.654 151.806 382.369 150.54C389.818 147.998 392.695 131.685 392.695 127.42C392.695 123.156 382.593 126.768 372.053 104.533Z" fill="white" stroke="#263238" stroke-width="2" stroke-linecap="round" stroke-linejoin="round"/>
<path d="M386.811 119.608C386.811 119.608 391.848 125.418 388.747 137.83C385.647 150.242 381.038 151.015 381.038 163.426C381.038 175.838 393.45 178.557 392.677 184.758C391.904 190.959 386.857 190.969 386.857 197.17C386.853 198.451 387.141 199.715 387.702 200.867C388.262 202.019 389.079 203.027 390.09 203.813C391.1 204.6 392.278 205.145 393.532 205.406C394.786 205.666 396.083 205.636 397.323 205.317C401.979 204.153 392.667 201.043 394.222 197.943C395.777 194.842 405.703 190.205 407.798 179.32C409.893 168.436 401.839 161.629 402.882 157.085C403.925 152.542 414.009 147.523 414.009 136.275C414.009 125.027 406.243 117.271 401.979 113.779" fill="#263238"/>
<path d="M386.811 119.608C386.811 119.608 391.848 125.418 388.747 137.83C385.647 150.242 381.038 151.015 381.038 163.426C381.038 175.838 393.45 178.557 392.677 184.758C391.904 190.959 386.857 190.969 386.857 197.17C386.853 198.451 387.141 199.715 387.702 200.867C388.262 202.019 389.079 203.027 390.09 203.813C391.1 204.6 392.278 205.145 393.532 205.406C394.786 205.666 396.083 205.636 397.323 205.317C401.979 204.153 392.667 201.043 394.222 197.943C395.777 194.842 405.703 190.205 407.798 179.32C409.893 168.436 401.839 161.629 402.882 157.085C403.925 152.542 414.009 147.523 414.009 136.275C414.009 125.027 406.243 117.271 401.979 113.779" stroke="#263238" stroke-width="2" stroke-linecap="round" stroke-linejoin="round"/>
<path d="M377.77 136.769C376.952 137.585 375.868 138.08 374.715 138.162C373.563 138.244 372.419 137.908 371.494 137.216" stroke="#263238" stroke-width="2" stroke-linecap="round" stroke-linejoin="round"/>
<path d="M379.474 142.216C378.435 143.185 377.122 143.808 375.714 143.999C374.307 144.191 372.875 143.942 371.615 143.287" stroke="#263238" stroke-width="2" stroke-linecap="round" stroke-linejoin="round"/>
<path d="M379.101 130.037C379.101 131.154 379.613 132.057 380.237 132.057C380.861 132.057 381.382 131.126 381.382 130.037C381.382 128.947 380.87 128.016 380.237 128.016C379.604 128.016 379.101 128.92 379.101 130.037Z" fill="#263238"/>
<path d="M368.505 130.037C368.505 131.154 369.017 132.057 369.641 132.057C370.265 132.057 370.786 131.126 370.786 130.037C370.786 128.947 370.274 128.016 369.641 128.016C369.008 128.016 368.505 128.92 368.505 130.037Z" fill="#263238"/>
<path d="M384.641 125.195C384.641 125.195 381.773 121.992 378.068 124.18" stroke="#263238" stroke-width="2" stroke-linecap="round" stroke-linejoin="round"/>
<path d="M371.159 123.677C371.159 123.677 373.133 129.068 372.155 132.606" stroke="#263238" stroke-width="2" stroke-linecap="round" stroke-linejoin="round"/>
<path d="M365.265 125.53C365.817 124.518 366.738 123.759 367.837 123.412C368.936 123.065 370.126 123.157 371.159 123.668" stroke="#263238" stroke-width="2" stroke-linecap="round" stroke-linejoin="round"/>
<path d="M358.216 196.165H371.392L372.267 177.784H356.829L358.216 196.165Z" fill="#263238" stroke="#263238" stroke-width="2" stroke-linecap="round" stroke-linejoin="round"/>
<path d="M349.38 236.407C349.38 236.407 350.851 208.679 350.851 206.891C350.851 205.103 341.466 208.455 340.125 211.137C338.784 213.818 343.486 230.234 349.38 236.407Z" fill="#263238" stroke="#263238" stroke-width="2" stroke-linecap="round" stroke-linejoin="round"/>
<path d="M346.95 202.747C346.95 202.747 351.112 199.628 351.978 198.418C352.844 197.207 352.667 193.036 353.188 191.481C353.71 189.926 355.274 188.362 355.795 186.62C356.317 184.879 356.484 182.114 357.35 183.827C358.216 185.54 358.049 189.209 357.695 190.596C357.567 191.629 357.815 192.673 358.393 193.539L370.358 193.194C370.774 192.754 371.072 192.216 371.224 191.63C371.392 190.764 372.779 190.243 373.3 192.328C373.822 194.414 372.434 196.984 372.434 196.984C372.434 196.984 373.133 199.777 372.611 200.624C372.059 201.485 371.648 202.428 371.392 203.418C371.224 204.284 370.703 204.805 369.315 205.15C367.928 205.494 358.049 208.092 355.618 209.135C353.188 210.178 345.376 213.474 345.376 213.474L346.95 202.747Z" fill="white" stroke="#263238" stroke-width="2" stroke-linecap="round" stroke-linejoin="round"/>
<path d="M329.827 206.956L348.216 201.993C347.492 207.608 347.103 213.26 347.052 218.921C347.193 224.826 347.974 230.698 349.38 236.435C349.38 236.435 333.914 230.597 328.663 223.008C323.411 215.42 327.489 207.245 327.489 207.245" fill="#60EB9F"/>
<path d="M347.695 207.003L326.195 211.882C326.281 211.254 326.406 210.632 326.568 210.019L347.872 205.187C347.816 205.727 347.751 206.342 347.695 207.003Z" fill="white"/>
<path d="M328.728 223.027C328.276 222.376 327.874 221.691 327.527 220.979C334.047 222.601 340.684 223.709 347.378 224.293C347.434 224.889 347.499 225.485 347.574 226.062C341.225 225.518 334.926 224.504 328.728 223.027Z" fill="white"/>
<path d="M347.117 216.528C347.117 217.124 347.117 217.71 347.117 218.306C345.255 218.39 343.076 218.464 340.6 218.464C335.82 218.495 331.045 218.162 326.316 217.468C326.196 216.853 326.112 216.231 326.065 215.606C333.034 216.62 340.087 216.928 347.117 216.528Z" fill="white"/>
<path d="M329.827 206.956L348.216 201.993C347.492 207.608 347.103 213.26 347.052 218.921C347.193 224.826 347.974 230.698 349.38 236.435C349.38 236.435 333.914 230.597 328.663 223.008C323.411 215.42 327.489 207.245 327.489 207.245" stroke="#263238" stroke-width="2" stroke-linecap="round" stroke-linejoin="round"/>
</svg>
