<svg width="686" height="617" viewBox="0 0 686 617" fill="none" xmlns="http://www.w3.org/2000/svg">
<path d="M280.378 93.918H311.684" stroke="#2E2E2E" stroke-width="2" stroke-miterlimit="10"/>
<path d="M295.06 88.0373L290.16 102.72C290.16 102.72 143.393 118.382 130.671 96.8391C117.949 75.2962 139.492 67.4933 190.361 75.3151C241.231 83.1369 295.06 88.0373 295.06 88.0373Z" fill="white" stroke="#2E2E2E" stroke-width="2" stroke-miterlimit="10"/>
<path d="M406.94 93.918H375.634" stroke="#2E2E2E" stroke-width="2" stroke-miterlimit="10"/>
<path d="M392.258 88.0373L397.158 102.72C397.158 102.72 543.925 118.382 556.628 96.8391C569.332 75.2962 547.921 67.4933 497.032 75.3151C446.143 83.1369 392.258 88.0373 392.258 88.0373Z" fill="white" stroke="#2E2E2E" stroke-width="2" stroke-miterlimit="10"/>
<path d="M325.518 122.679C325.518 122.679 319.996 154.287 329.929 157.265C339.861 160.243 363.553 159.583 370.149 150.762C376.746 141.942 372.317 133.121 365.004 119.852C357.691 106.584 338.485 105.792 325.518 122.679Z" fill="white" stroke="#2E2E2E" stroke-width="2" stroke-miterlimit="10"/>
<path d="M339.164 0V99.0822H348.079V4.46691" fill="white"/>
<path d="M339.164 0V99.0822H348.079V4.46691" stroke="#2E2E2E" stroke-width="2" stroke-miterlimit="10"/>
<path d="M316.942 105.151C334.787 110.806 353.944 110.806 371.789 105.151H385.831V92.4292C385.831 83.0054 367.266 75.4663 344.366 75.4663C321.466 75.4663 302.901 83.0054 302.901 92.4292V105.151H316.942Z" fill="white" stroke="#2E2E2E" stroke-width="2" stroke-miterlimit="10"/>
<path d="M344.366 122.114C367.266 122.114 385.831 114.52 385.831 105.151C385.831 95.783 367.266 88.1885 344.366 88.1885C321.465 88.1885 302.901 95.783 302.901 105.151C302.901 114.52 321.465 122.114 344.366 122.114Z" fill="white" stroke="#2E2E2E" stroke-width="2" stroke-miterlimit="10"/>
<path d="M344.366 122.114C367.266 122.114 385.831 114.52 385.831 105.151C385.831 95.783 367.266 88.1885 344.366 88.1885C321.465 88.1885 302.901 95.783 302.901 105.151C302.901 114.52 321.465 122.114 344.366 122.114Z" fill="white" stroke="#2E2E2E" stroke-width="2" stroke-miterlimit="10"/>
<path d="M491.717 442.732H464.935V517.633H491.717V442.732Z" fill="#0041AA"/>
<path d="M485.026 448.876H471.644V493.394H485.026V448.876Z" fill="#4CA6E6"/>
<path d="M478.335 511.111C480.532 511.111 482.312 509.331 482.312 507.135C482.312 504.938 480.532 503.158 478.335 503.158C476.139 503.158 474.358 504.938 474.358 507.135C474.358 509.331 476.139 511.111 478.335 511.111Z" fill="#4CA6E6"/>
<path d="M529.959 442.732H503.177V517.633H529.959V442.732Z" fill="#4CA6E6"/>
<path d="M523.249 448.876H509.867V493.394H523.249V448.876Z" fill="#0041AA"/>
<path d="M516.577 511.111C518.774 511.111 520.554 509.331 520.554 507.135C520.554 504.938 518.774 503.158 516.577 503.158C514.381 503.158 512.6 504.938 512.6 507.135C512.6 509.331 514.381 511.111 516.577 511.111Z" fill="#0041AA"/>
<path d="M568.201 442.732H541.418V517.633H568.201V442.732Z" fill="#4CA6E6"/>
<path d="M561.491 448.876H548.109V493.394H561.491V448.876Z" fill="#0041AA"/>
<path d="M558.796 507.078C558.796 506.287 558.561 505.513 558.121 504.856C557.681 504.198 557.056 503.686 556.325 503.384C555.594 503.082 554.79 503.004 554.014 503.16C553.238 503.316 552.526 503.698 551.968 504.259C551.41 504.82 551.031 505.533 550.879 506.31C550.727 507.086 550.809 507.89 551.114 508.62C551.42 509.35 551.935 509.972 552.594 510.409C553.254 510.846 554.028 511.077 554.819 511.073C555.876 511.068 556.887 510.645 557.632 509.896C558.378 509.148 558.796 508.134 558.796 507.078Z" fill="#0041AA"/>
<path d="M606.443 442.732H579.66V517.633H606.443V442.732Z" fill="#0041AA"/>
<path d="M599.733 448.876H586.351V493.394H599.733V448.876Z" fill="#4CA6E6"/>
<path d="M597.038 507.078C597.038 506.287 596.803 505.515 596.364 504.858C595.925 504.201 595.301 503.689 594.571 503.386C593.841 503.084 593.038 503.005 592.263 503.159C591.487 503.313 590.776 503.694 590.217 504.252C589.658 504.811 589.277 505.523 589.123 506.298C588.969 507.073 589.048 507.877 589.351 508.607C589.653 509.337 590.165 509.961 590.822 510.4C591.479 510.839 592.252 511.073 593.042 511.073C594.102 511.073 595.118 510.652 595.867 509.903C596.617 509.154 597.038 508.137 597.038 507.078Z" fill="#4CA6E6"/>
<path d="M649.981 251.862V246.433H639.841V226.248H631.887V246.433H453.852V226.248H445.898V246.433H432.498V251.862H445.898V336.525H432.498V341.953H445.898V426.636H432.498V432.064H445.898V516.728H432.498V522.156H445.898V614.849H453.852V522.156H631.887V614.849H639.841V522.156H649.981V516.728H639.841V432.064H649.981V426.636H639.841V341.953H649.981V336.525H639.841V251.862H649.981ZM631.887 516.728H453.852V432.064H631.887V516.728ZM631.887 426.636H453.852V341.953H631.887V426.636ZM631.887 336.525H453.852V251.862H631.887V336.525Z" fill="#0041AA"/>
<path d="M582.978 261.625H556.195V336.525H582.978V261.625Z" fill="#4CA6E6"/>
<path d="M576.268 267.769H562.886V312.287H576.268V267.769Z" fill="#4CA6E6"/>
<path d="M573.572 326.027C573.572 325.236 573.338 324.463 572.898 323.805C572.458 323.148 571.833 322.635 571.101 322.334C570.37 322.032 569.566 321.954 568.79 322.109C568.015 322.265 567.303 322.648 566.745 323.208C566.187 323.769 565.808 324.483 565.656 325.259C565.503 326.035 565.585 326.839 565.891 327.569C566.196 328.299 566.711 328.922 567.371 329.358C568.03 329.795 568.805 330.026 569.596 330.023C570.652 330.018 571.664 329.594 572.409 328.846C573.154 328.097 573.572 327.083 573.572 326.027Z" fill="#4CA6E6"/>
<path d="M551.558 261.625H524.776V336.525H551.558V261.625Z" fill="#4CA6E6"/>
<path d="M544.868 267.769H531.486V312.287H544.868V267.769Z" fill="#4CA6E6"/>
<path d="M538.177 330.004C540.373 330.004 542.153 328.224 542.153 326.027C542.153 323.831 540.373 322.05 538.177 322.05C535.98 322.05 534.2 323.831 534.2 326.027C534.2 328.224 535.98 330.004 538.177 330.004Z" fill="#4CA6E6"/>
<path d="M520.158 261.625H493.376V336.525H520.158V261.625Z" fill="#0041AA"/>
<path d="M513.449 267.769H500.067V312.287H513.449V267.769Z" fill="#4CA6E6"/>
<path d="M506.758 330.004C508.954 330.004 510.734 328.224 510.734 326.027C510.734 323.831 508.954 322.05 506.758 322.05C504.561 322.05 502.781 323.831 502.781 326.027C502.781 328.224 504.561 330.004 506.758 330.004Z" fill="#4CA6E6"/>
<path d="M619.881 261.625H593.099V336.525H619.881V261.625Z" fill="#4CA6E6"/>
<path d="M613.19 267.769H599.809V312.287H613.19V267.769Z" fill="#4CA6E6"/>
<path d="M606.499 330.004C608.696 330.004 610.476 328.224 610.476 326.027C610.476 323.831 608.696 322.05 606.499 322.05C604.303 322.05 602.522 323.831 602.522 326.027C602.522 328.224 604.303 330.004 606.499 330.004Z" fill="#4CA6E6"/>
<path d="M486.704 261.625H459.921V336.525H486.704V261.625Z" fill="#0041AA"/>
<path d="M479.994 267.769H466.612V312.287H479.994V267.769Z" fill="#4CA6E6"/>
<path d="M473.303 330.004C475.499 330.004 477.28 328.224 477.28 326.027C477.28 323.831 475.499 322.05 473.303 322.05C471.106 322.05 469.326 323.831 469.326 326.027C469.326 328.224 471.106 330.004 473.303 330.004Z" fill="#4CA6E6"/>
<path d="M594.644 223.175H514.146C516.839 226.317 518.27 230.347 518.16 234.484C518.262 238.62 516.833 242.647 514.146 245.793H594.644C597.643 245.793 600.52 244.601 602.641 242.48C604.761 240.36 605.953 237.483 605.953 234.484C605.953 231.485 604.761 228.608 602.641 226.488C600.52 224.367 597.643 223.175 594.644 223.175Z" fill="#4CA6E5" stroke="#0041AA" stroke-width="2" stroke-miterlimit="10"/>
<path d="M597.811 223.627V245.095C600.13 244.401 602.166 242.981 603.618 241.044C605.07 239.106 605.862 236.754 605.877 234.333C605.85 231.922 605.052 229.582 603.601 227.656C602.15 225.73 600.121 224.319 597.811 223.627Z" fill="#4CA6E5" stroke="#0041AA" stroke-width="2" stroke-miterlimit="10"/>
<path d="M594.644 199.295H514.146C516.833 202.441 518.262 206.468 518.16 210.604C518.262 214.74 516.833 218.767 514.146 221.913H594.644C597.643 221.913 600.52 220.721 602.641 218.6C604.761 216.48 605.953 213.603 605.953 210.604C605.953 207.605 604.761 204.728 602.641 202.608C600.52 200.487 597.643 199.295 594.644 199.295Z" fill="#4CA6E5" stroke="#0041AA" stroke-width="2" stroke-miterlimit="10"/>
<path d="M597.811 199.748V221.309C600.133 220.614 602.171 219.191 603.623 217.25C605.076 215.309 605.866 212.953 605.877 210.528C605.866 208.104 605.076 205.748 603.623 203.807C602.171 201.865 600.133 200.443 597.811 199.748Z" fill="#4CA6E5" stroke="#0041AA" stroke-width="2" stroke-miterlimit="10"/>
<path d="M513.09 168.649H486.308V243.55H513.09V168.649Z" fill="#0041AA"/>
<path d="M506.381 174.793H492.999V219.312H506.381V174.793Z" fill="#0041AA"/>
<path d="M503.667 233.052C503.667 232.265 503.433 231.496 502.996 230.842C502.559 230.188 501.938 229.678 501.212 229.377C500.485 229.076 499.685 228.998 498.914 229.151C498.142 229.305 497.434 229.683 496.878 230.24C496.322 230.796 495.943 231.504 495.789 232.276C495.636 233.047 495.715 233.847 496.016 234.573C496.317 235.3 496.826 235.921 497.48 236.358C498.134 236.795 498.903 237.028 499.69 237.028C500.213 237.031 500.731 236.93 501.215 236.731C501.698 236.532 502.138 236.239 502.507 235.869C502.877 235.499 503.17 235.06 503.369 234.576C503.568 234.093 503.669 233.575 503.667 233.052Z" fill="#0041AA"/>
<path d="M619.881 351H593.099V425.901H619.881V351Z" fill="#0041AA"/>
<path d="M613.19 357.164H599.809V401.682H613.19V357.164Z" fill="#4CA6E6"/>
<path d="M610.476 415.422C610.476 414.635 610.243 413.866 609.806 413.212C609.369 412.558 608.748 412.049 608.021 411.748C607.295 411.447 606.495 411.368 605.724 411.521C604.952 411.675 604.243 412.053 603.687 412.61C603.131 413.166 602.752 413.874 602.599 414.646C602.445 415.417 602.524 416.217 602.825 416.944C603.126 417.67 603.636 418.291 604.29 418.728C604.944 419.165 605.713 419.399 606.499 419.399C607.553 419.394 608.561 418.973 609.306 418.228C610.051 417.484 610.471 416.475 610.476 415.422Z" fill="#4CA6E6"/>
<path d="M588.839 351H562.057V425.901H588.839V351Z" fill="#0041AA"/>
<path d="M582.129 357.164H568.748V401.682H582.129V357.164Z" fill="#4CA6E6"/>
<path d="M579.415 415.422C579.415 414.635 579.182 413.866 578.745 413.212C578.308 412.558 577.687 412.049 576.96 411.748C576.234 411.447 575.434 411.368 574.663 411.521C573.891 411.675 573.183 412.053 572.626 412.61C572.07 413.166 571.692 413.874 571.538 414.646C571.385 415.417 571.463 416.217 571.764 416.944C572.065 417.67 572.575 418.291 573.229 418.728C573.883 419.165 574.652 419.399 575.439 419.399C575.961 419.399 576.478 419.296 576.96 419.096C577.443 418.896 577.881 418.603 578.251 418.234C578.62 417.864 578.913 417.426 579.113 416.944C579.313 416.461 579.415 415.944 579.415 415.422Z" fill="#4CA6E6"/>
<path d="M524.757 351H497.975V425.901H524.757V351Z" fill="#0041AA"/>
<path d="M518.047 357.164H504.666V401.682H518.047V357.164Z" fill="#4CA6E6"/>
<path d="M515.333 415.422C515.333 414.635 515.1 413.866 514.663 413.212C514.226 412.558 513.605 412.049 512.878 411.748C512.151 411.447 511.352 411.368 510.58 411.521C509.809 411.675 509.1 412.053 508.544 412.61C507.988 413.166 507.609 413.874 507.456 414.646C507.302 415.417 507.381 416.217 507.682 416.944C507.983 417.67 508.493 418.291 509.147 418.728C509.801 419.165 510.57 419.399 511.356 419.399C511.879 419.399 512.396 419.296 512.878 419.096C513.361 418.896 513.799 418.603 514.168 418.234C514.538 417.864 514.831 417.426 515.03 416.944C515.23 416.461 515.333 415.944 515.333 415.422Z" fill="#4CA6E6"/>
<path d="M557.778 351H530.996V425.901H557.778V351Z" fill="#0041AA"/>
<path d="M551.068 357.164H537.687V401.682H551.068V357.164Z" fill="#4CA6E6"/>
<path d="M548.354 415.422C548.354 414.635 548.121 413.866 547.684 413.212C547.247 412.558 546.626 412.049 545.899 411.748C545.173 411.447 544.373 411.368 543.602 411.521C542.83 411.675 542.122 412.053 541.565 412.61C541.009 413.166 540.63 413.874 540.477 414.646C540.324 415.417 540.402 416.217 540.703 416.944C541.004 417.67 541.514 418.291 542.168 418.728C542.822 419.165 543.591 419.399 544.377 419.399C544.9 419.399 545.417 419.296 545.899 419.096C546.382 418.896 546.82 418.603 547.19 418.234C547.559 417.864 547.852 417.426 548.052 416.944C548.252 416.461 548.354 415.944 548.354 415.422Z" fill="#4CA6E6"/>
<path d="M276.25 442.732H249.468V517.633H276.25V442.732Z" fill="#0041AA"/>
<path d="M269.541 448.876H256.159V493.394H269.541V448.876Z" fill="#0041AA"/>
<path d="M262.85 511.111C265.046 511.111 266.827 509.331 266.827 507.135C266.827 504.938 265.046 503.158 262.85 503.158C260.653 503.158 258.873 504.938 258.873 507.135C258.873 509.331 260.653 511.111 262.85 511.111Z" fill="#0041AA"/>
<path d="M314.473 442.732H287.691V517.633H314.473V442.732Z" fill="#0041AA"/>
<path d="M307.783 448.876H294.401V493.394H307.783V448.876Z" fill="#0041AA"/>
<path d="M301.092 511.111C303.288 511.111 305.068 509.331 305.068 507.135C305.068 504.938 303.288 503.158 301.092 503.158C298.895 503.158 297.115 504.938 297.115 507.135C297.115 509.331 298.895 511.111 301.092 511.111Z" fill="#0041AA"/>
<path d="M352.715 442.732H325.933V517.633H352.715V442.732Z" fill="#0041AA"/>
<path d="M346.024 448.876H332.643V493.394H346.024V448.876Z" fill="#0041AA"/>
<path d="M339.334 511.111C341.53 511.111 343.31 509.331 343.31 507.135C343.31 504.938 341.53 503.158 339.334 503.158C337.137 503.158 335.357 504.938 335.357 507.135C335.357 509.331 337.137 511.111 339.334 511.111Z" fill="#0041AA"/>
<path d="M390.957 442.732H364.175V517.633H390.957V442.732Z" fill="#0041AA"/>
<path d="M384.248 448.876H370.866V493.394H384.248V448.876Z" fill="#0041AA"/>
<path d="M381.552 507.078C381.552 506.287 381.318 505.513 380.878 504.856C380.438 504.198 379.813 503.686 379.081 503.384C378.35 503.082 377.546 503.004 376.77 503.16C375.995 503.316 375.283 503.698 374.725 504.259C374.167 504.82 373.788 505.533 373.636 506.31C373.483 507.086 373.565 507.89 373.871 508.62C374.176 509.35 374.691 509.972 375.351 510.409C376.01 510.846 376.785 511.077 377.576 511.073C378.632 511.068 379.644 510.645 380.389 509.896C381.134 509.148 381.553 508.134 381.552 507.078Z" fill="#0041AA"/>
<path d="M238.367 226.248H230.413V614.849H238.367V226.248Z" fill="#0041AA"/>
<path d="M424.356 226.248H416.402V614.849H424.356V226.248Z" fill="#0041AA"/>
<path d="M434.496 246.433H217.012V251.861H434.496V246.433Z" fill="#0041AA"/>
<path d="M434.496 336.525H217.012V341.954H434.496V336.525Z" fill="#0041AA"/>
<path d="M434.496 426.636H217.012V432.064H434.496V426.636Z" fill="#0041AA"/>
<path d="M434.496 516.728H217.012V522.156H434.496V516.728Z" fill="#0041AA"/>
<path d="M367.492 261.625H340.709V336.525H367.492V261.625Z" fill="#0041AA"/>
<path d="M360.782 267.769H347.4V312.287H360.782V267.769Z" fill="#0041AA"/>
<path d="M358.087 326.027C358.087 325.236 357.852 324.463 357.412 323.805C356.972 323.148 356.347 322.635 355.616 322.334C354.885 322.032 354.081 321.954 353.305 322.109C352.529 322.265 351.817 322.648 351.259 323.208C350.701 323.769 350.322 324.483 350.17 325.259C350.018 326.035 350.1 326.839 350.405 327.569C350.711 328.299 351.226 328.922 351.885 329.358C352.545 329.795 353.319 330.026 354.11 330.023C355.167 330.018 356.178 329.594 356.923 328.846C357.669 328.097 358.087 327.083 358.087 326.027Z" fill="#0041AA"/>
<path d="M336.092 261.625H309.309V336.525H336.092V261.625Z" fill="#0041AA"/>
<path d="M329.382 267.769H316V312.287H329.382V267.769Z" fill="#4CA6E6"/>
<path d="M322.691 330.004C324.888 330.004 326.668 328.224 326.668 326.027C326.668 323.831 324.888 322.05 322.691 322.05C320.495 322.05 318.714 323.831 318.714 326.027C318.714 328.224 320.495 330.004 322.691 330.004Z" fill="#4CA6E6"/>
<path d="M304.673 261.625H277.89V336.525H304.673V261.625Z" fill="#0041AA"/>
<path d="M297.963 267.769H284.581V312.287H297.963V267.769Z" fill="#4CA6E6"/>
<path d="M291.272 330.004C293.468 330.004 295.249 328.224 295.249 326.027C295.249 323.831 293.468 322.05 291.272 322.05C289.076 322.05 287.295 323.831 287.295 326.027C287.295 328.224 289.076 330.004 291.272 330.004Z" fill="#4CA6E6"/>
<path d="M404.415 261.625H377.632V336.525H404.415V261.625Z" fill="#0041AA"/>
<path d="M397.705 267.769H384.323V312.287H397.705V267.769Z" fill="#4CA6E6"/>
<path d="M391.014 330.004C393.21 330.004 394.991 328.224 394.991 326.027C394.991 323.831 393.21 322.05 391.014 322.05C388.818 322.05 387.037 323.831 387.037 326.027C387.037 328.224 388.818 330.004 391.014 330.004Z" fill="#0041AA"/>
<path d="M271.218 261.625H244.436V336.525H271.218V261.625Z" fill="#0041AA"/>
<path d="M264.508 267.769H251.126V312.287H264.508V267.769Z" fill="#4CA6E6"/>
<path d="M257.817 330.004C260.014 330.004 261.794 328.224 261.794 326.027C261.794 323.831 260.014 322.05 257.817 322.05C255.621 322.05 253.841 323.831 253.841 326.027C253.841 328.224 255.621 330.004 257.817 330.004Z" fill="#4CA6E6"/>
<path d="M271.218 171.156H244.436V246.056H271.218V171.156Z" fill="#0041AA"/>
<path d="M264.508 177.3H251.126V221.818H264.508V177.3Z" fill="#4CA6E6"/>
<path d="M257.817 239.535C260.014 239.535 261.794 237.755 261.794 235.558C261.794 233.362 260.014 231.582 257.817 231.582C255.621 231.582 253.841 233.362 253.841 235.558C253.841 237.755 255.621 239.535 257.817 239.535Z" fill="#4CA6E6"/>
<path d="M300.639 171.156H273.857V246.056H300.639V171.156Z" fill="#0041AA"/>
<path d="M293.948 177.3H280.566V221.818H293.948V177.3Z" fill="#4CA6E6"/>
<path d="M287.257 239.535C289.454 239.535 291.234 237.755 291.234 235.558C291.234 233.362 289.454 231.582 287.257 231.582C285.061 231.582 283.281 233.362 283.281 235.558C283.281 237.755 285.061 239.535 287.257 239.535Z" fill="#4CA6E6"/>
<path d="M376.633 247.545V220.763H301.732V247.545H376.633Z" fill="#0041AA"/>
<path d="M370.489 240.835V227.454H325.989V240.835H370.489Z" fill="#4CA6E6"/>
<path d="M312.325 238.122C313.112 238.122 313.88 237.888 314.534 237.451C315.188 237.014 315.698 236.393 315.999 235.667C316.3 234.94 316.379 234.14 316.225 233.369C316.072 232.598 315.693 231.889 315.137 231.333C314.581 230.777 313.872 230.398 313.101 230.244C312.329 230.091 311.53 230.17 310.803 230.471C310.076 230.772 309.455 231.281 309.018 231.935C308.581 232.589 308.348 233.358 308.348 234.145C308.353 235.198 308.774 236.207 309.518 236.951C310.263 237.696 311.272 238.117 312.325 238.122Z" fill="#4CA6E6"/>
<path d="M404.415 351H377.632V425.901H404.415V351Z" fill="#0041AA"/>
<path d="M397.705 357.164H384.323V401.682H397.705V357.164Z" fill="#0041AA"/>
<path d="M394.991 415.422C394.991 414.635 394.758 413.866 394.321 413.212C393.884 412.558 393.263 412.049 392.536 411.748C391.809 411.447 391.01 411.368 390.238 411.521C389.467 411.675 388.758 412.053 388.202 412.61C387.646 413.166 387.267 413.874 387.114 414.646C386.96 415.417 387.039 416.217 387.34 416.944C387.641 417.67 388.151 418.291 388.805 418.728C389.459 419.165 390.227 419.399 391.014 419.399C391.536 419.399 392.053 419.296 392.536 419.096C393.018 418.896 393.457 418.603 393.826 418.234C394.195 417.864 394.488 417.426 394.688 416.944C394.888 416.461 394.991 415.944 394.991 415.422Z" fill="#0041AA"/>
<path d="M373.354 351H346.571V425.901H373.354V351Z" fill="#0041AA"/>
<path d="M366.644 357.164H353.262V401.682H366.644V357.164Z" fill="#0041AA"/>
<path d="M363.93 415.422C363.93 414.635 363.697 413.866 363.26 413.212C362.823 412.558 362.201 412.049 361.475 411.748C360.748 411.447 359.949 411.368 359.177 411.521C358.406 411.675 357.697 412.053 357.141 412.61C356.585 413.166 356.206 413.874 356.052 414.646C355.899 415.417 355.978 416.217 356.279 416.944C356.58 417.67 357.09 418.291 357.744 418.728C358.398 419.165 359.166 419.399 359.953 419.399C360.475 419.399 360.992 419.296 361.475 419.096C361.957 418.896 362.396 418.603 362.765 418.234C363.134 417.864 363.427 417.426 363.627 416.944C363.827 416.461 363.93 415.944 363.93 415.422Z" fill="#0041AA"/>
<path d="M309.272 351H282.489V425.901H309.272V351Z" fill="#0041AA"/>
<path d="M302.562 357.164H289.18V401.682H302.562V357.164Z" fill="#0041AA"/>
<path d="M299.848 415.422C299.848 414.635 299.615 413.866 299.178 413.212C298.741 412.558 298.119 412.049 297.393 411.748C296.666 411.447 295.866 411.368 295.095 411.521C294.324 411.675 293.615 412.053 293.059 412.61C292.503 413.166 292.124 413.874 291.97 414.646C291.817 415.417 291.896 416.217 292.197 416.944C292.498 417.67 293.007 418.291 293.661 418.728C294.315 419.165 295.084 419.399 295.871 419.399C296.393 419.399 296.91 419.296 297.393 419.096C297.875 418.896 298.314 418.603 298.683 418.234C299.052 417.864 299.345 417.426 299.545 416.944C299.745 416.461 299.848 415.944 299.848 415.422Z" fill="#0041AA"/>
<path d="M342.293 351H315.51V425.901H342.293V351Z" fill="#0041AA"/>
<path d="M335.583 357.164H322.201V401.682H335.583V357.164Z" fill="#0041AA"/>
<path d="M332.869 415.422C332.869 414.635 332.636 413.866 332.199 413.212C331.762 412.558 331.141 412.049 330.414 411.748C329.687 411.447 328.888 411.368 328.116 411.521C327.345 411.675 326.636 412.053 326.08 412.61C325.524 413.166 325.145 413.874 324.992 414.646C324.838 415.417 324.917 416.217 325.218 416.944C325.519 417.67 326.029 418.291 326.683 418.728C327.337 419.165 328.106 419.399 328.892 419.399C329.414 419.399 329.932 419.296 330.414 419.096C330.897 418.896 331.335 418.603 331.704 418.234C332.073 417.864 332.366 417.426 332.566 416.944C332.766 416.461 332.869 415.944 332.869 415.422Z" fill="#0041AA"/>
<path d="M59.2193 442.732H32.4368V517.633H59.2193V442.732Z" fill="#0041AA"/>
<path d="M52.5095 448.876H39.1277V493.394H52.5095V448.876Z" fill="#4CA6E6"/>
<path d="M45.8375 511.111C48.0338 511.111 49.8143 509.331 49.8143 507.135C49.8143 504.938 48.0338 503.158 45.8375 503.158C43.6411 503.158 41.8606 504.938 41.8606 507.135C41.8606 509.331 43.6411 511.111 45.8375 511.111Z" fill="#4CA6E6"/>
<path d="M97.4613 442.732H70.6787V517.633H97.4613V442.732Z" fill="#0041AA"/>
<path d="M90.7515 448.876H77.3696V493.394H90.7515V448.876Z" fill="#4CA6E6"/>
<path d="M84.0794 511.111C86.2758 511.111 88.0563 509.331 88.0563 507.135C88.0563 504.938 86.2758 503.158 84.0794 503.158C81.883 503.158 80.1025 504.938 80.1025 507.135C80.1025 509.331 81.883 511.111 84.0794 511.111Z" fill="#4CA6E6"/>
<path d="M135.703 442.732H108.921V517.633H135.703V442.732Z" fill="#4CA6E6"/>
<path d="M128.993 448.876H115.612V493.394H128.993V448.876Z" fill="#0041AA"/>
<path d="M122.303 511.111C124.499 511.111 126.279 509.331 126.279 507.135C126.279 504.938 124.499 503.158 122.303 503.158C120.106 503.158 118.326 504.938 118.326 507.135C118.326 509.331 120.106 511.111 122.303 511.111Z" fill="#0041AA"/>
<path d="M173.945 442.732H147.163V517.633H173.945V442.732Z" fill="#0041AA"/>
<path d="M167.235 448.876H153.854V493.394H167.235V448.876Z" fill="#4CA6E6"/>
<path d="M160.544 511.111C162.741 511.111 164.521 509.331 164.521 507.135C164.521 504.938 162.741 503.158 160.544 503.158C158.348 503.158 156.568 504.938 156.568 507.135C156.568 509.331 158.348 511.111 160.544 511.111Z" fill="#4CA6E6"/>
<path d="M21.3356 226.248H13.3818V614.849H21.3356V226.248Z" fill="#0041AA"/>
<path d="M207.343 226.248H199.39V614.849H207.343V226.248Z" fill="#0041AA"/>
<path d="M217.483 246.433H0V251.861H217.483V246.433Z" fill="#0041AA"/>
<path d="M217.483 336.525H0V341.954H217.483V336.525Z" fill="#0041AA"/>
<path d="M217.483 426.636H0V432.064H217.483V426.636Z" fill="#0041AA"/>
<path d="M217.483 516.728H0V522.156H217.483V516.728Z" fill="#0041AA"/>
<path d="M150.48 261.625H123.697V336.525H150.48V261.625Z" fill="#4CA6E6"/>
<path d="M143.77 267.769H130.388V312.287H143.77V267.769Z" fill="#0041AA"/>
<path d="M141.075 326.027C141.075 325.237 140.841 324.464 140.402 323.807C139.962 323.15 139.338 322.638 138.608 322.335C137.878 322.033 137.075 321.954 136.3 322.108C135.525 322.262 134.813 322.643 134.254 323.202C133.695 323.76 133.314 324.472 133.16 325.247C133.006 326.023 133.085 326.826 133.388 327.556C133.69 328.286 134.202 328.91 134.859 329.349C135.516 329.788 136.289 330.023 137.079 330.023C138.139 330.023 139.155 329.602 139.905 328.852C140.654 328.103 141.075 327.087 141.075 326.027Z" fill="#0041AA"/>
<path d="M119.061 261.625H92.2783V336.525H119.061V261.625Z" fill="#0041AA"/>
<path d="M112.351 267.769H98.9692V312.287H112.351V267.769Z" fill="#4CA6E6"/>
<path d="M105.679 330.004C107.875 330.004 109.656 328.224 109.656 326.027C109.656 323.831 107.875 322.05 105.679 322.05C103.483 322.05 101.702 323.831 101.702 326.027C101.702 328.224 103.483 330.004 105.679 330.004Z" fill="#4CA6E6"/>
<path d="M87.6605 261.625H60.8779V336.525H87.6605V261.625Z" fill="#0041AA"/>
<path d="M80.9507 267.769H67.5688V312.287H80.9507V267.769Z" fill="#4CA6E6"/>
<path d="M74.2598 330.004C76.4562 330.004 78.2367 328.224 78.2367 326.027C78.2367 323.831 76.4562 322.05 74.2598 322.05C72.0635 322.05 70.283 323.831 70.283 326.027C70.283 328.224 72.0635 330.004 74.2598 330.004Z" fill="#4CA6E6"/>
<path d="M187.384 261.625H160.601V336.525H187.384V261.625Z" fill="#0041AA"/>
<path d="M180.674 267.769H167.292V312.287H180.674V267.769Z" fill="#4CA6E6"/>
<path d="M174.002 330.004C176.198 330.004 177.979 328.224 177.979 326.027C177.979 323.831 176.198 322.05 174.002 322.05C171.805 322.05 170.025 323.831 170.025 326.027C170.025 328.224 171.805 330.004 174.002 330.004Z" fill="#4CA6E6"/>
<path d="M111.465 220.254V247.037H186.366V220.254H111.465Z" fill="#0041AA"/>
<path d="M117.628 226.945V240.327H162.147V226.945H117.628Z" fill="#4CA6E6"/>
<path d="M175.887 229.659C175.096 229.655 174.321 229.886 173.662 230.323C173.002 230.76 172.487 231.382 172.182 232.112C171.876 232.842 171.795 233.646 171.947 234.422C172.099 235.199 172.478 235.912 173.036 236.473C173.594 237.034 174.306 237.416 175.081 237.572C175.857 237.728 176.661 237.65 177.393 237.348C178.124 237.046 178.749 236.534 179.189 235.876C179.629 235.219 179.863 234.446 179.864 233.654C179.864 232.598 179.445 231.585 178.7 230.836C177.955 230.087 176.943 229.664 175.887 229.659Z" fill="#4CA6E6"/>
<path d="M108.676 193.943V220.725H183.576V193.943H108.676Z" fill="#0041AA"/>
<path d="M114.82 200.633V214.015H159.338V200.633H114.82Z" fill="#4CA6E6"/>
<path d="M173.078 203.348C172.292 203.348 171.523 203.581 170.869 204.018C170.215 204.455 169.705 205.076 169.404 205.803C169.103 206.529 169.024 207.329 169.178 208.1C169.331 208.872 169.71 209.58 170.266 210.137C170.822 210.693 171.531 211.072 172.302 211.225C173.074 211.378 173.873 211.3 174.6 210.999C175.327 210.698 175.948 210.188 176.385 209.534C176.822 208.88 177.055 208.111 177.055 207.325C177.058 206.802 176.956 206.283 176.757 205.8C176.558 205.316 176.266 204.877 175.896 204.507C175.526 204.137 175.087 203.844 174.603 203.645C174.119 203.446 173.601 203.345 173.078 203.348Z" fill="#4CA6E6"/>
<path d="M54.2059 261.625H27.4233V336.525H54.2059V261.625Z" fill="#0041AA"/>
<path d="M47.4961 267.769H34.1143V312.287H47.4961V267.769Z" fill="#4CA6E6"/>
<path d="M40.8052 330.004C43.0016 330.004 44.7821 328.224 44.7821 326.027C44.7821 323.831 43.0016 322.05 40.8052 322.05C38.6089 322.05 36.8284 323.831 36.8284 326.027C36.8284 328.224 38.6089 330.004 40.8052 330.004Z" fill="#4CA6E6"/>
<path d="M187.384 351H160.601V425.901H187.384V351Z" fill="#0041AA"/>
<path d="M180.674 357.164H167.292V401.682H180.674V357.164Z" fill="#4CA6E6"/>
<path d="M177.979 415.422C177.982 414.63 177.751 413.855 177.313 413.195C176.876 412.535 176.252 412.02 175.521 411.715C174.79 411.41 173.985 411.33 173.208 411.483C172.431 411.637 171.718 412.018 171.158 412.578C170.598 413.137 170.217 413.851 170.063 414.628C169.91 415.405 169.99 416.21 170.295 416.941C170.6 417.672 171.115 418.295 171.775 418.733C172.435 419.171 173.21 419.402 174.002 419.399C175.055 419.394 176.064 418.973 176.808 418.228C177.553 417.484 177.974 416.475 177.979 415.422Z" fill="#4CA6E6"/>
<path d="M156.323 351H129.54V425.901H156.323V351Z" fill="#4CA6E6"/>
<path d="M149.632 357.164H136.25V401.682H149.632V357.164Z" fill="#0041AA"/>
<path d="M146.918 415.422C146.918 414.635 146.684 413.866 146.247 413.212C145.81 412.558 145.189 412.049 144.463 411.748C143.736 411.447 142.936 411.368 142.165 411.521C141.393 411.675 140.685 412.053 140.129 412.61C139.572 413.166 139.194 413.874 139.04 414.646C138.887 415.417 138.966 416.217 139.267 416.944C139.568 417.67 140.077 418.291 140.731 418.728C141.385 419.165 142.154 419.399 142.941 419.399C143.994 419.394 145.003 418.973 145.747 418.228C146.492 417.484 146.913 416.475 146.918 415.422Z" fill="#0041AA"/>
<path d="M60.5577 351H33.7751V425.901H60.5577V351Z" fill="#4CA6E6"/>
<path d="M53.8667 357.164H40.4849V401.682H53.8667V357.164Z" fill="#0041AA"/>
<path d="M51.1527 415.422C51.1527 414.635 50.9195 413.866 50.4825 413.212C50.0455 412.558 49.4244 412.049 48.6977 411.748C47.971 411.447 47.1714 411.368 46.4 411.521C45.6285 411.675 44.9199 412.053 44.3638 412.61C43.8076 413.166 43.4288 413.874 43.2754 414.646C43.1219 415.417 43.2007 416.217 43.5017 416.944C43.8027 417.67 44.3124 418.291 44.9664 418.728C45.6204 419.165 46.3893 419.399 47.1758 419.399C48.229 419.394 49.2377 418.973 49.9824 418.228C50.7272 417.484 51.1477 416.475 51.1527 415.422Z" fill="#0041AA"/>
<path d="M92.2406 351H65.458V425.901H92.2406V351Z" fill="#4CA6E6"/>
<path d="M85.5496 357.164H72.1677V401.682H85.5496V357.164Z" fill="#0041AA"/>
<path d="M82.8356 415.422C82.8356 414.635 82.6023 413.866 82.1653 413.212C81.7284 412.558 81.1073 412.049 80.3806 411.748C79.6539 411.447 78.8543 411.368 78.0829 411.521C77.3114 411.675 76.6028 412.053 76.0466 412.61C75.4905 413.166 75.1117 413.874 74.9583 414.646C74.8048 415.417 74.8836 416.217 75.1846 416.944C75.4856 417.67 75.9953 418.291 76.6493 418.728C77.3033 419.165 78.0722 419.399 78.8587 419.399C79.9119 419.394 80.9206 418.973 81.6653 418.228C82.41 417.484 82.8306 416.475 82.8356 415.422Z" fill="#0041AA"/>
<path d="M125.262 351H98.479V425.901H125.262V351Z" fill="#4CA6E6"/>
<path d="M118.571 357.164H105.189V401.682H118.571V357.164Z" fill="#0041AA"/>
<path d="M115.857 415.422C115.857 414.635 115.624 413.866 115.187 413.212C114.75 412.558 114.128 412.049 113.402 411.748C112.675 411.447 111.876 411.368 111.104 411.521C110.333 411.675 109.624 412.053 109.068 412.61C108.512 413.166 108.133 413.874 107.979 414.646C107.826 415.417 107.905 416.217 108.206 416.944C108.507 417.67 109.017 418.291 109.671 418.728C110.325 419.165 111.093 419.399 111.88 419.399C112.933 419.394 113.942 418.973 114.687 418.228C115.431 417.484 115.852 416.475 115.857 415.422Z" fill="#0041AA"/>
<path d="M104.887 615.602H64.7229L58.6917 549.014H110.919L104.887 615.602Z" fill="#4C9EE6" stroke="#2E2E2E" stroke-width="2" stroke-linecap="round" stroke-linejoin="round"/>
<path d="M110.824 546.602H58.7671C57.2474 546.602 56.0154 547.834 56.0154 549.353V549.617C56.0154 551.137 57.2474 552.369 58.7671 552.369H110.824C112.344 552.369 113.576 551.137 113.576 549.617V549.353C113.576 547.834 112.344 546.602 110.824 546.602Z" fill="white" stroke="#2E2E2E" stroke-width="2" stroke-linecap="round" stroke-linejoin="round"/>
<path d="M61.2361 453.645C62.0371 451.842 63.2432 450.249 64.7606 448.989" stroke="#2E2E2E" stroke-width="2" stroke-linecap="round" stroke-linejoin="round"/>
<path d="M75.1457 543.001C75.1457 543.001 87.0197 541.022 95.4258 527.169C103.832 513.316 91.9767 506.437 72.6767 490.058C60.6707 479.899 58.0509 468.383 59.3325 459.902" stroke="#2E2E2E" stroke-width="2" stroke-linecap="round" stroke-linejoin="round"/>
<path d="M100.421 540.74C104.822 537.998 107.995 533.663 109.279 528.64C111.767 519.216 108.299 508.36 94.4458 499.463C80.5928 490.567 73.1668 488.155 66.7397 479.673" stroke="#2E2E2E" stroke-width="2" stroke-linecap="round" stroke-linejoin="round"/>
<path d="M90.4878 544.472C92.6741 544.132 94.8045 543.498 96.8206 542.587" stroke="#2E2E2E" stroke-width="2" stroke-linecap="round" stroke-linejoin="round"/>
<path d="M264.15 437.455C255.178 427.447 251.522 416.308 254.236 401.022C258.948 374.635 287.898 345.29 287.898 326.838C287.898 308.386 300.809 265.413 340.257 262.869C379.705 260.324 399.721 280.152 408.109 323.577C416.496 367.002 416.081 374.598 425.844 394.859C429.859 403.208 434.401 411.633 436.06 420.85C439.358 439.132 419.511 448.066 405.47 453.098C366.041 467.196 316.697 476.507 279.567 450.969C273.907 447.096 268.731 442.559 264.15 437.455Z" fill="#2E2E2E" stroke="#2E2E2E" stroke-width="2" stroke-linecap="round" stroke-linejoin="round"/>
<path d="M407.016 357.145C409.166 358.139 411.415 358.903 413.725 359.426" stroke="white" stroke-width="2" stroke-miterlimit="10" stroke-linecap="round"/>
<path d="M352.923 297.209C352.923 297.209 368.472 333.962 386.848 345.987C390.976 348.682 394.595 350.831 397.724 352.565" stroke="white" stroke-width="2" stroke-miterlimit="10" stroke-linecap="round"/>
<path d="M328.93 308.537C319.996 323.973 302.976 348.437 280.095 358.709" stroke="white" stroke-width="2" stroke-miterlimit="10" stroke-linecap="round"/>
<path d="M335.941 295.08C335.941 295.08 334.848 297.567 332.756 301.582" stroke="white" stroke-width="2" stroke-miterlimit="10" stroke-linecap="round"/>
<path d="M294.231 359.425C294.231 359.425 265.205 388.338 268.787 422.263" stroke="white" stroke-width="2" stroke-miterlimit="10" stroke-linecap="round"/>
<path d="M302.015 365.721C302.015 365.721 288.577 402.493 292.818 425.826" stroke="white" stroke-width="2" stroke-miterlimit="10" stroke-linecap="round"/>
<path d="M314.681 402.474C314.681 402.474 247.734 420.548 242.664 422.358C237.594 424.167 238.329 435.759 238.329 438.284C238.329 440.81 223.496 516.804 223.496 516.804C218.749 519.796 214.265 523.189 210.095 526.944C204.309 532.372 206.476 539.609 206.476 541.419C206.476 543.228 206.834 543.944 205.025 545.754C203.216 547.563 199.239 544.321 199.974 555.535C200.709 566.75 196.713 593.231 206.834 594.607C216.956 595.983 222.044 594.984 236.878 589.914C245.612 587.004 252.958 580.96 257.497 572.951V615.66H439.151C439.151 615.66 457.603 561.736 458.696 526.284C459.789 490.831 464.482 438.699 457.98 428.936C451.477 419.173 417.08 408.316 386.679 404.698C356.278 401.079 320.109 401.022 314.681 402.474Z" fill="#4C9EE6"/>
<mask id="mask0_356_8900" style="mask-type:luminance" maskUnits="userSpaceOnUse" x="199" y="401" width="263" height="215">
<path d="M314.681 402.474C314.681 402.474 247.734 420.548 242.664 422.358C237.594 424.167 238.329 435.759 238.329 438.284C238.329 440.81 223.496 516.804 223.496 516.804C218.749 519.796 214.265 523.189 210.095 526.944C204.309 532.372 206.476 539.609 206.476 541.419C206.476 543.228 206.834 543.944 205.025 545.754C203.216 547.563 199.239 544.321 199.974 555.535C200.709 566.75 196.713 593.231 206.834 594.607C216.956 595.983 222.044 594.984 236.878 589.914C245.612 587.004 252.958 580.96 257.497 572.951V615.66H439.151C439.151 615.66 457.603 561.736 458.696 526.284C459.789 490.831 464.482 438.699 457.98 428.936C451.477 419.173 417.08 408.316 386.679 404.698C356.278 401.079 320.109 401.022 314.681 402.474Z" fill="white"/>
</mask>
<g mask="url(#mask0_356_8900)">
<g style="mix-blend-mode:multiply" opacity="0.24">
<path d="M451.063 423.017C452.005 424.129 452.401 425.072 451.59 425.448C449.103 426.636 437.417 430.405 436.003 435.362C434.59 440.319 435.174 420.284 432.46 426.146C429.746 432.007 426.071 455.209 411.2 501.989C399.307 539.326 392.861 587.048 396.876 615.603H439.151C439.151 615.603 457.603 561.679 458.696 526.227C459.789 490.775 464.482 438.642 457.98 428.879C456.096 426.475 453.743 424.481 451.063 423.017Z" fill="black"/>
</g>
<path d="M317.206 392.333C314.673 394.041 312.669 396.424 311.42 399.213C308.895 404.264 287.54 443.712 285.731 445.521C283.921 447.331 295.494 446.973 300.206 444.805C304.918 442.638 313.588 442.638 313.588 442.638L321.918 449.14L347.608 459.28C347.608 459.28 359.18 450.95 364.966 446.257C370.753 441.563 373.297 439.735 373.297 439.735C378.322 441.436 383.169 443.62 387.772 446.257C393.558 449.875 391.391 451.685 393.558 449.875C395.726 448.066 394.652 444.447 391.674 439.377C388.696 434.307 379.743 406.45 368.51 396.027C357.277 385.605 330.588 382.193 317.206 392.333Z" fill="#4C9EE6" stroke="#2E2E2E" stroke-width="2" stroke-linecap="round" stroke-linejoin="round"/>
<path d="M369.678 482.444L419.625 482.802L418.531 496.919L392.842 509.943L369.678 497.277V482.444Z" fill="#4C9EE6" stroke="#2E2E2E" stroke-width="2" stroke-linecap="round" stroke-linejoin="round"/>
<path d="M257.497 478.09L307.443 478.448L306.35 492.565L280.661 505.589L257.497 492.923V478.09Z" fill="#4C9EE6" stroke="#2E2E2E" stroke-width="2" stroke-linecap="round" stroke-linejoin="round"/>
<g style="mix-blend-mode:multiply" opacity="0.24">
<path d="M258.1 586.332C258.1 586.332 255.273 479.315 257.403 467.253C259.533 455.19 244.643 419.059 245.34 438.208C246.038 457.358 250.995 486.213 251.409 493.394C251.824 500.575 234.71 497.032 236.124 506.248C237.537 515.465 247.432 515.446 250.316 529.638C253.2 543.831 229.037 543.096 229.037 550.899C229.037 558.702 237.556 569.313 230.469 575.702C223.383 582.092 219.387 573.535 219.387 573.535C221.909 580.257 222.394 587.573 220.782 594.569C226.269 593.439 231.667 591.915 236.934 590.008C245.668 587.098 253.015 581.054 257.554 573.045V588.424L258.1 586.332Z" fill="black"/>
</g>
</g>
<path d="M314.681 402.474C314.681 402.474 247.734 420.548 242.664 422.358C237.594 424.167 238.329 435.759 238.329 438.284C238.329 440.81 223.496 516.804 223.496 516.804C218.749 519.796 214.265 523.189 210.095 526.944C204.309 532.372 206.476 539.609 206.476 541.419C206.476 543.228 206.834 543.944 205.025 545.754C203.216 547.563 199.239 544.321 199.974 555.535C200.709 566.75 196.713 593.231 206.834 594.607C216.956 595.983 222.044 594.984 236.878 589.914C245.612 587.004 252.958 580.96 257.497 572.951V615.66H439.151C439.151 615.66 457.603 561.736 458.696 526.284C459.789 490.831 464.482 438.699 457.98 428.936C451.477 419.173 417.08 408.316 386.679 404.698C356.278 401.079 320.109 401.022 314.681 402.474Z" stroke="#2E2E2E" stroke-width="2" stroke-linecap="round" stroke-linejoin="round"/>
<path d="M257.497 511.017V573.629C257.497 573.629 254.236 533.823 245.566 523.683" stroke="#2E2E2E" stroke-width="2" stroke-linecap="round" stroke-linejoin="round"/>
<path d="M208.663 544.773C208.663 544.773 227.85 551.653 231.826 565.751C235.803 579.849 231.11 588.915 231.11 588.915" stroke="#2E2E2E" stroke-width="2" stroke-linecap="round" stroke-linejoin="round"/>
<path d="M185.706 568.502C185.706 568.502 199.71 562.132 200.784 560.963C201.859 559.795 214.185 560.379 219.33 573.497C224.476 586.615 220.744 592.91 218.181 594.324C215.617 595.737 202.179 599.658 198.466 599.658C194.753 599.658 179.147 573.365 185.706 568.502Z" fill="#4C9EE6" stroke="#2E2E2E" stroke-width="2" stroke-linecap="round" stroke-linejoin="round"/>
<path d="M319.374 398.855C319.374 398.855 313.23 615.094 315.755 615.094H359.915C359.915 615.094 360.273 457.471 363.157 442.638C366.041 427.805 372.939 401.38 371.846 394.143C370.753 386.905 321.56 390.882 321.56 390.882C320.452 393.421 319.715 396.106 319.374 398.855Z" fill="white"/>
<mask id="mask1_356_8900" style="mask-type:luminance" maskUnits="userSpaceOnUse" x="315" y="389" width="57" height="227">
<path d="M319.374 398.855C319.374 398.855 313.23 615.094 315.755 615.094H359.915C359.915 615.094 360.273 457.471 363.157 442.638C366.041 427.805 372.939 401.38 371.846 394.143C370.753 386.905 321.56 390.882 321.56 390.882C320.452 393.421 319.715 396.106 319.374 398.855Z" fill="white"/>
</mask>
<g mask="url(#mask1_356_8900)">
<path d="M319.374 398.855C319.374 398.855 313.23 615.094 315.755 615.094H359.915C359.915 615.094 360.273 457.471 363.157 442.638C366.041 427.805 372.939 401.38 371.846 394.143C370.753 386.905 321.56 390.882 321.56 390.882C320.452 393.421 319.715 396.106 319.374 398.855Z" fill="#4C9EE6"/>
<path opacity="0.7" d="M319.374 398.855C319.374 398.855 313.23 615.094 315.755 615.094H359.915C359.915 615.094 360.273 457.471 363.157 442.638C366.041 427.805 372.939 401.38 371.846 394.143C370.753 386.905 321.56 390.882 321.56 390.882C320.452 393.421 319.715 396.106 319.374 398.855Z" fill="white"/>
</g>
<path d="M319.374 398.855C319.374 398.855 313.23 615.094 315.755 615.094H359.915C359.915 615.094 360.273 457.471 363.157 442.638C366.041 427.805 372.939 401.38 371.846 394.143C370.753 386.905 321.56 390.882 321.56 390.882C320.452 393.421 319.715 396.106 319.374 398.855Z" stroke="#2E2E2E" stroke-width="2" stroke-linecap="round" stroke-linejoin="round"/>
<path d="M362.893 444.428C348.407 449.084 332.917 449.651 318.13 446.068C316.471 510.715 313.983 615.094 315.755 615.094H359.915C359.915 615.094 360.254 467.366 362.893 444.428Z" fill="white"/>
<mask id="mask2_356_8900" style="mask-type:luminance" maskUnits="userSpaceOnUse" x="315" y="444" width="48" height="172">
<path d="M362.893 444.428C348.407 449.084 332.917 449.651 318.13 446.068C316.471 510.715 313.983 615.094 315.755 615.094H359.915C359.915 615.094 360.254 467.366 362.893 444.428Z" fill="white"/>
</mask>
<g mask="url(#mask2_356_8900)">
<path d="M360.009 593.117C360.009 587.199 360.009 580.508 360.123 573.327H315.397C315.397 580.565 315.227 587.237 315.19 593.117H360.009Z" fill="white"/>
<path d="M316.094 535.632C315.963 542.417 315.831 549.033 315.718 555.422H360.311C360.311 548.957 360.424 542.323 360.5 535.632H316.094Z" fill="white"/>
<path d="M316.867 497.937C316.716 504.514 316.566 511.13 316.434 517.727H360.669C360.763 510.979 360.858 504.326 360.971 497.937H316.867Z" fill="white"/>
<path d="M317.772 460.241C317.621 466.593 317.451 473.227 317.282 480.031H361.329C361.498 472.624 361.706 465.914 361.932 460.241H317.772Z" fill="white"/>
</g>
<path d="M362.893 444.428C348.407 449.084 332.917 449.651 318.13 446.068C316.471 510.715 313.983 615.094 315.755 615.094H359.915C359.915 615.094 360.254 467.366 362.893 444.428Z" stroke="#2E2E2E" stroke-width="2" stroke-linecap="round" stroke-linejoin="round"/>
<path d="M340.37 305.408C340.37 305.408 333.849 326.027 305.634 344.498C305.634 344.498 303.749 370.187 311.42 389.355C319.091 408.523 339.277 423.733 347.966 421.924C356.654 420.115 373.655 400.57 379.441 386.83C385.228 373.09 385.246 348.475 385.246 348.475C385.246 348.475 355.919 329.363 340.37 305.408Z" fill="white" stroke="#2E2E2E" stroke-width="2" stroke-linecap="round" stroke-linejoin="round"/>
<path d="M338.203 375.333C338.203 375.333 337.468 387.264 339.277 388.357C341.086 389.45 344.347 389.073 344.705 385.096" stroke="#2E2E2E" stroke-width="2" stroke-linecap="round" stroke-linejoin="round"/>
<path d="M334.584 395.877C334.584 395.877 345.798 398.044 351.943 394.425" stroke="#2E2E2E" stroke-width="2" stroke-linecap="round" stroke-linejoin="round"/>
<path d="M334.358 339.616C334.358 339.616 319.167 335.564 312.645 346.873" stroke="#2E2E2E" stroke-width="2" stroke-linecap="round" stroke-linejoin="round"/>
<path d="M348.965 348.287C348.965 348.287 359.5 337.675 374.352 347.25" stroke="#2E2E2E" stroke-width="2" stroke-linecap="round" stroke-linejoin="round"/>
<path d="M316.848 362.29C316.848 362.29 323.728 368.811 334.942 364.175" stroke="#2E2E2E" stroke-width="2" stroke-linecap="round" stroke-linejoin="round"/>
<path d="M351.17 363.836C351.17 363.836 360.594 368.19 368.529 363.12" stroke="#2E2E2E" stroke-width="2" stroke-linecap="round" stroke-linejoin="round"/>
<path d="M323.954 380.384C332.344 380.384 339.145 373.583 339.145 365.193C339.145 356.803 332.344 350.001 323.954 350.001C315.564 350.001 308.763 356.803 308.763 365.193C308.763 373.583 315.564 380.384 323.954 380.384Z" stroke="#2E2E2E" stroke-width="2" stroke-linecap="round" stroke-linejoin="round"/>
<path d="M360.217 380.384C368.607 380.384 375.408 373.583 375.408 365.193C375.408 356.803 368.607 350.001 360.217 350.001C351.827 350.001 345.026 356.803 345.026 365.193C345.026 373.583 351.827 380.384 360.217 380.384Z" stroke="#2E2E2E" stroke-width="2" stroke-linecap="round" stroke-linejoin="round"/>
<path d="M339.145 365.193H345.007" stroke="#2E2E2E" stroke-width="2" stroke-linecap="round" stroke-linejoin="round"/>
<path d="M375.408 365.193H384.304" stroke="#2E2E2E" stroke-width="2" stroke-linecap="round" stroke-linejoin="round"/>
<path d="M304.691 365.193H308.725" stroke="#2E2E2E" stroke-width="2" stroke-linecap="round" stroke-linejoin="round"/>
<path d="M329.665 366.135C329.665 366.135 333.528 366.305 329.91 367.643C326.291 368.981 322.634 368.321 318.884 365.136C318.884 365.136 326.065 366.079 329.665 366.135Z" fill="#2E2E2E" stroke="#2E2E2E" stroke-width="2" stroke-linecap="round" stroke-linejoin="round"/>
<path d="M355.863 365.23C355.863 365.23 352.093 364.891 355.429 366.681C358.765 368.472 362.554 368.321 366.738 365.626C366.681 365.72 359.444 365.72 355.863 365.23Z" fill="#2E2E2E" stroke="#2E2E2E" stroke-width="2" stroke-linecap="round" stroke-linejoin="round"/>
<path d="M413.103 491.114L407.317 431.405C407.317 431.405 395.01 428.879 390.675 425.976C386.34 423.074 381.251 419.474 381.251 419.474C381.251 419.474 378.367 422 376.2 419.474C374.032 416.948 367.153 411.935 366.06 407.883C364.966 403.83 372.581 398.459 377.274 391.975C381.967 385.492 387.056 379.31 390.675 379.668C394.293 380.026 409.843 395.877 417.872 408.26C425.901 420.643 429.086 423.809 429.444 428.163C429.802 432.517 436.983 454.55 436.983 454.55L438.868 491.83L413.103 491.114Z" fill="white" stroke="#2E2E2E" stroke-width="2" stroke-linecap="round" stroke-linejoin="round"/>
<path d="M381.251 419.474C381.251 419.474 374.126 412.444 374.126 410.333" stroke="#2E2E2E" stroke-width="2" stroke-linecap="round" stroke-linejoin="round"/>
<path d="M400.796 456.566L407.675 494.921L415.214 452.213L444.523 448.971C444.523 448.971 444.259 494.563 444.259 506.136C444.259 517.708 449.329 570.557 450.78 589.065C452.231 607.574 442.449 613.567 429.067 614.02C415.686 614.472 404.81 602.089 400.475 577.116C396.14 552.143 401.192 506.55 399.024 498.955C396.857 491.359 387.716 460.242 387.716 460.242L400.796 456.566Z" fill="#4C9EE6"/>
<mask id="mask3_356_8900" style="mask-type:luminance" maskUnits="userSpaceOnUse" x="387" y="448" width="64" height="167">
<path d="M400.796 456.566L407.675 494.921L415.214 452.213L444.523 448.971C444.523 448.971 444.259 494.563 444.259 506.136C444.259 517.708 449.329 570.557 450.78 589.065C452.231 607.574 442.449 613.567 429.067 614.02C415.686 614.472 404.81 602.089 400.475 577.116C396.14 552.143 401.192 506.55 399.024 498.955C396.857 491.359 387.716 460.242 387.716 460.242L400.796 456.566Z" fill="white"/>
</mask>
<g mask="url(#mask3_356_8900)">
<g style="mix-blend-mode:multiply" opacity="0.24">
<path d="M433.666 613.567C444.579 611.947 452.005 605.256 450.742 589.065C449.291 570.614 444.221 517.784 444.221 506.136C444.221 494.488 444.579 448.971 444.579 448.971L439.829 449.498C437.097 458.602 421.868 512.035 429.614 550.183C438.133 592.006 445.22 596.246 433.874 613.266L433.666 613.567Z" fill="black"/>
</g>
</g>
<path d="M400.796 456.566L407.675 494.921L415.214 452.213L444.523 448.971C444.523 448.971 444.259 494.563 444.259 506.136C444.259 517.708 449.329 570.557 450.78 589.065C452.231 607.574 442.449 613.567 429.067 614.02C415.686 614.472 404.81 602.089 400.475 577.116C396.14 552.143 401.192 506.55 399.024 498.955C396.857 491.359 387.716 460.242 387.716 460.242L400.796 456.566Z" stroke="#2E2E2E" stroke-width="2" stroke-linecap="round" stroke-linejoin="round"/>
<path d="M170.722 606.028C170.722 606.028 169.855 611.852 175.133 613.171C180.41 614.491 193.094 611.192 194.15 608.478C194.464 607.734 194.553 606.915 194.405 606.121C194.258 605.327 193.881 604.593 193.321 604.011H181.748C181.748 604.011 173.022 601.316 170.722 606.028Z" fill="white" stroke="#2E2E2E" stroke-width="2" stroke-linecap="round" stroke-linejoin="round"/>
<path d="M118.91 543.228L166.877 576.551L170.458 571.782L122.265 538.177L118.91 543.228Z" fill="#2E2E2E" stroke="#2E2E2E" stroke-width="2" stroke-linecap="round" stroke-linejoin="round"/>
<path d="M130.049 550.955L133.781 546.206L122.265 538.177L118.91 543.228L130.049 550.955Z" fill="white" stroke="#2E2E2E" stroke-width="2" stroke-linecap="round" stroke-linejoin="round"/>
<path d="M178.242 605.519C185.751 605.166 192.896 602.184 198.428 597.094C207.023 588.726 207.607 583.128 195.997 571.103C184.387 559.079 158.999 573.158 158.189 578.473C157.378 583.788 178.242 605.519 178.242 605.519Z" fill="white" stroke="#2E2E2E" stroke-width="2" stroke-linecap="round" stroke-linejoin="round"/>
<path d="M203.932 583.788C203.932 583.788 200.652 590.63 197.542 593.212C194.433 595.794 189.494 596.491 186.573 592.326C183.652 588.161 180.655 575.231 178.11 574.967C175.566 574.703 162.882 570.538 159.263 565.544C155.644 560.549 155.833 556.685 163.805 559.06C171.778 561.435 193.113 564.205 193.113 564.205C193.113 564.205 198.164 567.24 201.67 577.889" fill="white"/>
<path d="M203.932 583.788C203.932 583.788 200.652 590.63 197.542 593.212C194.433 595.794 189.494 596.491 186.573 592.326C183.652 588.161 180.655 575.231 178.11 574.967C175.566 574.703 162.882 570.538 159.263 565.544C155.644 560.549 155.833 556.685 163.805 559.06C171.778 561.435 193.113 564.205 193.113 564.205C193.113 564.205 198.164 567.24 201.67 577.889" stroke="#2E2E2E" stroke-width="2" stroke-linecap="round" stroke-linejoin="round"/>
<path d="M162.9 599.809C164.031 601.203 167.744 607.517 169.497 607.951C171.25 608.384 182.012 601.543 186.158 596.322C190.305 591.101 182.577 583.864 180.372 582.846C178.167 581.828 162.9 599.809 162.9 599.809Z" fill="white" stroke="#2E2E2E" stroke-width="2" stroke-linecap="round" stroke-linejoin="round"/>
<path d="M157.416 580.961C157.416 580.961 147.992 586.615 150.235 590.498C152.478 594.38 160.017 600.28 162.429 599.243C164.842 598.206 181.088 590.649 181.013 586.521C180.938 582.393 180.674 577.474 172.362 578.153C167.297 578.577 162.289 579.518 157.416 580.961Z" fill="white" stroke="#2E2E2E" stroke-width="2" stroke-linecap="round" stroke-linejoin="round"/>
<path d="M147.992 565.299C147.992 565.299 143.412 574.61 147.615 578.643C151.818 582.676 177.771 582.582 179.091 577.833C180.41 573.083 170.684 572.065 163.541 568.993C156.398 565.921 148.991 563.094 147.992 565.299Z" fill="white" stroke="#2E2E2E" stroke-width="2" stroke-linecap="round" stroke-linejoin="round"/>
<path d="M248.639 613.794C248.639 613.794 247.922 601.486 237.066 597.151C226.21 592.816 220.405 594.607 196.167 601.128C180.892 605.123 165.249 607.548 149.481 608.366V613.794H248.639Z" fill="white" stroke="#2E2E2E" stroke-width="2" stroke-linecap="round" stroke-linejoin="round"/>
<path d="M248.243 613.794C248.243 613.794 248.959 601.486 259.815 597.151C270.671 592.816 276.458 594.607 300.715 601.128C315.983 605.123 331.62 607.548 347.381 608.366V613.794H248.243Z" fill="white" stroke="#2E2E2E" stroke-width="2" stroke-linecap="round" stroke-linejoin="round"/>
<path d="M351.415 611.626H146.955V615.603H351.415V611.626Z" fill="#2E2E2E" stroke="#2E2E2E" stroke-width="2" stroke-linecap="round" stroke-linejoin="round"/>
<path d="M27.7249 615.603H684.868" stroke="#2E2E2E" stroke-width="2" stroke-linecap="round" stroke-linejoin="round"/>
<path d="M677.329 506.324H538.007L490.605 615.961H629.927L677.329 506.324Z" fill="white" stroke="#2E2E2E" stroke-width="2" stroke-linecap="round" stroke-linejoin="round"/>
<path d="M682.757 506.324H543.435L496.033 615.961H635.355L682.757 506.324Z" fill="#2E2E2E" stroke="#2E2E2E" stroke-width="2" stroke-linecap="round" stroke-linejoin="round"/>
<path d="M600.544 573.045C596.962 578.699 590.253 580.923 585.56 577.945C580.867 574.967 579.905 567.975 583.524 562.302C587.143 556.628 593.815 554.442 598.602 557.401C603.39 560.36 604.125 567.391 600.544 573.045Z" fill="white" stroke="#4C9EE6" stroke-width="2" stroke-linecap="round" stroke-linejoin="round"/>
<path d="M492.414 611.626H390.731V615.603H492.414V611.626Z" fill="white" stroke="#2E2E2E" stroke-width="2" stroke-linecap="round" stroke-linejoin="round"/>
<path d="M610.5 566C610.5 556.335 602.665 548.5 593 548.5C583.339 548.5 575.507 556.329 575.5 565.988V579.531C575.505 581.724 577.284 583.5 579.479 583.5H593.007C602.669 583.496 610.5 575.663 610.5 566Z" fill="#294172"/>
<path d="M598.138 552.644C593.611 552.644 589.928 556.326 589.928 560.853V565.21H585.589C581.063 565.21 577.38 568.893 577.38 573.42C577.38 577.946 581.063 581.629 585.589 581.629C590.116 581.629 593.798 577.946 593.798 573.42V569.062H598.138C602.664 569.062 606.347 565.38 606.347 560.853C606.347 556.326 602.664 552.644 598.138 552.644ZM589.959 573.42C589.959 575.829 587.998 577.789 585.589 577.789C583.18 577.789 581.22 575.829 581.22 573.42C581.22 571.01 583.18 569.05 585.589 569.05H589.928V569.062H589.959V573.42ZM598.138 565.222H593.798V565.21H593.768V560.853C593.768 558.443 595.728 556.483 598.138 556.483C600.547 556.483 602.507 558.443 602.507 560.853C602.507 563.262 600.547 565.222 598.138 565.222Z" fill="#3C6EB4"/>
<path d="M599.952 552.892C599.315 552.726 598.826 552.648 598.138 552.648C593.602 552.648 589.925 556.326 589.925 560.861V565.215H586.485C585.412 565.215 584.545 566.058 584.546 567.128C584.546 568.192 585.403 569.038 586.465 569.038L589.313 569.039C589.651 569.039 589.925 569.313 589.925 569.65V573.417C589.921 575.808 587.981 577.745 585.59 577.745C584.779 577.745 584.579 577.639 584.026 577.639C582.864 577.639 582.087 578.418 582.087 579.489C582.087 580.375 582.846 581.136 583.775 581.379C584.412 581.546 584.901 581.624 585.59 581.624C590.125 581.624 593.803 577.946 593.803 573.41V569.057H597.243C598.315 569.057 599.182 568.214 599.181 567.143C599.181 566.079 598.324 565.233 597.263 565.233L594.415 565.232C594.253 565.233 594.097 565.168 593.982 565.054C593.867 564.939 593.803 564.784 593.803 564.621V560.854C593.807 558.463 595.747 556.526 598.138 556.526C598.948 556.526 599.149 556.632 599.702 556.632C600.863 556.632 601.641 555.853 601.641 554.783C601.64 553.897 600.881 553.135 599.952 552.892Z" fill="white"/>
</svg>
